<svg width="177" height="164" viewBox="0 0 177 164" fill="none" xmlns="http://www.w3.org/2000/svg">
<path d="M108.466 161.694H8.68878C6.90237 161.694 5.18914 160.984 3.92596 159.721C2.66278 158.458 1.95313 156.744 1.95313 154.958V25.7875C1.95312 23.9252 2.69293 22.1391 4.00978 20.8223C5.32664 19.5054 7.11268 18.7656 8.975 18.7656H108.164C110.026 18.7656 111.812 19.5054 113.129 20.8223C114.446 22.1391 115.186 23.9252 115.186 25.7875V154.958C115.187 156.742 114.479 158.453 113.22 159.716C111.96 160.979 110.25 161.69 108.466 161.694Z" fill="#EDE9E3"/>
<path d="M108.466 161.694H8.68878C6.90237 161.694 5.18914 160.984 3.92596 159.721C2.66278 158.458 1.95313 156.744 1.95313 154.958V25.7875C1.95312 23.9252 2.69293 22.1391 4.00978 20.8223C5.32664 19.5054 7.11268 18.7656 8.975 18.7656H108.164C110.026 18.7656 111.812 19.5054 113.129 20.8223C114.446 22.1391 115.186 23.9252 115.186 25.7875V154.958C115.187 156.742 114.479 158.453 113.22 159.716C111.96 160.979 110.25 161.69 108.466 161.694V161.694Z" stroke="#B29E85" stroke-width="2.8783" stroke-linecap="round" stroke-linejoin="round"/>
<path d="M13.0938 29.8989H104.049V150.555H13.0938V29.8989Z" fill="white"/>
<path d="M104.043 71.233L77.6305 99.8555C75.9648 101.665 75.0856 104.062 75.1859 106.52C75.2862 108.978 76.3579 111.295 78.1655 112.963C79.2998 114.009 80.6801 114.75 82.178 115.119L73.5913 123.709L74.9047 125.022L63.3059 136.618C62.7866 137.135 62.4316 137.794 62.2856 138.512C62.1395 139.23 62.2089 139.975 62.4849 140.654C62.761 141.333 63.2315 141.915 63.8373 142.327C64.4431 142.739 65.1572 142.963 65.8899 142.971C66.1595 142.971 66.4284 142.943 66.6924 142.888C76.8574 140.727 82.0282 137.605 82.0871 133.598L82.7879 132.894L85.4148 135.521L91.8749 129.042C92.3327 129.409 92.8234 129.732 93.3408 130.008C95.049 130.917 96.9987 131.27 98.9172 131.017C100.836 130.764 102.627 129.917 104.041 128.596L104.043 71.233Z" fill="#EDE9E3"/>
<path d="M13.0938 29.8989H104.049V150.555H13.0938V29.8989Z" stroke="#B29E85" stroke-width="2.8783" stroke-linecap="round" stroke-linejoin="round"/>
<path d="M26.0586 59.5995H82.7766" stroke="#B29E85" stroke-width="2.8783" stroke-linecap="round" stroke-linejoin="round"/>
<path d="M26.0586 76.3049H82.7766" stroke="#B29E85" stroke-width="2.8783" stroke-linecap="round" stroke-linejoin="round"/>
<path d="M26.0586 94.8694H65.5897" stroke="#B29E85" stroke-width="2.8783" stroke-linecap="round" stroke-linejoin="round"/>
<path d="M33.1647 13.1936H83.9737C84.865 13.1964 85.7189 13.5525 86.3481 14.1838C86.9774 14.8151 87.3308 15.6701 87.3308 16.5614V33.9489C87.3308 34.8428 86.9757 35.7001 86.3436 36.3322C85.7115 36.9643 84.8542 37.3194 83.9603 37.3194H33.1674C32.2735 37.3194 31.4162 36.9643 30.7841 36.3322C30.152 35.7001 29.7969 34.8428 29.7969 33.9489V16.5614C29.7969 15.6682 30.1517 14.8116 30.7833 14.18C31.4149 13.5484 32.2715 13.1936 33.1647 13.1936Z" fill="white"/>
<path d="M33.1647 13.1936H83.9737C84.865 13.1964 85.7189 13.5525 86.3481 14.1838C86.9774 14.8151 87.3308 15.6701 87.3308 16.5614V33.9489C87.3308 34.8428 86.9757 35.7001 86.3436 36.3322C85.7115 36.9643 84.8542 37.3194 83.9603 37.3194H33.1674C32.2735 37.3194 31.4162 36.9643 30.7841 36.3322C30.152 35.7001 29.7969 34.8428 29.7969 33.9489V16.5614C29.7969 15.6682 30.1517 14.8116 30.7833 14.18C31.4149 13.5484 32.2715 13.1936 33.1647 13.1936V13.1936Z" stroke="#B29E85" stroke-width="2.8783" stroke-linecap="round" stroke-linejoin="round"/>
<path d="M42.7891 29.8989H74.346" stroke="#B29E85" stroke-width="2.8783" stroke-linecap="round" stroke-linejoin="round"/>
<path d="M50.2148 11.3372C50.2148 12.5561 50.4549 13.7632 50.9214 14.8893C51.3879 16.0155 52.0716 17.0388 52.9336 17.9007C53.7955 18.7627 54.8188 19.4464 55.9449 19.9129C57.0711 20.3793 58.2781 20.6194 59.4971 20.6194C60.7161 20.6194 61.9231 20.3793 63.0493 19.9129C64.1754 19.4464 65.1987 18.7627 66.0606 17.9007C66.9226 17.0388 67.6063 16.0155 68.0728 14.8893C68.5393 13.7632 68.7794 12.5561 68.7794 11.3372C68.7794 10.1182 68.5393 8.91119 68.0728 7.78502C67.6063 6.65884 66.9226 5.63557 66.0606 4.77364C65.1987 3.9117 64.1754 3.22798 63.0493 2.7615C61.9231 2.29502 60.7161 2.05493 59.4971 2.05493C58.2781 2.05493 57.0711 2.29502 55.9449 2.7615C54.8188 3.22798 53.7955 3.9117 52.9336 4.77364C52.0716 5.63557 51.3879 6.65884 50.9214 7.78502C50.4549 8.91119 50.2148 10.1182 50.2148 11.3372Z" fill="white"/>
<path d="M50.2148 11.3372C50.2148 12.5561 50.4549 13.7632 50.9214 14.8893C51.3879 16.0155 52.0716 17.0388 52.9336 17.9007C53.7955 18.7627 54.8188 19.4464 55.9449 19.9129C57.0711 20.3793 58.2781 20.6194 59.4971 20.6194C60.7161 20.6194 61.9231 20.3793 63.0493 19.9129C64.1754 19.4464 65.1987 18.7627 66.0606 17.9007C66.9226 17.0388 67.6063 16.0155 68.0728 14.8893C68.5393 13.7632 68.7794 12.5561 68.7793 11.3372C68.7794 10.1182 68.5393 8.91119 68.0728 7.78502C67.6063 6.65884 66.9226 5.63557 66.0606 4.77364C65.1987 3.9117 64.1754 3.22798 63.0493 2.7615C61.9231 2.29502 60.7161 2.05493 59.4971 2.05493C58.2781 2.05493 57.0711 2.29502 55.9449 2.7615C54.8188 3.22798 53.7955 3.9117 52.9336 4.77364C52.0716 5.63557 51.3879 6.65884 50.9214 7.78502C50.4549 8.91119 50.2148 10.1182 50.2148 11.3372V11.3372Z" stroke="#B29E85" stroke-width="2.8783" stroke-linecap="round" stroke-linejoin="round"/>
<path d="M97.6484 93.7137L130.163 105.842L143.84 83.9072L108.488 74.3601L97.6484 93.7137Z" fill="#D9EDFF"/>
<path d="M149.484 130.725L174.666 105.543C174.765 105.448 174.868 105.358 174.977 105.275C166.548 97.9617 164.469 82.4681 148.259 74.0044C126.92 62.8603 100.529 65.5193 77.3471 94.4681C76.8164 95.0982 76.4167 95.8278 76.1714 96.6142C75.9262 97.4006 75.8403 98.2281 75.9188 99.0481C75.9973 99.8681 76.2387 100.664 76.6287 101.39C77.0188 102.115 77.5497 102.756 78.1903 103.274C78.831 103.792 79.5685 104.177 80.3598 104.406C81.151 104.635 81.98 104.704 82.7983 104.609C83.6166 104.514 84.4077 104.256 85.1252 103.852C85.8427 103.447 86.4723 102.903 86.9771 102.252C88.5143 100.351 90.0587 98.5814 91.6102 96.9425C92.1554 97.5247 92.8087 97.9953 93.5335 98.3282C117.788 116.692 122.691 119.025 128.624 121.333C137.799 124.899 141.849 126.622 148.596 132.729C148.637 131.975 148.953 131.262 149.484 130.725ZM132.867 91.5283C130.823 94.001 127.98 95.6816 124.828 96.2795C121.676 96.8774 118.415 96.3549 115.608 94.8025L101.264 88.2434C109.634 82.1177 118.079 79.5604 126.49 80.6571C133.645 81.5773 135.301 87.9064 132.867 91.5283Z" fill="white"/>
<path d="M31.7229 114.159C30.7631 115.118 30.0548 116.299 29.6606 117.597C29.2663 118.896 29.1984 120.271 29.4629 121.602C29.7273 122.933 30.3159 124.178 31.1765 125.227C32.0371 126.276 33.1431 127.096 34.3966 127.616C35.6501 128.135 37.0124 128.337 38.3627 128.204C39.713 128.071 41.0097 127.607 42.1378 126.853C43.266 126.1 44.1908 125.079 44.8303 123.882C45.4698 122.686 45.8043 121.35 45.8041 119.993V121.641C45.7864 122.519 45.9441 123.391 46.2678 124.208C46.5916 125.024 47.075 125.768 47.6896 126.395C48.3043 127.022 49.0379 127.52 49.8475 127.86C50.6572 128.2 51.5265 128.376 52.4046 128.376C53.2828 128.376 54.1521 128.2 54.9617 127.86C55.7714 127.52 56.505 127.022 57.1196 126.395C57.7343 125.768 58.2177 125.024 58.5414 124.208C58.8652 123.391 59.0229 122.519 59.0052 121.641C59.0052 123.391 59.7005 125.07 60.9381 126.307C62.1757 127.545 63.8542 128.24 65.6044 128.24H70.5532" stroke="#B29E85" stroke-width="2.8783" stroke-linecap="round" stroke-linejoin="round"/>
<path d="M113.576 96.2443C114.389 96.2877 115.185 96.4908 115.919 96.842C116.653 97.1931 117.311 97.6854 117.854 98.2908C118.398 98.8962 118.817 99.6027 119.088 100.37C119.359 101.138 119.476 101.951 119.432 102.763L118.343 122.863C118.299 123.675 118.095 124.471 117.744 125.204C117.392 125.938 116.9 126.595 116.294 127.138C115.689 127.681 114.982 128.1 114.215 128.37C113.448 128.64 112.635 128.756 111.823 128.712C111.011 128.668 110.215 128.464 109.482 128.113C108.748 127.761 108.091 127.269 107.548 126.663C107.005 126.058 106.586 125.351 106.316 124.584C106.046 123.817 105.93 123.004 105.974 122.192L107.063 102.095C107.151 100.455 107.887 98.918 109.108 97.8209C110.33 96.7239 111.937 96.1568 113.576 96.2443Z" fill="#EDE9E3" stroke="#B29E85" stroke-width="2.8783" stroke-linecap="round" stroke-linejoin="round"/>
<path d="M107.176 94.3129C108.625 95.0855 109.709 96.4021 110.188 97.9731C110.667 99.5442 110.502 101.241 109.731 102.691L102.34 117.077C101.567 118.527 100.251 119.611 98.6796 120.09C97.1084 120.569 95.4112 120.404 93.9614 119.632C92.5117 118.86 91.4281 117.543 90.949 115.972C90.4699 114.401 90.6346 112.703 91.4068 111.254L98.7978 96.8675C99.5704 95.4181 100.887 94.3348 102.458 93.8558C104.029 93.3768 105.726 93.5412 107.176 94.3129Z" fill="#EDE9E3" stroke="#B29E85" stroke-width="2.8783" stroke-linecap="round" stroke-linejoin="round"/>
<path d="M174.666 105.543C174.765 105.448 174.868 105.358 174.977 105.275C166.548 97.9617 164.469 82.4681 148.259 74.0044C126.92 62.8603 100.529 65.5193 77.3471 94.4681C76.8164 95.0982 76.4167 95.8278 76.1714 96.6142C75.9262 97.4006 75.8403 98.2281 75.9188 99.0481C75.9973 99.8681 76.2387 100.664 76.6287 101.39C77.0188 102.115 77.5497 102.756 78.1903 103.274C78.831 103.792 79.5685 104.177 80.3598 104.406C81.151 104.635 81.98 104.704 82.7983 104.609C83.6166 104.514 84.4077 104.256 85.1252 103.852C85.8427 103.447 86.4723 102.903 86.9771 102.252C88.5144 100.351 90.0587 98.5814 91.6102 96.9425C92.1554 97.5247 92.8087 97.9953 93.5335 98.3282C117.788 116.692 122.691 119.025 128.624 121.333C137.799 124.899 141.849 126.622 148.596 132.729L174.666 105.543ZM132.877 91.5337C130.833 94.008 127.987 95.6893 124.833 96.2863C121.679 96.8833 118.415 96.3584 115.608 94.8025L101.264 88.2434C109.634 82.1177 118.079 79.5604 126.49 80.6571C133.645 81.5773 135.301 87.9064 132.867 91.5283L132.877 91.5337Z" stroke="#B29E85" stroke-width="2.8783" stroke-linecap="round" stroke-linejoin="round"/>
<path d="M127.503 92.7588L119.43 81.3981L144.575 63.5371C145.251 63.0565 146.016 62.7138 146.825 62.5286C147.634 62.3435 148.471 62.3195 149.29 62.4581C150.108 62.5967 150.891 62.8952 151.594 63.3364C152.297 63.7777 152.906 64.3531 153.386 65.0298L154.138 66.0864C154.619 66.7629 154.961 67.5276 155.146 68.3366C155.332 69.1456 155.355 69.9831 155.217 70.8014C155.078 71.6196 154.78 72.4025 154.339 73.1054C153.897 73.8083 153.322 74.4174 152.645 74.8979L127.503 92.7588Z" fill="#EDE9E3"/>
<path d="M127.503 92.7588L119.43 81.3981L144.575 63.5371C145.251 63.0565 146.016 62.7138 146.825 62.5286C147.634 62.3435 148.471 62.3195 149.29 62.4581C150.108 62.5967 150.891 62.8952 151.594 63.3364C152.297 63.7777 152.906 64.3531 153.386 65.0298L154.138 66.0864C154.619 66.7629 154.961 67.5276 155.146 68.3366C155.332 69.1456 155.355 69.9831 155.217 70.8014C155.078 71.6196 154.78 72.4025 154.339 73.1054C153.897 73.8083 153.322 74.4174 152.645 74.8979L127.503 92.7588Z" stroke="#B29E85" stroke-width="2.8783" stroke-linecap="round" stroke-linejoin="round"/>
<path d="M120.531 74.9218L138.205 62.3681C138.697 62.0019 139.259 61.7393 139.856 61.596C140.453 61.4527 141.072 61.4316 141.677 61.5341C142.282 61.6365 142.86 61.8604 143.377 62.1922C143.893 62.524 144.337 62.9569 144.681 63.4648" stroke="#B29E85" stroke-width="2.8783" stroke-linecap="round" stroke-linejoin="round"/>
<path d="M79.8979 113.281L67.4832 122.109C67.2089 122.3 67.0039 122.574 66.8988 122.892C66.7937 123.209 66.7942 123.552 66.9002 123.869C67.0063 124.185 67.2121 124.459 67.487 124.65C67.7618 124.84 68.0909 124.936 68.4248 124.923C73.6304 124.709 81.0696 123.765 80.9599 120.132L83.4851 118.34L79.8979 113.281Z" fill="#EDE9E3" stroke="#B29E85" stroke-width="2.8783" stroke-linecap="round" stroke-linejoin="round"/>
<path d="M84.3899 119.594L79.9066 113.281C79.6691 112.947 79.5742 112.531 79.6429 112.126C79.7117 111.721 79.9383 111.36 80.2731 111.123L86.5834 106.639L92.8616 115.467L86.5299 119.948C86.198 120.181 85.7879 120.274 85.3878 120.208C84.9876 120.142 84.6293 119.922 84.3899 119.594Z" fill="white"/>
<path d="M84.3899 119.594L79.9066 113.281C79.6691 112.947 79.5742 112.531 79.6429 112.126C79.7117 111.721 79.9383 111.36 80.2731 111.123L86.5834 106.639L92.8616 115.467L86.5299 119.948C86.198 120.181 85.7879 120.274 85.3878 120.208C84.9876 120.142 84.6293 119.922 84.3899 119.594V119.594Z" stroke="#B29E85" stroke-width="2.8783" stroke-linecap="round" stroke-linejoin="round"/>
<path d="M91.9546 114.212L87.4713 107.91C87.2356 107.579 87.0676 107.204 86.9767 106.808C86.8858 106.411 86.874 106.001 86.9418 105.6C87.0096 105.199 87.1558 104.815 87.3719 104.471C87.5881 104.126 87.87 103.828 88.2016 103.593L119.43 81.3981L127.5 92.7588L96.2721 114.945C95.9406 115.181 95.5658 115.349 95.1694 115.439C94.7729 115.53 94.3624 115.542 93.9615 115.474C93.5605 115.406 93.1769 115.259 92.8325 115.043C92.4882 114.826 92.1899 114.544 91.9546 114.212Z" fill="#EDE9E3"/>
<path d="M91.9546 114.212L87.4713 107.91C87.2356 107.579 87.0676 107.204 86.9767 106.808C86.8858 106.411 86.874 106.001 86.9418 105.6C87.0096 105.199 87.1558 104.815 87.3719 104.471C87.5881 104.126 87.87 103.828 88.2016 103.593L119.43 81.3981L127.5 92.7588L96.2721 114.945C95.9406 115.181 95.5658 115.349 95.1694 115.439C94.7729 115.53 94.3624 115.542 93.9615 115.474C93.5605 115.406 93.1769 115.259 92.8325 115.043C92.4882 114.826 92.1899 114.544 91.9546 114.212Z" stroke="#B29E85" stroke-width="2.8783" stroke-linecap="round" stroke-linejoin="round"/>
<path d="M132.866 91.5282C130.822 94.0009 127.978 95.6816 124.827 96.2794C121.675 96.8773 118.414 96.3549 115.607 94.8024L98.6738 87.0449C97.9319 86.6919 97.1273 86.49 96.3067 86.4509C95.4861 86.4118 94.6659 86.5362 93.8938 86.8171C93.1218 87.0979 92.4133 87.5295 91.8096 88.0867C91.206 88.644 90.7191 89.3157 90.3775 90.0628C90.0359 90.81 89.8462 91.6176 89.8197 92.4387C89.7931 93.2598 89.9301 94.078 90.2227 94.8457C90.5153 95.6133 90.9576 96.3151 91.524 96.9102C92.0904 97.5053 92.7695 97.9819 93.5217 98.312C117.776 116.679 122.679 119.009 128.612 121.317" fill="white"/>
<path d="M132.866 91.5282C130.822 94.0009 127.978 95.6816 124.827 96.2794C121.675 96.8773 118.414 96.3549 115.607 94.8024L98.6738 87.0449C97.9319 86.6919 97.1273 86.49 96.3067 86.4509C95.4861 86.4118 94.6659 86.5362 93.8938 86.8171C93.1218 87.0979 92.4133 87.5295 91.8096 88.0867C91.206 88.644 90.7191 89.3157 90.3775 90.0628C90.0359 90.81 89.8462 91.6176 89.8197 92.4387C89.7931 93.2598 89.9301 94.078 90.2227 94.8457C90.5153 95.6133 90.9576 96.3151 91.524 96.9102C92.0904 97.5053 92.7695 97.9819 93.5217 98.312C117.776 116.679 122.679 119.009 128.612 121.317" stroke="#020064" stroke-width="2.8783" stroke-linecap="round" stroke-linejoin="round"/>
<path d="M132.866 91.5282C130.822 94.0009 127.978 95.6816 124.827 96.2794C121.675 96.8773 118.414 96.3549 115.607 94.8024L98.6738 87.0449C97.9319 86.6919 97.1273 86.49 96.3067 86.4509C95.4861 86.4118 94.6659 86.5362 93.8938 86.8171C93.1218 87.0979 92.4133 87.5295 91.8096 88.0867C91.206 88.644 90.7191 89.3157 90.3775 90.0628C90.0359 90.81 89.8462 91.6176 89.8197 92.4387C89.7931 93.2598 89.9301 94.078 90.2227 94.8457C90.5153 95.6133 90.9576 96.3151 91.524 96.9102C92.0904 97.5053 92.7695 97.9819 93.5217 98.312C117.776 116.679 122.679 119.009 128.612 121.317" fill="white"/>
<path d="M132.866 91.5282C130.822 94.0009 127.978 95.6816 124.827 96.2794C121.675 96.8773 118.414 96.3549 115.607 94.8024L98.6738 87.0449C97.9319 86.6919 97.1273 86.49 96.3067 86.4509C95.4861 86.4118 94.6659 86.5362 93.8938 86.8171C93.1218 87.0979 92.4133 87.5295 91.8096 88.0867C91.206 88.644 90.7191 89.3157 90.3775 90.0628C90.0359 90.81 89.8462 91.6176 89.8197 92.4387C89.7931 93.2598 89.9301 94.078 90.2227 94.8457C90.5153 95.6133 90.9576 96.3151 91.524 96.9102C92.0904 97.5053 92.7695 97.9819 93.5217 98.312C117.776 116.679 122.679 119.009 128.612 121.317" stroke="#B29E85" stroke-width="2.8783" stroke-linecap="round" stroke-linejoin="round"/>
</svg>
