<svg width="40" height="40" viewBox="0 0 40 40" fill="none" xmlns="http://www.w3.org/2000/svg">
<g clip-path="url(#clip0_1453_1471)">
<path d="M40 20C40 8.9543 31.0457 0 20 0C8.9543 0 0 8.9543 0 20C0 31.0457 8.9543 40 20 40C31.0457 40 40 31.0457 40 20Z" fill="#F3F4F6"/>
<path d="M15.3499 18.0819C16.2998 17.211 17.5492 16.7404 18.8375 16.7683C20.1259 16.7963 21.3538 17.3206 22.2649 18.2319C22.4471 18.4205 22.5479 18.6731 22.5456 18.9353C22.5433 19.1975 22.4382 19.4483 22.2527 19.6337C22.0673 19.8191 21.8165 19.9243 21.5543 19.9266C21.2921 19.9289 21.0395 19.8281 20.8509 19.6459C20.5723 19.3673 20.2416 19.1463 19.8776 18.9955C19.5136 18.8447 19.1234 18.7671 18.7294 18.7671C18.3354 18.7671 17.9453 18.8447 17.5813 18.9955C17.2173 19.1463 16.8865 19.3673 16.6079 19.6459L14.4869 21.7679L14.3659 21.8959C13.8508 22.4796 13.5828 23.2407 13.6185 24.0184C13.6542 24.7961 13.9908 25.5295 14.5573 26.0635C15.1237 26.5976 15.8755 26.8906 16.6539 26.8806C17.4324 26.8706 18.1764 26.5584 18.7289 26.0099L20.1429 24.5959L20.2309 24.5179C20.4311 24.3594 20.6843 24.2834 20.9387 24.3056C21.1931 24.3278 21.4293 24.4464 21.599 24.6372C21.7687 24.828 21.859 25.0765 21.8514 25.3317C21.8437 25.587 21.7387 25.8296 21.5579 26.0099L20.1429 27.4249L19.9869 27.5749C19.0238 28.461 17.7516 28.9342 16.4434 28.8928C15.1353 28.8514 13.8956 28.2988 12.9904 27.3535C12.0852 26.4082 11.5867 25.1457 11.6019 23.837C11.6172 22.5284 12.1449 21.2778 13.0719 20.3539L15.1939 18.2319L15.3499 18.0819ZM21.0069 12.4249C21.9701 11.5388 23.2423 11.0656 24.5504 11.107C25.8585 11.1484 27.0983 11.7011 28.0035 12.6463C28.9087 13.5916 29.4072 14.8541 29.3919 16.1628C29.3767 17.4715 28.8489 18.722 27.9219 19.6459L25.7999 21.7679L25.6439 21.9179C24.6941 22.7888 23.4447 23.2594 22.1563 23.2315C20.8679 23.2035 19.6401 22.6792 18.7289 21.7679C18.5468 21.5793 18.446 21.3267 18.4483 21.0645C18.4505 20.8023 18.5557 20.5515 18.7411 20.3661C18.9265 20.1807 19.1773 20.0755 19.4395 20.0732C19.7017 20.071 19.9543 20.1718 20.1429 20.3539C20.4215 20.6325 20.7522 20.8536 21.1163 21.0044C21.4803 21.1552 21.8704 21.2328 22.2644 21.2328C22.6584 21.2328 23.0486 21.1552 23.4126 21.0044C23.7766 20.8536 24.1073 20.6325 24.3859 20.3539L26.5069 18.2319L26.6279 18.1039C27.143 17.5202 27.411 16.7591 27.3753 15.9814C27.3396 15.2037 27.003 14.4704 26.4366 13.9363C25.8702 13.4022 25.1184 13.1092 24.3399 13.1192C23.5615 13.1292 22.8174 13.4414 22.2649 13.9899L20.8509 15.4039L20.7629 15.4819C20.5626 15.6387 20.31 15.7132 20.0567 15.6903C19.8033 15.6674 19.5682 15.5488 19.3992 15.3586C19.2302 15.1685 19.1401 14.9211 19.1471 14.6668C19.1541 14.4125 19.2577 14.1705 19.4369 13.9899L20.8519 12.5749L21.0069 12.4249Z" fill="#B29E85"/>
</g>
<defs>
<clipPath id="clip0_1453_1471">
<rect width="40" height="40" fill="white"/>
</clipPath>
</defs>
</svg>
