<svg width="40" height="40" viewBox="0 0 40 40" fill="none" xmlns="http://www.w3.org/2000/svg">
<g clip-path="url(#clip0_1453_1463)">
<path d="M40 20C40 8.9543 31.0457 0 20 0C8.9543 0 0 8.9543 0 20C0 31.0457 8.9543 40 20 40C31.0457 40 40 31.0457 40 20Z" fill="#F3F4F6"/>
<path d="M29 20.81V27H25.356V21.224C25.356 19.774 24.829 18.784 23.511 18.784C22.504 18.784 21.905 19.45 21.641 20.096C21.545 20.326 21.521 20.648 21.521 20.971V27H17.874C17.874 27 17.924 17.218 17.874 16.204H21.519V17.734L21.495 17.769H21.519V17.734C22.003 17 22.868 15.951 24.803 15.951C27.202 15.95 29 17.494 29 20.81ZM14.062 11C12.816 11 12 11.806 12 12.865C12 13.9 12.792 14.73 14.014 14.73H14.038C15.31 14.73 16.1 13.9 16.1 12.864C16.076 11.805 15.31 11 14.062 11ZM12.216 27H15.86V16.204H12.216V27Z" fill="#B29E85"/>
</g>
<defs>
<clipPath id="clip0_1453_1463">
<rect width="40" height="40" fill="white"/>
</clipPath>
</defs>
</svg>
