<svg width="40" height="40" viewBox="0 0 40 40" fill="none" xmlns="http://www.w3.org/2000/svg">
<g clip-path="url(#clip0_1453_1455)">
<path d="M40 20C40 8.9543 31.0457 0 20 0C8.9543 0 0 8.9543 0 20C0 31.0457 8.9543 40 20 40C31.0457 40 40 31.0457 40 20Z" fill="#F3F4F6"/>
<mask id="mask0_1453_1455" style="mask-type:luminance" maskUnits="userSpaceOnUse" x="9" y="11" width="20" height="20">
<path d="M29 11H9V31H29V11Z" fill="white"/>
</mask>
<g mask="url(#mask0_1453_1455)">
<path d="M31 13.97C30.302 14.332 29.488 14.573 28.674 14.693C29.547 14.151 30.186 13.308 30.534 12.283C29.721 12.765 28.849 13.127 27.919 13.308C26.619 11.928 24.597 11.603 22.955 12.51C21.313 13.416 20.445 15.336 20.825 17.224C17.57 17.043 14.43 15.476 12.395 12.765C11.8347 13.6981 11.6563 14.8115 11.897 15.873C12.1296 16.9258 12.7681 17.8443 13.674 18.429C13.034 18.429 12.395 18.308 11.814 18.007C11.872 19.995 13.209 21.742 15.07 22.164C14.488 22.344 13.849 22.344 13.21 22.224C13.79 23.971 15.36 25.176 17.105 25.236C15.419 26.682 13.15 27.345 11 26.984C12.7804 28.2247 14.8822 28.9228 17.0511 28.994C19.22 29.0652 21.3631 28.5063 23.221 27.385C27.036 25.095 29.264 20.757 28.965 16.199C29.779 15.597 30.477 14.874 31 13.97Z" fill="#B29E85"/>
</g>
</g>
<defs>
<clipPath id="clip0_1453_1455">
<rect width="40" height="40" fill="white"/>
</clipPath>
</defs>
</svg>
