<svg width="35" height="29" viewBox="0 0 35 29" fill="none" xmlns="http://www.w3.org/2000/svg">
<rect x="1.20286" y="0.523172" width="32.8072" height="27.9413" rx="4.70855" stroke="#B29E85" stroke-width="1.04634"/>
<path d="M14.4287 7.17528L13.7408 7.38251C13.1283 7.56722 12.5813 7.92306 12.1642 8.40814C11.7471 8.89322 11.4773 9.48736 11.3864 10.1206C11.1015 12.1046 11.7385 14.4245 13.2745 17.0849C14.8067 19.7385 16.4933 21.4482 18.3497 22.1965C18.9462 22.4369 19.5992 22.501 20.231 22.3811C20.8628 22.2612 21.4469 21.9623 21.9139 21.5201L22.4339 21.027C22.7715 20.7074 22.9817 20.2762 23.0253 19.8133C23.0688 19.3504 22.9429 18.8875 22.6708 18.5105L21.3699 16.7069C21.194 16.4634 20.9463 16.281 20.6616 16.1853C20.3769 16.0897 20.0693 16.0855 19.7821 16.1734L17.8144 16.775L17.7635 16.7846C17.5467 16.8162 17.0459 16.3471 16.4223 15.2668C15.7699 14.1366 15.6356 13.4756 15.815 13.3048L16.8157 12.3714C17.1816 12.0303 17.4315 11.5832 17.5305 11.0928C17.6294 10.6024 17.5724 10.0934 17.3673 9.63708L16.7322 8.22582C16.5412 7.80113 16.2023 7.46039 15.7787 7.26711C15.355 7.07382 14.8756 7.04118 14.4296 7.17528H14.4287ZM15.8582 8.61917L16.4914 10.0304C16.6147 10.3041 16.6492 10.6095 16.59 10.9038C16.5308 11.198 16.3809 11.4663 16.1613 11.671L15.1578 12.6054C14.516 13.2137 14.729 14.2518 15.5924 15.7465C16.4041 17.153 17.1447 17.8476 17.941 17.7267L18.06 17.7017L20.0632 17.0906C20.159 17.0612 20.2615 17.0625 20.3565 17.0943C20.4515 17.1262 20.5341 17.1869 20.5928 17.2681L21.8937 19.0718C22.03 19.2602 22.0931 19.4918 22.0714 19.7233C22.0497 19.9548 21.9446 20.1706 21.7757 20.3305L21.2548 20.8236C20.9212 21.1393 20.5041 21.3526 20.0529 21.4381C19.6017 21.5236 19.1354 21.4779 18.7095 21.3062C17.0804 20.65 15.5406 19.089 14.1063 16.6052C12.6682 14.1155 12.0858 11.9982 12.3362 10.2569C12.4011 9.80443 12.5938 9.37995 12.8918 9.03338C13.1897 8.68681 13.5805 8.43259 14.0181 8.30065L14.7059 8.09342C14.929 8.0264 15.1687 8.04279 15.3806 8.13953C15.5924 8.23626 15.7618 8.40674 15.8572 8.61917H15.8582Z" fill="#B29E85"/>
</svg>
