<svg width="48" height="48" viewBox="0 0 48 48" fill="none" xmlns="http://www.w3.org/2000/svg">
<path d="M37.9999 0L35.1106 10.2533L29.3333 13.2706L35.1106 16.2866L37.9999 25.3333L40.8892 16.2853L46.6665 13.2693L40.8892 10.2546L37.9999 0ZM18.6666 7.99998L17.3333 13.3333L13.3333 14.6666L17.3333 16L18.6666 21.3333L19.9999 16L23.9999 14.6666L19.9999 13.3333L18.6666 7.99998ZM0 31.9999C0 31.6463 0.140476 31.3072 0.390524 31.0571C0.640571 30.8071 0.979709 30.6666 1.33333 30.6666H5.33332C5.68694 30.6666 6.02608 30.8071 6.27613 31.0571C6.52617 31.3072 6.66665 31.6463 6.66665 31.9999V46.6612C6.66665 47.0148 6.52617 47.354 6.27613 47.604C6.02608 47.8541 5.68694 47.9945 5.33332 47.9945H1.33333C0.979709 47.9945 0.640571 47.8541 0.390524 47.604C0.140476 47.354 0 47.0148 0 46.6612V32.0012V31.9999ZM15.6066 30.9186C16.8493 30.3519 19.8866 30.9186 19.8866 30.9186L28.7213 32.8999C28.7213 32.8999 30.9306 33.6079 33.0012 33.6079C35.0719 33.6079 33.8332 36.4426 32.4479 37.4319C31.0639 38.4212 30.0559 38.3679 30.0559 38.3679L22.9226 38.2812C22.9226 38.2812 29.1359 39.4146 31.4826 39.5559C32.6706 39.6279 34.7092 38.7906 36.9892 37.8559C39.2092 36.9439 41.6559 35.9399 43.7679 35.5906C48.0479 34.8839 48.7385 38.7066 47.3572 40.1226C45.9772 41.5386 34.9332 46.9185 33.0012 47.6265C31.4866 48.1812 29.6559 47.9972 27.5906 47.7892C27.0186 47.7319 26.4279 47.6719 25.8226 47.6265C23.4093 47.4439 21.5666 46.8572 19.7426 46.2772C17.7853 45.6559 15.8506 45.0412 13.26 44.9359C12.3906 44.9012 10.356 45.0092 9.33331 45.0692V33.2532C11.1013 32.6239 14.6813 31.3386 15.6066 30.9173V30.9186Z" fill="#B29E85"/>
</svg>
