<svg width="19" height="23" viewBox="0 0 19 23" fill="none" xmlns="http://www.w3.org/2000/svg">
<path d="M17.3048 20.6933H1.15818C0.852296 20.6933 0.558942 20.8148 0.34265 21.0311C0.126359 21.2474 0.00484739 21.5408 0.00484739 21.8467C0.00484739 22.1526 0.126359 22.4459 0.34265 22.6622C0.558942 22.8785 0.852296 23 1.15818 23H17.3048C17.6107 23 17.904 22.8785 18.1203 22.6622C18.3366 22.4459 18.4581 22.1526 18.4581 21.8467C18.4581 21.5408 18.3366 21.2474 18.1203 21.0311C17.904 20.8148 17.6107 20.6933 17.3048 20.6933ZM1.15818 18.3867H1.26198L6.07137 17.9484C6.5982 17.8959 7.09095 17.6638 7.4669 17.291L17.8469 6.91104C18.2498 6.48542 18.4675 5.91745 18.4523 5.33159C18.4372 4.74573 18.1905 4.18976 17.7661 3.78551L14.606 0.625383C14.1936 0.237974 13.6531 0.0156848 13.0875 0.000798979C12.5218 -0.0140868 11.9704 0.17947 11.5382 0.54465L1.15818 10.9246C0.785382 11.3006 0.553261 11.7933 0.500779 12.3202L0.00484739 17.1295C-0.0106892 17.2985 0.0112303 17.4687 0.0690432 17.6282C0.126856 17.7877 0.219139 17.9325 0.339313 18.0522C0.447081 18.1591 0.574888 18.2437 0.715407 18.3011C0.855926 18.3585 1.00639 18.3876 1.15818 18.3867ZM13.0029 2.24005L16.1515 5.38864L13.8448 7.63763L10.7539 4.54671L13.0029 2.24005ZM2.73824 12.5162L9.23149 6.0691L12.3455 9.1831L5.88683 15.6417L2.42684 15.9647L2.73824 12.5162Z" fill="#C0C0C0"/>
</svg>
