<svg width="68" height="68" viewBox="0 0 68 68" fill="none" xmlns="http://www.w3.org/2000/svg">
<path d="M33.6807 0L65.713 23.2728L53.4778 60.929H13.8837L1.64845 23.2728L33.6807 0Z" fill="#B29E85"/>
<path fill-rule="evenodd" clip-rule="evenodd" d="M42.7959 19.5276C42.909 19.5976 43.0025 19.6954 43.0673 19.8116C43.1321 19.9278 43.1661 20.0587 43.1662 20.1917V43.6294C43.1662 43.8366 43.0839 44.0353 42.9374 44.1818C42.7908 44.3283 42.5921 44.4106 42.3849 44.4106H37.6974C37.4902 44.4106 37.2915 44.3283 37.145 44.1818C36.9985 44.0353 36.9161 43.8366 36.9161 43.6294V41.2856H35.3536V43.6294C35.3536 43.8366 35.2713 44.0353 35.1248 44.1818C34.9783 44.3283 34.7796 44.4106 34.5724 44.4106H20.5098C20.3026 44.4106 20.1039 44.3283 19.9573 44.1818C19.8108 44.0353 19.7285 43.8366 19.7285 43.6294V35.0356C19.7286 34.8717 19.7803 34.712 19.8762 34.579C19.9721 34.4461 20.1074 34.3467 20.2629 34.2949L29.1036 31.348V26.4418C29.1036 26.2968 29.1439 26.1547 29.2201 26.0313C29.2963 25.908 29.4052 25.8083 29.5348 25.7433L42.0349 19.4933C42.1542 19.4336 42.2867 19.4054 42.4199 19.4114C42.5531 19.4175 42.6825 19.4575 42.7959 19.5276V19.5276ZM29.1036 32.9949L21.291 35.5981V42.8481H29.1036V32.9949ZM30.6661 42.8481H33.7911V40.5044C33.7911 40.2972 33.8734 40.0984 34.0199 39.9519C34.1665 39.8054 34.3652 39.7231 34.5724 39.7231H37.6974C37.9046 39.7231 38.1033 39.8054 38.2498 39.9519C38.3963 40.0984 38.4787 40.2972 38.4787 40.5044V42.8481H41.6037V21.4558L30.6661 26.9246V42.8481Z" fill="white"/>
<path d="M22.8535 36.5982H24.416V38.1607H22.8535V36.5982ZM25.9785 36.5982H27.541V38.1607H25.9785V36.5982ZM22.8535 39.7233H24.416V41.2858H22.8535V39.7233ZM25.9785 39.7233H27.541V41.2858H25.9785V39.7233ZM32.2286 33.4732H33.7911V35.0357H32.2286V33.4732ZM35.3536 33.4732H36.9161V35.0357H35.3536V33.4732ZM32.2286 36.5982H33.7911V38.1607H32.2286V36.5982ZM35.3536 36.5982H36.9161V38.1607H35.3536V36.5982ZM38.4786 33.4732H40.0411V35.0357H38.4786V33.4732ZM38.4786 36.5982H40.0411V38.1607H38.4786V36.5982ZM32.2286 30.3482H33.7911V31.9107H32.2286V30.3482ZM35.3536 30.3482H36.9161V31.9107H35.3536V30.3482ZM38.4786 30.3482H40.0411V31.9107H38.4786V30.3482ZM32.2286 27.2232H33.7911V28.7857H32.2286V27.2232ZM35.3536 27.2232H36.9161V28.7857H35.3536V27.2232ZM38.4786 27.2232H40.0411V28.7857H38.4786V27.2232ZM38.4786 24.0981H40.0411V25.6607H38.4786V24.0981Z" fill="white"/>
</svg>
