<svg width="21" height="20" viewBox="0 0 21 20" fill="none" xmlns="http://www.w3.org/2000/svg">
<path d="M18.312 4.19329H14.8465V3.30501C14.8465 2.57825 14.5951 1.96588 14.0923 1.4679C13.5894 0.969933 12.9711 0.720947 12.2372 0.720947H8.73096C7.99709 0.720947 7.37874 0.969933 6.87591 1.4679C6.37307 1.96588 6.12166 2.57825 6.12166 3.30501V4.19329H2.65618C1.92231 4.19329 1.30396 4.43554 0.801126 4.92006C0.298292 5.40457 0.046875 6.02367 0.046875 6.77736V10.2093C0.046875 10.7746 0.332267 11.0572 0.903052 11.0572V17.9615C0.903052 18.4191 1.07972 18.8229 1.43307 19.1728C1.78641 19.5227 2.19411 19.6977 2.65618 19.6977H18.312C18.7741 19.6977 19.1818 19.5227 19.5351 19.1728C19.8884 18.8229 20.0651 18.4191 20.0651 17.9615V11.0572C20.6359 11.0572 20.9213 10.7746 20.9213 10.2093V6.77736C20.9213 6.02367 20.6699 5.40457 20.167 4.92006C19.6642 4.43554 19.0459 4.19329 18.312 4.19329ZM7.87478 3.30501C7.87478 3.06276 7.95632 2.86088 8.1194 2.69937C8.28249 2.53787 8.48634 2.45712 8.73096 2.45712H12.2372C12.4818 2.45712 12.6857 2.53787 12.8488 2.69937C13.0118 2.86088 13.0934 3.06276 13.0934 3.30501V4.19329H7.87478V3.30501ZM2.65618 17.9615V11.0572H7.87478V13.6413C7.87478 14.1258 8.04466 14.5363 8.38441 14.8728C8.72416 15.2092 9.13866 15.3775 9.62791 15.3775H11.3403C11.8295 15.3775 12.244 15.2092 12.5838 14.8728C12.9235 14.5363 13.0934 14.1258 13.0934 13.6413V11.0572H18.312V17.9615H2.65618ZM9.62791 13.6413V11.0572H11.3403V13.6413H9.62791ZM19.1682 9.36142H1.8V6.77736C1.8 6.18517 2.08539 5.88908 2.65618 5.88908H18.312C18.8828 5.88908 19.1682 6.18517 19.1682 6.77736V9.36142Z" fill="#252525"/>
</svg>
