<svg width="29" height="25" viewBox="0 0 29 25" fill="none" xmlns="http://www.w3.org/2000/svg">
<rect x="0.437684" y="0.437684" width="27.4464" height="23.3756" rx="3.93916" stroke="#C0C0C0" stroke-width="0.875369"/>
<path d="M20.1237 11.6826C20.4373 12.0928 20.4373 12.6465 20.1237 13.056C19.136 14.3453 16.7664 17 13.9999 17C11.2333 17 8.86368 14.3453 7.876 13.056C7.72344 12.8596 7.64062 12.618 7.64062 12.3693C7.64062 12.1206 7.72344 11.879 7.876 11.6826C8.86368 10.3933 11.2333 7.73853 13.9999 7.73853C16.7664 7.73853 19.136 10.3933 20.1237 11.6826V11.6826Z" stroke="#C0C0C0" stroke-width="1.32307" stroke-linecap="round" stroke-linejoin="round"/>
<path d="M13.9983 14.3539C15.0944 14.3539 15.9829 13.4653 15.9829 12.3693C15.9829 11.2732 15.0944 10.3846 13.9983 10.3846C12.9022 10.3846 12.0137 11.2732 12.0137 12.3693C12.0137 13.4653 12.9022 14.3539 13.9983 14.3539Z" stroke="#C0C0C0" stroke-width="1.32307" stroke-linecap="round" stroke-linejoin="round"/>
</svg>
