<svg width="18" height="19" viewBox="0 0 18 19" fill="none" xmlns="http://www.w3.org/2000/svg">
<path d="M0.999865 0H17C17.2652 0 17.5196 0.105358 17.7071 0.292895C17.8946 0.480433 18 0.734789 18 1.00001V3.59003C18 4.11303 17.787 4.62704 17.417 4.99704L12 10.4141V18.0001C11.9998 18.1705 11.9561 18.338 11.8731 18.4868C11.79 18.6356 11.6704 18.7607 11.5255 18.8503C11.3806 18.9399 11.2152 18.9911 11.045 18.9989C10.8748 19.0068 10.7055 18.9711 10.5529 18.8951L6.55291 16.8951C6.21391 16.7251 5.9999 16.3791 5.9999 16.0001V10.4141L0.582861 4.99704C0.212858 4.62704 -0.000143051 4.11303 -0.000143051 3.59003V1.00001C-0.000143051 0.734789 0.105213 0.480433 0.292751 0.292895C0.480289 0.105358 0.734646 0 0.999865 0ZM7.70692 9.29307C7.79996 9.38578 7.87375 9.49597 7.92404 9.61731C7.97432 9.73865 8.00011 9.86873 7.99992 10.0001V15.3821L9.99994 16.3821V10.0001C9.99975 9.86873 10.0255 9.73865 10.0758 9.61731C10.1261 9.49597 10.1999 9.38578 10.2929 9.29307L16 3.59003V2.00002H1.99887L1.99687 3.58303L7.70692 9.29307Z" fill="#252525"/>
</svg>
