<svg width="12" height="13" viewBox="0 0 12 13" fill="none" xmlns="http://www.w3.org/2000/svg">
<rect x="0.688477" y="0.909058" width="2.25974" height="2.25974" fill="#C0C0C0"/>
<rect x="0.688477" y="3.92212" width="2.25974" height="2.25974" fill="#C0C0C0"/>
<rect x="0.688477" y="6.93506" width="2.25974" height="2.25974" fill="#C0C0C0"/>
<rect x="0.688477" y="9.948" width="2.25974" height="2.25974" fill="#C0C0C0"/>
<rect x="3.70215" y="0.909058" width="2.25974" height="2.25974" fill="#C0C0C0"/>
<rect x="3.70215" y="3.92212" width="2.25974" height="2.25974" fill="#C0C0C0"/>
<rect x="3.70215" y="6.93506" width="2.25974" height="2.25974" fill="#C0C0C0"/>
<rect x="3.70215" y="9.948" width="2.25974" height="2.25974" fill="#C0C0C0"/>
<rect x="6.71387" y="0.909058" width="2.25974" height="2.25974" fill="#C0C0C0"/>
<rect x="6.71387" y="3.92212" width="2.25974" height="2.25974" fill="#C0C0C0"/>
<rect x="6.71387" y="6.93506" width="2.25974" height="2.25974" fill="#C0C0C0"/>
<rect x="6.71387" y="9.948" width="2.25974" height="2.25974" fill="#C0C0C0"/>
<rect x="9.72754" y="0.909058" width="2.25974" height="2.25974" fill="#C0C0C0"/>
<rect x="9.72754" y="3.92212" width="2.25974" height="2.25974" fill="#C0C0C0"/>
<rect x="9.72754" y="6.93506" width="2.25974" height="2.25974" fill="#C0C0C0"/>
<rect x="9.72754" y="9.948" width="2.25974" height="2.25974" fill="#C0C0C0"/>
</svg>
