<svg width="42" height="43" viewBox="0 0 42 43" fill="none" xmlns="http://www.w3.org/2000/svg">
<path d="M26.4479 0.11499L23.2166 3.60786L26.3836 10.2365L26.5121 10.5303L26.4295 10.8332C25.9981 12.3019 25.8236 14.0369 26.0072 15.5975C26.1541 16.7908 26.5029 17.8648 27.0629 18.6543L41.7504 2.75966C40.915 2.25937 39.8227 1.99774 38.6201 1.94817C37.0504 1.88575 35.3338 2.20062 33.9018 2.74405L33.608 2.85329L26.4479 0.11499ZM22.3904 5.72011L5.00961 14.4775C5.57691 14.7346 6.0818 15.1109 6.49397 15.5699L23.0973 7.20722L22.3904 5.72011ZM38.5559 8.64843L32.69 15.01C34.4434 16.1115 36.7934 15.8361 38.2529 14.2572C39.7125 12.6875 39.7951 10.3191 38.5559 8.64843ZM23.8133 8.70351L7.3541 16.9928C7.5377 17.4793 7.63867 18.0117 7.63867 18.5625V18.7002L24.5201 10.1906L23.8133 8.70351ZM3.14063 15.7168C1.55896 15.7168 0.294922 16.9836 0.294922 18.5625C0.294922 20.1414 1.55896 21.4082 3.14063 21.4082C4.72229 21.4082 5.98633 20.1414 5.98633 18.5625C5.98633 16.9836 4.72229 15.7168 3.14063 15.7168ZM7.31738 20.224C7.09615 20.7748 6.7666 21.2797 6.35443 21.7019L16.1941 35.3613H18.2229L7.31738 20.224ZM5.00043 22.6566C4.46617 22.8953 3.87592 23.0422 3.25629 23.0605L12.1184 35.3613H14.1563L5.00043 22.6566ZM26.7324 33.709V35.3613H28.3848V33.709H26.7324ZM10.1447 37.0137L5.59436 42.7051H37.4084L32.8553 37.0137H10.1447Z" fill="#B29E85"/>
</svg>
