<svg width="19" height="24" viewBox="0 0 19 24" fill="none" xmlns="http://www.w3.org/2000/svg">
<path d="M9.94407 13.0279C11.6472 13.0279 13.0278 11.6473 13.0278 9.94419C13.0278 8.2411 11.6472 6.86047 9.94407 6.86047C8.24098 6.86047 6.86035 8.2411 6.86035 9.94419C6.86035 11.6473 8.24098 13.0279 9.94407 13.0279Z" stroke="#BFBFBF" stroke-width="1.5814" stroke-linecap="round" stroke-linejoin="round"/>
<path d="M9.94396 1.72095C7.76302 1.72095 5.6714 2.58732 4.12924 4.12948C2.58708 5.67164 1.7207 7.76326 1.7207 9.9442C1.7207 11.889 2.13392 13.1616 3.26256 14.5698L9.94396 22.2791L16.6254 14.5698C17.754 13.1616 18.1672 11.889 18.1672 9.9442C18.1672 7.76326 17.3008 5.67164 15.7587 4.12948C14.2165 2.58732 12.1249 1.72095 9.94396 1.72095V1.72095Z" stroke="#BFBFBF" stroke-width="1.5814" stroke-linecap="round" stroke-linejoin="round"/>
</svg>
