<svg width="35" height="29" viewBox="0 0 35 29" fill="none" xmlns="http://www.w3.org/2000/svg">
<rect x="0.991922" y="0.523172" width="32.8072" height="27.9413" rx="4.70855" stroke="#B29E85" stroke-width="1.04634"/>
<path d="M10.2227 12.6842V18.9177C10.2227 19.584 10.4874 20.2231 10.9585 20.6943C11.4297 21.1654 12.0688 21.4302 12.7352 21.4302H22.7851C23.4515 21.4302 24.0906 21.1654 24.5617 20.6943C25.0329 20.2231 25.2976 19.584 25.2976 18.9177V11.3802C25.2976 10.7138 25.0329 10.0748 24.5617 9.60357C24.0906 9.13238 23.4515 8.86768 22.7851 8.86768H12.7352C12.0688 8.86768 11.4297 9.13238 10.9585 9.60357C10.4874 10.0748 10.2227 10.7138 10.2227 11.3802V12.6842ZM12.7352 10.1239H22.7851C23.1183 10.1239 23.4378 10.2563 23.6734 10.4919C23.909 10.7275 24.0414 11.047 24.0414 11.3802V12.3098L17.7601 15.6916L11.4789 12.3098V11.3802C11.4789 11.047 11.6113 10.7275 11.8469 10.4919C12.0824 10.2563 12.402 10.1239 12.7352 10.1239ZM11.4789 13.7369L17.4624 16.9579C17.5539 17.0072 17.6562 17.033 17.7601 17.033C17.8641 17.033 17.9664 17.0072 18.0579 16.9579L24.0414 13.7369V18.9177C24.0414 19.2508 23.909 19.5704 23.6734 19.806C23.4378 20.0415 23.1183 20.1739 22.7851 20.1739H12.7352C12.402 20.1739 12.0824 20.0415 11.8469 19.806C11.6113 19.5704 11.4789 19.2508 11.4789 18.9177V13.7369Z" fill="#B29E85"/>
</svg>
