<svg width="254" height="218" viewBox="0 0 254 218" fill="none" xmlns="http://www.w3.org/2000/svg">
<path d="M61.6057 49.4939L26.8906 127.794" stroke="#B29E85" stroke-width="2.8" stroke-linecap="round" stroke-linejoin="round"/>
<path d="M93.4522 179.489L26.8906 127.794" stroke="#B29E85" stroke-width="2.8" stroke-linecap="round" stroke-linejoin="round"/>
<path d="M197.311 102.07L162.812 162.605" stroke="#00AED9" stroke-width="2.8" stroke-linecap="round" stroke-linejoin="round"/>
<path d="M61.6094 49.494L151.9 30.2703" stroke="#B29E85" stroke-width="2.8" stroke-linecap="round" stroke-linejoin="round"/>
<path d="M197.312 102.07L151.898 30.2703" stroke="#B29E85" stroke-width="2.8" stroke-linecap="round" stroke-linejoin="round"/>
<path d="M197.31 102.07L123.43 118.592L26.8906 127.794" stroke="#B29E85" stroke-width="2.8" stroke-linecap="round" stroke-linejoin="round"/>
<path d="M61.6094 49.4939L93.4558 179.489" stroke="#B29E85" stroke-width="2.8" stroke-linecap="round" stroke-linejoin="round"/>
<path d="M151.9 30.2703L123.434 118.592" stroke="#B29E85" stroke-width="2.8" stroke-linecap="round" stroke-linejoin="round"/>
<path d="M61.6094 49.4939L162.815 162.605" stroke="#B29E85" stroke-width="2.8" stroke-linecap="round" stroke-linejoin="round"/>
<path d="M162.817 162.605L93.457 179.489" stroke="#B29E85" stroke-width="2.8" stroke-linecap="round" stroke-linejoin="round"/>
<path d="M26.8906 127.794L151.897 30.2703" stroke="#B29E85" stroke-width="2.8" stroke-linecap="round" stroke-linejoin="round"/>
<path d="M2 123.13C2 126.775 2.71801 130.385 4.11302 133.753C5.50804 137.121 7.55275 140.181 10.1304 142.759C12.7081 145.336 15.7682 147.381 19.1361 148.776C22.5039 150.171 26.1136 150.889 29.7589 150.889C33.4043 150.889 37.014 150.171 40.3818 148.776C43.7497 147.381 46.8098 145.336 49.3875 142.759C51.9651 140.181 54.0099 137.121 55.4049 133.753C56.7999 130.385 57.5179 126.775 57.5179 123.13C57.5179 119.485 56.7999 115.875 55.4049 112.507C54.0099 109.139 51.9651 106.079 49.3875 103.501C46.8098 100.924 43.7497 98.8791 40.3818 97.4841C37.014 96.089 33.4043 95.371 29.7589 95.371C26.1136 95.371 22.5039 96.089 19.1361 97.4841C15.7682 98.8791 12.7081 100.924 10.1304 103.501C7.55275 106.079 5.50804 109.139 4.11302 112.507C2.71801 115.875 2 119.485 2 123.13Z" fill="white" stroke="#B29E85" stroke-width="2.8" stroke-linecap="round" stroke-linejoin="round"/>
<path d="M44.5808 130.199C44.5754 129.596 44.3615 129.014 43.9754 128.551C43.5893 128.087 43.0548 127.772 42.4627 127.658V125.963C42.4864 124.279 42.1751 122.606 41.5469 121.043C40.9187 119.48 39.9861 118.058 38.8033 116.858C37.6206 115.659 36.2112 114.706 34.6571 114.056C33.103 113.406 31.4352 113.071 29.7506 113.071C28.066 113.071 26.3982 113.406 24.8441 114.056C23.29 114.706 21.8806 115.659 20.6978 116.858C19.515 118.058 18.5824 119.48 17.9542 121.043C17.326 122.606 17.0147 124.279 17.0384 125.963V127.658C16.4208 127.774 15.8662 128.11 15.4776 128.603C15.089 129.097 14.8928 129.715 14.9254 130.343C14.958 130.97 15.2172 131.564 15.655 132.015C16.0927 132.466 16.6791 132.742 17.3054 132.793C17.9022 135.653 19.4652 138.219 21.7317 140.061C23.9982 141.903 26.8298 142.909 29.7506 142.909C32.6713 142.909 35.503 141.903 37.7695 140.061C40.0359 138.219 41.599 135.653 42.1958 132.793C42.8447 132.735 43.4487 132.437 43.8897 131.957C44.3307 131.478 44.5771 130.851 44.5808 130.199Z" fill="white" stroke="#B29E85" stroke-width="2.8" stroke-linecap="round" stroke-linejoin="round"/>
<path d="M21.2891 131.789C21.2891 132.21 21.4565 132.614 21.7545 132.912C22.0525 133.21 22.4568 133.378 22.8782 133.378C23.2997 133.378 23.7039 133.21 24.002 132.912C24.3 132.614 24.4674 132.21 24.4674 131.789C24.4674 131.367 24.3 130.963 24.002 130.665C23.7039 130.367 23.2997 130.199 22.8782 130.199C22.4568 130.199 22.0525 130.367 21.7545 130.665C21.4565 130.963 21.2891 131.367 21.2891 131.789Z" fill="#EDE9E3"/>
<path d="M35.0547 131.789C35.0547 131.997 35.0958 132.204 35.1757 132.397C35.2555 132.59 35.3726 132.765 35.5201 132.912C35.6677 133.06 35.8429 133.177 36.0357 133.257C36.2285 133.337 36.4352 133.378 36.6439 133.378C36.8526 133.378 37.0592 133.337 37.252 133.257C37.4448 133.177 37.62 133.06 37.7676 132.912C37.9151 132.765 38.0322 132.59 38.1121 132.397C38.1919 132.204 38.233 131.997 38.233 131.789C38.233 131.58 38.1919 131.373 38.1121 131.18C38.0322 130.988 37.9151 130.812 37.7676 130.665C37.62 130.517 37.4448 130.4 37.252 130.32C37.0592 130.241 36.8526 130.199 36.6439 130.199C36.4352 130.199 36.2285 130.241 36.0357 130.32C35.8429 130.4 35.6677 130.517 35.5201 130.665C35.3726 130.812 35.2555 130.988 35.1757 131.18C35.0958 131.373 35.0547 131.58 35.0547 131.789Z" fill="#EDE9E3"/>
<path d="M26.582 135.592C27.5225 136.22 28.6281 136.555 29.7591 136.555C30.8901 136.555 31.9957 136.22 32.9362 135.592" stroke="#B29E85" stroke-width="2.8" stroke-linecap="round" stroke-linejoin="round"/>
<path d="M43.5294 122.785C43.554 120.961 43.2161 119.15 42.5352 117.458C41.8542 115.766 40.8439 114.226 39.5628 112.927C38.2817 111.629 36.7553 110.597 35.0724 109.894C33.3895 109.19 31.5836 108.828 29.7595 108.828C27.9353 108.828 26.1294 109.19 24.4465 109.894C22.7636 110.597 21.2372 111.629 19.9561 112.927C18.675 114.226 17.6647 115.766 16.9838 117.458C16.3028 119.15 15.9649 120.961 15.9895 122.785V125.963C15.9895 126.244 16.101 126.513 16.2994 126.711C16.4977 126.91 16.7668 127.021 17.0473 127.021H19.1679C19.4484 127.021 19.7175 126.91 19.9158 126.711C20.1142 126.513 20.2257 126.244 20.2257 125.963C20.2267 124.702 20.4811 123.454 20.9739 122.292C21.4667 121.131 22.1877 120.081 23.0942 119.204C23.3258 118.976 23.6067 118.805 23.9151 118.704C24.2234 118.603 24.551 118.574 24.8723 118.619C26.209 118.786 27.4508 119.397 28.3982 120.355C29.65 121.645 31.3006 122.476 33.083 122.712C34.8655 122.949 36.6755 122.577 38.2204 121.657C38.752 122.689 39.0933 123.808 39.2278 124.961C39.2581 125.237 39.3887 125.492 39.5949 125.678C39.8011 125.863 40.0685 125.967 40.346 125.968H42.4641C42.7448 125.968 43.0139 125.856 43.2122 125.657C43.4105 125.458 43.5218 125.189 43.5218 124.908L43.5294 122.785Z" fill="white" stroke="#020064" stroke-width="2.8" stroke-linecap="round" stroke-linejoin="round"/>
<path d="M43.5294 122.785C43.554 120.961 43.2161 119.15 42.5352 117.458C41.8542 115.766 40.8439 114.226 39.5628 112.927C38.2817 111.629 36.7553 110.597 35.0724 109.894C33.3895 109.19 31.5836 108.828 29.7595 108.828C27.9353 108.828 26.1294 109.19 24.4465 109.894C22.7636 110.597 21.2372 111.629 19.9561 112.927C18.675 114.226 17.6647 115.766 16.9838 117.458C16.3028 119.15 15.9649 120.961 15.9895 122.785V125.963C15.9895 126.244 16.101 126.513 16.2994 126.711C16.4977 126.91 16.7668 127.021 17.0473 127.021H19.1679C19.4484 127.021 19.7175 126.91 19.9158 126.711C20.1142 126.513 20.2257 126.244 20.2257 125.963C20.2267 124.702 20.4811 123.454 20.9739 122.292C21.4667 121.131 22.1877 120.081 23.0942 119.204C23.3258 118.976 23.6067 118.805 23.9151 118.704C24.2234 118.603 24.551 118.574 24.8723 118.619C26.209 118.786 27.4508 119.397 28.3982 120.355C29.65 121.645 31.3006 122.476 33.083 122.712C34.8655 122.949 36.6755 122.577 38.2204 121.657C38.752 122.689 39.0933 123.808 39.2278 124.961C39.2581 125.237 39.3887 125.492 39.5949 125.678C39.8011 125.863 40.0685 125.967 40.346 125.968H42.4641C42.7448 125.968 43.0139 125.856 43.2122 125.657C43.4105 125.458 43.5218 125.189 43.5218 124.908L43.5294 122.785Z" stroke="#B29E85" stroke-width="2.8" stroke-linecap="round" stroke-linejoin="round"/>
<path d="M38.2224 121.657C38.3343 121.59 38.4243 121.492 38.4809 121.375C38.5376 121.258 38.5585 121.127 38.541 120.998C38.5236 120.869 38.4685 120.748 38.3827 120.65C38.297 120.552 38.1843 120.482 38.0587 120.448C36.3962 119.979 34.9573 118.929 34.0039 117.489" fill="#FFDF3D"/>
<path d="M38.2224 121.657C38.3343 121.59 38.4243 121.492 38.4809 121.375C38.5376 121.258 38.5585 121.127 38.541 120.998C38.5236 120.869 38.4685 120.748 38.3827 120.65C38.297 120.552 38.1843 120.482 38.0587 120.448C36.3962 119.979 34.9573 118.929 34.0039 117.489" stroke="#B29E85" stroke-width="2.8" stroke-linecap="round" stroke-linejoin="round"/>
<path d="M23.4063 127.55C23.4062 127.759 23.4474 127.965 23.5272 128.158C23.6071 128.351 23.7241 128.526 23.8717 128.674C24.0193 128.821 24.1945 128.938 24.3873 129.018C24.5801 129.098 24.7867 129.139 24.9954 129.139C25.2041 129.139 25.4108 129.098 25.6036 129.018C25.7964 128.938 25.9716 128.821 26.1191 128.674C26.2667 128.526 26.3838 128.351 26.4636 128.158C26.5435 127.965 26.5846 127.759 26.5846 127.55C26.5846 127.341 26.5435 127.135 26.4636 126.942C26.3838 126.749 26.2667 126.574 26.1191 126.426C25.9716 126.279 25.7964 126.162 25.6036 126.082C25.4108 126.002 25.2041 125.961 24.9954 125.961C24.7867 125.961 24.5801 126.002 24.3873 126.082C24.1945 126.162 24.0193 126.279 23.8717 126.426C23.7241 126.574 23.6071 126.749 23.5272 126.942C23.4474 127.135 23.4062 127.341 23.4063 127.55Z" fill="#B29E85"/>
<path d="M32.9375 127.55C32.9375 127.971 33.1049 128.376 33.403 128.674C33.701 128.972 34.1052 129.139 34.5267 129.139C34.9482 129.139 35.3524 128.972 35.6504 128.674C35.9484 128.376 36.1159 127.971 36.1159 127.55C36.1159 127.128 35.9484 126.724 35.6504 126.426C35.3524 126.128 34.9482 125.961 34.5267 125.961C34.1052 125.961 33.701 126.128 33.403 126.426C33.1049 126.724 32.9375 127.128 32.9375 127.55Z" fill="#B29E85"/>
<path d="M29.7613 109.014C31.5653 109.011 33.3521 109.363 35.0197 110.051C36.6873 110.739 38.203 111.749 39.4802 113.023C40.0434 112.14 40.3463 111.116 40.3541 110.069C40.3541 105.974 35.6118 102.652 29.7613 102.652C23.9108 102.652 19.1836 105.974 19.1836 110.069C19.1876 111.115 19.4861 112.139 20.0449 113.023C21.3217 111.749 22.837 110.74 24.5042 110.052C26.1714 109.364 27.9578 109.011 29.7613 109.014Z" fill="white" stroke="#B29E85" stroke-width="2.8" stroke-linecap="round" stroke-linejoin="round"/>
<path d="M122.754 29.7589C122.754 37.1211 125.679 44.1817 130.884 49.3875C136.09 54.5933 143.151 57.5179 150.513 57.5179C157.875 57.5179 164.936 54.5933 170.141 49.3875C175.347 44.1817 178.272 37.1211 178.272 29.7589C178.272 22.3968 175.347 15.3362 170.141 10.1304C164.936 4.92459 157.875 2 150.513 2C143.151 2 136.09 4.92459 130.884 10.1304C125.679 15.3362 122.754 22.3968 122.754 29.7589Z" fill="white" stroke="#B29E85" stroke-width="2.8" stroke-linecap="round" stroke-linejoin="round"/>
<path d="M168.513 36.9643C168.507 36.2808 168.264 35.6207 167.826 35.0959C167.388 34.5712 166.782 34.2142 166.111 34.0857V32.1641C166.111 28.3441 164.593 24.6805 161.892 21.9794C159.191 19.2782 155.527 17.7607 151.707 17.7607C147.887 17.7607 144.224 19.2782 141.523 21.9794C138.822 24.6805 137.304 28.3441 137.304 32.1641V34.0857C136.603 34.2151 135.972 34.5952 135.531 35.155C135.089 35.7148 134.865 36.4161 134.902 37.1284C134.939 37.8406 135.234 38.5151 135.732 39.0261C136.229 39.5371 136.895 39.8498 137.606 39.9059C138.281 43.1475 140.052 46.0577 142.62 48.1468C145.189 50.2359 148.399 51.3765 151.71 51.3765C155.021 51.3765 158.231 50.2359 160.8 48.1468C163.368 46.0577 165.139 43.1475 165.814 39.9059C166.548 39.8384 167.232 39.4998 167.731 38.9561C168.23 38.4123 168.509 37.7024 168.513 36.9643Z" fill="white" stroke="#020064" stroke-width="2.8" stroke-linecap="round" stroke-linejoin="round"/>
<path d="M168.513 36.9643C168.507 36.2808 168.264 35.6207 167.826 35.0959C167.388 34.5712 166.782 34.2142 166.111 34.0857V32.1641C166.111 28.3441 164.593 24.6805 161.892 21.9794C159.191 19.2782 155.527 17.7607 151.707 17.7607C147.887 17.7607 144.224 19.2782 141.523 21.9794C138.822 24.6805 137.304 28.3441 137.304 32.1641V34.0857C136.603 34.2151 135.972 34.5952 135.531 35.155C135.089 35.7148 134.865 36.4161 134.902 37.1284C134.939 37.8406 135.234 38.5151 135.732 39.0261C136.229 39.5371 136.895 39.8498 137.606 39.9059C138.281 43.1475 140.052 46.0577 142.62 48.1468C145.189 50.2359 148.399 51.3765 151.71 51.3765C155.021 51.3765 158.231 50.2359 160.8 48.1468C163.368 46.0577 165.139 43.1475 165.814 39.9059C166.548 39.8384 167.232 39.4998 167.731 38.9561C168.23 38.4123 168.509 37.7024 168.513 36.9643V36.9643Z" stroke="#B29E85" stroke-width="2.8" stroke-linecap="round" stroke-linejoin="round"/>
<path d="M144.508 33.9598C144.508 34.4374 144.698 34.8954 145.035 35.2331C145.373 35.5708 145.831 35.7605 146.309 35.7605C146.786 35.7605 147.244 35.5708 147.582 35.2331C147.92 34.8954 148.109 34.4374 148.109 33.9598C148.109 33.4822 147.92 33.0242 147.582 32.6865C147.244 32.3488 146.786 32.1591 146.309 32.1591C145.831 32.1591 145.373 32.3488 145.035 32.6865C144.698 33.0242 144.508 33.4822 144.508 33.9598Z" fill="#B29E85"/>
<path d="M155.312 33.9598C155.313 34.4374 155.502 34.8954 155.84 35.2331C156.178 35.5708 156.636 35.7605 157.113 35.7605C157.591 35.7605 158.049 35.5708 158.387 35.2331C158.724 34.8954 158.914 34.4374 158.914 33.9598C158.914 33.4822 158.724 33.0242 158.387 32.6865C158.049 32.3488 157.591 32.1591 157.113 32.1591C156.636 32.1591 156.178 32.3488 155.84 32.6865C155.502 33.0242 155.312 33.4822 155.312 33.9598Z" fill="#B29E85"/>
<path d="M142.109 38.7601C142.109 39.2377 142.299 39.6957 142.637 40.0334C142.975 40.3711 143.433 40.5608 143.91 40.5608C144.388 40.5608 144.846 40.3711 145.183 40.0334C145.521 39.6957 145.711 39.2377 145.711 38.7601C145.711 38.2825 145.521 37.8245 145.183 37.4868C144.846 37.1491 144.388 36.9594 143.91 36.9594C143.433 36.9594 142.975 37.1491 142.637 37.4868C142.299 37.8245 142.109 38.2825 142.109 38.7601Z" fill="#EDE9E3"/>
<path d="M157.711 38.7601C157.711 39.2377 157.901 39.6957 158.238 40.0334C158.576 40.3711 159.034 40.5608 159.512 40.5608C159.989 40.5608 160.447 40.3711 160.785 40.0334C161.123 39.6957 161.312 39.2377 161.312 38.7601C161.312 38.2825 161.123 37.8245 160.785 37.4868C160.447 37.1491 159.989 36.9594 159.512 36.9594C159.034 36.9594 158.576 37.1491 158.238 37.4868C157.901 37.8245 157.711 38.2825 157.711 38.7601Z" fill="#EDE9E3"/>
<path d="M148.109 43.0718C149.176 43.7826 150.428 44.1619 151.71 44.1619C152.991 44.1619 154.244 43.7826 155.31 43.0718" stroke="#B29E85" stroke-width="2.8" stroke-linecap="round" stroke-linejoin="round"/>
<path d="M136.109 21.3496V32.1515C136.109 32.4696 136.236 32.7748 136.46 33C136.685 33.2253 136.99 33.3521 137.308 33.3528H138.522L143.307 21.3496H136.109Z" fill="white" stroke="#B29E85" stroke-width="2.8" stroke-linecap="round" stroke-linejoin="round"/>
<path d="M167.315 22.556C167.314 20.0095 166.302 17.5676 164.501 15.7672C162.7 13.9668 160.258 12.9554 157.712 12.9554H146.91C146.451 12.9555 146.002 12.8241 145.616 12.5768C145.23 12.3295 144.923 11.9767 144.731 11.5602C144.605 11.281 144.407 11.0406 144.157 10.8635C143.906 10.6865 143.614 10.5792 143.308 10.5528H141.268C139.43 10.5172 137.643 11.1631 136.253 12.366C134.862 13.5689 133.965 15.2438 133.736 17.0682C133.556 18.9516 134.125 20.83 135.319 22.2974C136.513 23.7649 138.237 24.7036 140.117 24.9108C140.457 26.185 141.171 27.328 142.168 28.1918C143.164 29.0557 144.397 29.6007 145.706 29.7564H148.109C148.204 29.7555 148.295 29.7238 148.371 29.6659C148.446 29.6081 148.5 29.5273 148.525 29.4359C148.55 29.3445 148.545 29.2473 148.509 29.1593C148.474 29.0712 148.411 28.997 148.33 28.9479C147.24 28.2967 146.445 27.246 146.117 26.0189C146.079 25.8955 146.071 25.765 146.093 25.638C146.116 25.5109 146.167 25.3908 146.244 25.2873C146.321 25.1837 146.421 25.0996 146.536 25.0417C146.651 24.9837 146.778 24.9536 146.907 24.9536H156.714C157.03 24.9536 157.342 25.0158 157.634 25.1369C157.925 25.2579 158.189 25.4352 158.412 25.6588L164.912 32.1565H166.111C166.269 32.1568 166.425 32.126 166.571 32.0657C166.717 32.0055 166.85 31.917 166.961 31.8054C167.073 31.6938 167.161 31.5612 167.222 31.4153C167.282 31.2694 167.313 31.113 167.312 30.9552L167.315 22.556Z" fill="white"/>
<path d="M167.315 22.556C167.314 20.0095 166.302 17.5676 164.501 15.7672C162.7 13.9668 160.258 12.9554 157.712 12.9554H146.91C146.451 12.9555 146.002 12.8241 145.616 12.5768C145.23 12.3295 144.923 11.9767 144.731 11.5602C144.605 11.281 144.407 11.0406 144.157 10.8635C143.906 10.6865 143.614 10.5792 143.308 10.5528H141.268C139.43 10.5172 137.643 11.1631 136.253 12.366C134.862 13.5689 133.965 15.2438 133.736 17.0682C133.556 18.9516 134.125 20.83 135.319 22.2974C136.513 23.7649 138.237 24.7036 140.117 24.9108C140.457 26.185 141.171 27.328 142.168 28.1918C143.164 29.0557 144.397 29.6007 145.706 29.7564H148.109C148.204 29.7555 148.295 29.7238 148.371 29.6659C148.446 29.6081 148.5 29.5273 148.525 29.4359C148.55 29.3445 148.545 29.2473 148.509 29.1593C148.474 29.0712 148.411 28.997 148.33 28.9479C147.24 28.2967 146.445 27.246 146.117 26.0189C146.079 25.8955 146.071 25.765 146.093 25.638C146.116 25.5109 146.167 25.3908 146.244 25.2873C146.321 25.1837 146.421 25.0996 146.536 25.0417C146.651 24.9837 146.778 24.9536 146.907 24.9536H156.714C157.03 24.9536 157.342 25.0158 157.634 25.1369C157.925 25.2579 158.189 25.4352 158.412 25.6588L164.912 32.1565H166.111C166.269 32.1568 166.425 32.126 166.571 32.0657C166.717 32.0055 166.85 31.917 166.961 31.8054C167.073 31.6938 167.161 31.5612 167.222 31.4153C167.282 31.2694 167.313 31.113 167.312 30.9552L167.315 22.556Z" stroke="#B29E85" stroke-width="2.8" stroke-linecap="round" stroke-linejoin="round"/>
<path d="M187.359 161.073L197.437 150.996L215.073 168.632L204.995 178.709L187.359 161.073Z" fill="white" stroke="#B29E85" stroke-width="2.8" stroke-linecap="round" stroke-linejoin="round"/>
<path d="M249.334 212.504L248.853 212.985C246.906 214.916 244.275 216 241.533 216C238.791 216 236.16 214.916 234.213 212.985L202.392 181.151C201.748 180.502 201.387 179.625 201.387 178.711C201.387 177.797 201.748 176.919 202.392 176.27L212.632 166.03C213.281 165.387 214.157 165.025 215.071 165.025C215.985 165.025 216.862 165.387 217.51 166.03L249.334 197.851C250.3 198.811 251.067 199.953 251.591 201.21C252.114 202.467 252.383 203.816 252.383 205.178C252.383 206.54 252.114 207.888 251.591 209.146C251.067 210.403 250.3 211.544 249.334 212.504Z" fill="#EDE9E3"/>
<path d="M249.334 212.504L248.853 212.985C246.906 214.916 244.275 216 241.533 216C238.791 216 236.16 214.916 234.213 212.985L202.392 181.151C201.748 180.502 201.387 179.625 201.387 178.711C201.387 177.797 201.748 176.919 202.392 176.27L212.632 166.03C213.281 165.387 214.157 165.025 215.071 165.025C215.985 165.025 216.862 165.387 217.51 166.03L249.334 197.851C250.3 198.811 251.067 199.953 251.591 201.21C252.114 202.467 252.383 203.816 252.383 205.178C252.383 206.54 252.114 207.888 251.591 209.146C251.067 210.403 250.3 211.544 249.334 212.504Z" stroke="#B29E85" stroke-width="2.8" stroke-linecap="round" stroke-linejoin="round"/>
<path d="M111.538 151.177C118.937 163.268 130.836 171.924 144.618 175.242C158.399 178.56 172.934 176.267 185.025 168.868C197.116 161.469 205.773 149.57 209.091 135.789C212.408 122.007 210.116 107.472 202.717 95.3814C195.318 83.2904 183.419 74.6338 169.637 71.316C155.856 67.9982 141.321 70.291 129.23 77.6899C117.139 85.0888 108.482 96.9878 105.164 110.769C101.847 124.551 104.139 139.086 111.538 151.177Z" fill="white" stroke="#B29E85" stroke-width="2.8" stroke-linecap="round" stroke-linejoin="round"/>
<path d="M187.362 93.0465C193.342 99.0262 197.414 106.645 199.063 114.939C200.713 123.233 199.866 131.829 196.629 139.642C193.393 147.454 187.913 154.132 180.882 158.83C173.851 163.528 165.584 166.035 157.128 166.035C148.671 166.035 140.405 163.528 133.374 158.83C126.343 154.132 120.862 147.454 117.626 139.642C114.39 131.829 113.543 123.233 115.192 114.939C116.842 106.645 120.914 99.0262 126.893 93.0465C130.863 89.0758 135.577 85.9261 140.765 83.7772C145.952 81.6283 151.513 80.5222 157.128 80.5222C162.743 80.5222 168.303 81.6283 173.491 83.7772C178.678 85.9261 183.392 89.0758 187.362 93.0465Z" fill="#EDE9E3"/>
<path d="M156.097 143.774C151.183 143.802 146.36 145.099 142.096 147.54C137.832 149.98 134.27 153.482 131.758 157.704C138.86 162.933 147.403 165.84 156.22 166.027C165.037 166.215 173.697 163.674 181.015 158.752C178.593 154.245 174.999 150.474 170.614 147.838C166.229 145.202 161.213 143.798 156.097 143.774Z" fill="white"/>
<path d="M156.097 143.774C151.183 143.802 146.36 145.099 142.096 147.54C137.832 149.98 134.27 153.482 131.758 157.704C138.86 162.933 147.403 165.84 156.22 166.027C165.037 166.215 173.697 163.674 181.015 158.752C178.593 154.245 174.999 150.474 170.614 147.838C166.229 145.202 161.213 143.798 156.097 143.774V143.774Z" stroke="#B29E85" stroke-width="2.8" stroke-linejoin="round"/>
<path d="M164.547 145.147C164.094 145.002 163.636 144.873 163.174 144.759C162.641 144.624 162.168 144.315 161.83 143.881C161.492 143.446 161.31 142.911 161.311 142.361V133.854H151.294V142.266C151.294 142.819 151.108 143.356 150.766 143.791C150.424 144.226 149.946 144.533 149.408 144.663C148.829 144.804 148.252 144.96 147.683 145.139L147.625 145.215C147.773 147.364 148.732 149.377 150.306 150.847C151.881 152.317 153.955 153.135 156.11 153.135C158.264 153.135 160.338 152.317 161.913 150.847C163.488 149.377 164.446 147.364 164.595 145.215L164.547 145.147Z" fill="white" stroke="#B29E85" stroke-width="2.8" stroke-linecap="round" stroke-linejoin="round"/>
<path d="M178.646 112.771C178.646 118.783 176.257 124.548 172.007 128.799C167.756 133.05 161.991 135.438 155.979 135.438C149.967 135.438 144.202 133.05 139.951 128.799C135.701 124.548 133.312 118.783 133.312 112.771C133.312 100.239 139.71 90.407 146.217 88.5383C146.759 88.3825 147.334 88.3753 147.879 88.5175C148.425 88.6598 148.923 88.9462 149.32 89.3468C156.367 96.4338 178.646 87.6014 178.646 112.771Z" fill="white"/>
<path d="M178.646 112.771C178.646 118.783 176.257 124.548 172.007 128.799C167.756 133.05 161.991 135.438 155.979 135.438C149.967 135.438 144.202 133.05 139.951 128.799C135.701 124.548 133.312 118.783 133.312 112.771C133.312 100.239 139.71 90.407 146.217 88.5383C146.759 88.3825 147.334 88.3753 147.879 88.5175C148.425 88.6598 148.923 88.9462 149.32 89.3468C156.367 96.4338 178.646 87.6014 178.646 112.771Z" stroke="#B29E85" stroke-width="2.8" stroke-linecap="round" stroke-linejoin="round"/>
<path d="M174.892 118.438L171.087 120.327L168.341 110.721C168.085 109.799 167.485 109.009 166.665 108.515C165.845 108.02 164.867 107.858 163.932 108.062C158.702 109.308 153.252 109.308 148.022 108.062C147.087 107.859 146.109 108.021 145.289 108.516C144.469 109.01 143.869 109.799 143.612 110.721L140.867 120.327L137.12 118.438C131.727 118.438 132.083 127.882 138.061 127.882H138.079C139.262 131.713 141.642 135.063 144.868 137.443C148.094 139.823 151.997 141.106 156.006 141.106C160.015 141.106 163.918 139.823 167.144 137.443C170.37 135.063 172.749 131.713 173.933 127.882C179.919 127.882 180.282 118.438 174.892 118.438Z" fill="white" stroke="#B29E85" stroke-width="2.8" stroke-linecap="round" stroke-linejoin="round"/>
<path d="M147.891 118.911C147.891 119.503 148.126 120.071 148.544 120.489C148.963 120.908 149.53 121.143 150.122 121.143C150.714 121.143 151.281 120.908 151.7 120.489C152.118 120.071 152.353 119.503 152.353 118.911C152.353 118.32 152.118 117.752 151.7 117.334C151.281 116.915 150.714 116.68 150.122 116.68C149.53 116.68 148.963 116.915 148.544 117.334C148.126 117.752 147.891 118.32 147.891 118.911Z" fill="#B29E85"/>
<path d="M159.688 118.911C159.688 119.503 159.923 120.071 160.341 120.489C160.76 120.908 161.327 121.143 161.919 121.143C162.511 121.143 163.078 120.908 163.497 120.489C163.915 120.071 164.15 119.503 164.15 118.911C164.15 118.32 163.915 117.752 163.497 117.334C163.078 116.915 162.511 116.68 161.919 116.68C161.327 116.68 160.76 116.915 160.341 117.334C159.923 117.752 159.688 118.32 159.688 118.911Z" fill="#B29E85"/>
<path d="M146.579 124.105C146.579 124.478 146.468 124.844 146.26 125.154C146.052 125.465 145.757 125.707 145.412 125.85C145.067 125.993 144.687 126.03 144.32 125.957C143.954 125.884 143.617 125.704 143.353 125.439C143.089 125.175 142.909 124.838 142.837 124.472C142.764 124.105 142.802 123.725 142.945 123.38C143.089 123.035 143.331 122.74 143.642 122.533C143.953 122.326 144.318 122.215 144.692 122.216C144.94 122.216 145.186 122.265 145.415 122.36C145.644 122.455 145.852 122.594 146.027 122.769C146.202 122.945 146.341 123.153 146.436 123.382C146.53 123.611 146.579 123.857 146.579 124.105Z" fill="#EDE9E3"/>
<path d="M169.247 124.105C169.247 124.478 169.136 124.843 168.928 125.154C168.721 125.465 168.426 125.707 168.08 125.85C167.735 125.993 167.356 126.03 166.989 125.957C166.623 125.884 166.286 125.704 166.022 125.44C165.758 125.176 165.578 124.84 165.505 124.473C165.432 124.107 165.47 123.727 165.613 123.382C165.755 123.037 165.998 122.742 166.308 122.534C166.619 122.327 166.984 122.216 167.358 122.216C167.859 122.216 168.339 122.415 168.693 122.769C169.048 123.123 169.247 123.604 169.247 124.105Z" fill="#EDE9E3"/>
<path d="M151.309 130.232C152.707 131.163 154.349 131.66 156.03 131.66C157.71 131.66 159.352 131.163 160.75 130.232" stroke="#B29E85" stroke-width="2.8" stroke-linecap="round" stroke-linejoin="round"/>
<path d="M187.362 93.0465C193.342 99.0262 197.414 106.645 199.063 114.939C200.713 123.233 199.866 131.829 196.629 139.642C193.393 147.454 187.913 154.132 180.882 158.83C173.851 163.528 165.584 166.035 157.128 166.035C148.671 166.035 140.405 163.528 133.374 158.83C126.343 154.132 120.862 147.454 117.626 139.642C114.39 131.829 113.543 123.233 115.192 114.939C116.842 106.645 120.914 99.0262 126.893 93.0465C130.863 89.0758 135.577 85.9261 140.765 83.7772C145.952 81.6283 151.513 80.5222 157.128 80.5222C162.743 80.5222 168.303 81.6283 173.491 83.7772C178.678 85.9261 183.392 89.0758 187.362 93.0465V93.0465Z" stroke="#B29E85" stroke-width="2.8" stroke-linecap="round" stroke-linejoin="round"/>
<path d="M74.9805 175.328C74.9805 180.012 76.841 184.504 80.1529 187.816C83.4647 191.128 87.9566 192.988 92.6402 192.988C97.3239 192.988 101.816 191.128 105.128 187.816C108.439 184.504 110.3 180.012 110.3 175.328C110.3 170.645 108.439 166.153 105.128 162.841C101.816 159.529 97.3239 157.669 92.6402 157.669C87.9566 157.669 83.4647 159.529 80.1529 162.841C76.841 166.153 74.9805 170.645 74.9805 175.328Z" fill="white" stroke="#B29E85" stroke-width="2.8" stroke-linecap="round" stroke-linejoin="round"/>
<path d="M86.9609 174.918C86.9609 176.425 87.5595 177.87 88.6251 178.936C89.6906 180.001 91.1358 180.6 92.6427 180.6C94.1496 180.6 95.5947 180.001 96.6603 178.936C97.7258 177.87 98.3244 176.425 98.3244 174.918V172.077C98.3244 170.57 97.7258 169.125 96.6603 168.059C95.5947 166.994 94.1496 166.395 92.6427 166.395C91.1358 166.395 89.6906 166.994 88.6251 168.059C87.5595 169.125 86.9609 170.57 86.9609 172.077V174.918Z" fill="white" stroke="#B29E85" stroke-width="2.8" stroke-linecap="round" stroke-linejoin="round"/>
<path d="M104.447 188.46C101.206 191.372 97.0027 192.983 92.6455 192.983C88.2882 192.983 84.0848 191.372 80.8438 188.46C81.8135 186.132 83.4501 184.144 85.5476 182.744C87.645 181.344 90.1096 180.596 92.6312 180.594C95.1528 180.592 97.6186 181.336 99.7185 182.732C101.818 184.128 103.458 186.114 104.432 188.44" fill="#EDE9E3"/>
<path d="M104.447 188.46C101.206 191.372 97.0027 192.983 92.6455 192.983C88.2882 192.983 84.0848 191.372 80.8438 188.46C81.8135 186.132 83.4501 184.144 85.5476 182.744C87.645 181.344 90.1096 180.596 92.6312 180.594C95.1528 180.592 97.6186 181.336 99.7185 182.732C101.818 184.128 103.458 186.114 104.432 188.44" stroke="#B29E85" stroke-width="2.8" stroke-linecap="round" stroke-linejoin="round"/>
<path d="M87.0078 171.344C87.157 170.198 87.6519 169.125 88.4265 168.268C89.2012 167.411 90.2188 166.81 91.3436 166.546C92.4684 166.282 93.647 166.367 94.7222 166.79C95.7973 167.213 96.718 167.954 97.3614 168.914C96.0169 170.218 94.3439 171.132 92.5206 171.56C90.6973 171.988 88.792 171.914 87.0078 171.344Z" fill="#EDE9E3" stroke="#B29E85" stroke-width="2.8" stroke-linecap="round" stroke-linejoin="round"/>
<path d="M44.6406 47.93C44.6406 52.6137 46.5012 57.1055 49.813 60.4173C53.1249 63.7292 57.6167 65.5898 62.3004 65.5898C66.984 65.5898 71.4759 63.7292 74.7877 60.4173C78.0995 57.1055 79.9601 52.6137 79.9601 47.93C79.9601 43.2464 78.0995 38.7545 74.7877 35.4427C71.4759 32.1308 66.984 30.2703 62.3004 30.2703C57.6167 30.2703 53.1249 32.1308 49.813 35.4427C46.5012 38.7545 44.6406 43.2464 44.6406 47.93Z" fill="white" stroke="#B29E85" stroke-width="2.8" stroke-linecap="round" stroke-linejoin="round"/>
<path d="M56.6172 47.5195C56.6485 49.006 57.261 50.4211 58.3233 51.4613C59.3857 52.5016 60.8134 53.0841 62.3002 53.0841C63.787 53.0841 65.2147 52.5016 66.277 51.4613C67.3394 50.4211 67.9519 49.006 67.9832 47.5195V44.6786C67.9519 43.1921 67.3394 41.777 66.277 40.7368C65.2147 39.6966 63.787 39.114 62.3002 39.114C60.8134 39.114 59.3857 39.6966 58.3233 40.7368C57.261 41.777 56.6485 43.1921 56.6172 44.6786V47.5195Z" fill="white" stroke="#B29E85" stroke-width="2.8" stroke-linecap="round" stroke-linejoin="round"/>
<path d="M74.1073 61.0639C70.8655 63.9747 66.6624 65.5847 62.3056 65.5847C57.9488 65.5847 53.7457 63.9747 50.5039 61.0639C51.4737 58.7363 53.1103 56.7475 55.2077 55.3479C57.3052 53.9482 59.7698 53.2003 62.2913 53.1981C64.8129 53.196 67.2788 53.9397 69.3786 55.3358C71.4785 56.7318 73.1185 58.7178 74.0922 61.0438" fill="#EDE9E3"/>
<path d="M74.1073 61.0639C70.8655 63.9747 66.6624 65.5847 62.3056 65.5847C57.9488 65.5847 53.7457 63.9747 50.5039 61.0639C51.4737 58.7363 53.1103 56.7475 55.2077 55.3479C57.3052 53.9482 59.7698 53.2003 62.2913 53.1981C64.8129 53.196 67.2788 53.9397 69.3786 55.3358C71.4785 56.7318 73.1185 58.7178 74.0922 61.0438" stroke="#B29E85" stroke-width="2.8" stroke-linecap="round" stroke-linejoin="round"/>
<path d="M56.668 43.9457C56.8163 42.7994 57.3108 41.7256 58.0855 40.8678C58.8603 40.01 59.8783 39.409 61.0037 39.1451C62.1291 38.8812 63.3081 38.967 64.3835 39.391C65.4588 39.815 66.3791 40.557 67.0215 41.5179C65.6767 42.8211 64.0035 43.7351 62.1803 44.1627C60.357 44.5902 58.452 44.5152 56.668 43.9457Z" fill="#EDE9E3" stroke="#B29E85" stroke-width="2.8" stroke-linecap="round" stroke-linejoin="round"/>
</svg>
