<svg width="27" height="27" viewBox="0 0 27 27" fill="none" xmlns="http://www.w3.org/2000/svg">
<path fill-rule="evenodd" clip-rule="evenodd" d="M13.2 0C5.91 0 0 5.91 0 13.2C0 20.49 5.91 26.4 13.2 26.4C20.49 26.4 26.4 20.49 26.4 13.2C26.4 5.91 20.49 0 13.2 0ZM14.4 18C14.4 18.3183 14.2736 18.6235 14.0485 18.8485C13.8235 19.0736 13.5183 19.2 13.2 19.2C12.8817 19.2 12.5765 19.0736 12.3515 18.8485C12.1264 18.6235 12 18.3183 12 18V14.4H8.4C8.08174 14.4 7.77652 14.2736 7.55147 14.0485C7.32643 13.8235 7.2 13.5183 7.2 13.2C7.2 12.8817 7.32643 12.5765 7.55147 12.3515C7.77652 12.1264 8.08174 12 8.4 12H12V8.4C12 8.08174 12.1264 7.77652 12.3515 7.55147C12.5765 7.32643 12.8817 7.2 13.2 7.2C13.5183 7.2 13.8235 7.32643 14.0485 7.55147C14.2736 7.77652 14.4 8.08174 14.4 8.4V12H18C18.3183 12 18.6235 12.1264 18.8485 12.3515C19.0736 12.5765 19.2 12.8817 19.2 13.2C19.2 13.5183 19.0736 13.8235 18.8485 14.0485C18.6235 14.2736 18.3183 14.4 18 14.4H14.4V18Z" fill="#1DC580"/>
</svg>
