<svg width="34" height="29" viewBox="0 0 34 29" fill="none" xmlns="http://www.w3.org/2000/svg">
<rect x="0.523172" y="0.523172" width="32.8072" height="27.9413" rx="4.70855" stroke="#B29E85" stroke-width="1.04634"/>
<path d="M12.5029 16.5375C12.3255 16.5597 12.1482 16.5833 11.9708 16.6084M12.5029 16.5375C15.0939 16.2124 17.7154 16.2124 20.3064 16.5375M12.5029 16.5375L12.2221 19.6197M20.3064 16.5375C20.4837 16.5597 20.6611 16.5833 20.8384 16.6084M20.3064 16.5375L20.5872 19.6197M20.5872 19.6197L20.7564 21.4841C20.7669 21.5992 20.7533 21.7151 20.7164 21.8246C20.6796 21.9341 20.6204 22.0347 20.5425 22.12C20.4646 22.2053 20.3698 22.2734 20.2642 22.3201C20.1585 22.3667 20.0443 22.3908 19.9288 22.3909H12.8805C12.3913 22.3909 12.0085 21.9711 12.0528 21.4841L12.2221 19.6197M20.5857 19.6197H21.3919C21.6103 19.6198 21.8266 19.5769 22.0284 19.4934C22.2302 19.4099 22.4136 19.2874 22.5681 19.133C22.7226 18.9786 22.8451 18.7953 22.9287 18.5935C23.0123 18.3917 23.0554 18.1754 23.0554 17.957V13.306C23.0554 12.5071 22.4878 11.8169 21.6979 11.6987C21.2279 11.6284 20.7566 11.5676 20.2842 11.5162M12.2221 19.6197H11.4166C10.9756 19.6197 10.5527 19.4445 10.2409 19.1327C9.92908 18.8209 9.75391 18.398 9.75391 17.957V13.306C9.75391 12.5071 10.3214 11.8169 11.1114 11.6987C11.5813 11.6284 12.0527 11.5676 12.525 11.5162M20.2842 11.5162C17.7054 11.2356 15.1038 11.2356 12.525 11.5162M20.2842 11.5162V8.8123C20.2842 8.3534 19.9118 7.98096 19.4529 7.98096H13.3564C12.8975 7.98096 12.525 8.3534 12.525 8.8123V11.5162M20.8384 14.0775H20.8444V14.0834H20.8384V14.0775ZM18.6215 14.0775H18.6274V14.0834H18.6215V14.0775Z" stroke="#B29E85" stroke-width="1.10845" stroke-linecap="round" stroke-linejoin="round"/>
</svg>
