<svg
            xmlns="http://www.w3.org/2000/svg"
            width="25"
            height="25"
            viewBox="0 0 25 25"
            fill="none"
          >
            <path
              d="M12.4508 24.5C6.46154 24.5 0 20.7433 0 12.5C0 4.25671 6.46154 0.5 12.4508 0.5C15.7782 0.5 18.8479 1.59481 21.1234 3.59123C23.5921 5.78086 24.9016 8.87209 24.9016 12.5C24.9016 16.1279 23.5921 19.1977 21.1234 21.3873C18.8479 23.3837 15.7567 24.5 12.4508 24.5Z"
              fill="url(#paint0_radial_4555_919)"
            />
            <path
              d="M22.7315 5.36646C23.8757 7.21261 24.4725 9.41082 24.4725 11.8559C24.4725 15.4838 23.163 18.5536 20.6943 20.7432C18.4188 22.7396 15.3276 23.8559 12.0217 23.8559C8.14478 23.8559 4.07895 22.2781 1.67896 18.9314C3.98879 22.7224 8.33369 24.4999 12.451 24.4999C15.7569 24.4999 18.8482 23.3836 21.1237 21.3872C23.5924 19.1976 24.9018 16.1278 24.9018 12.4999C24.9018 9.76502 24.1569 7.33497 22.7315 5.36646Z"
              fill="#EB8F00"
            />
            <path
              d="M8.2436 7.78589C7.34413 7.78589 6.52625 8.54582 6.52625 9.80807C6.52625 11.0703 7.34413 11.8281 8.2436 11.8281C9.14521 11.8281 9.96095 11.0682 9.96095 9.80807C9.96095 8.54796 9.15379 7.78589 8.2436 7.78589Z"
              fill="#422B0D"
            />
            <path
              d="M8.16807 8.6295C7.86324 8.48352 7.49616 8.61232 7.34804 8.91715C7.23426 9.15543 7.28578 9.44094 7.47684 9.62556C7.78167 9.77153 8.14875 9.64273 8.29687 9.3379C8.41065 9.09962 8.35913 8.81411 8.16807 8.6295Z"
              fill="#896024"
            />
            <path
              d="M16.4869 7.78589C15.5874 7.78589 14.7695 8.54582 14.7695 9.80807C14.7695 11.0703 15.5874 11.8281 16.4869 11.8281C17.3863 11.8281 18.2042 11.0682 18.2042 9.80807C18.2042 8.54796 17.3863 7.78589 16.4869 7.78589Z"
              fill="#422B0D"
            />
            <path
              d="M16.4004 8.6295C16.0955 8.48352 15.7285 8.61232 15.5803 8.91715C15.4666 9.15543 15.5181 9.44094 15.7091 9.62556C16.014 9.77153 16.3811 9.64273 16.5292 9.3379C16.6429 9.09962 16.5914 8.81411 16.4004 8.6295Z"
              fill="#896024"
            />
            <path
              d="M12.5753 15.7822C14.5224 15.7651 16.3857 16.5851 17.6888 18.032C17.7875 18.1458 17.8111 18.3068 17.7489 18.4441C17.6866 18.5837 17.5492 18.6738 17.3968 18.676C17.3281 18.676 17.2594 18.6567 17.1993 18.6223C16.1646 18.0277 14.4344 17.2892 12.5796 17.2892H12.5496C10.697 17.2892 8.9646 18.0277 7.93205 18.6223C7.87194 18.6567 7.80325 18.676 7.73455 18.676C7.58214 18.6738 7.44689 18.5837 7.38464 18.4441C7.32024 18.3068 7.34385 18.1458 7.44475 18.032C8.74779 16.5851 10.609 15.7651 12.556 15.7822"
              fill="#422B0D"
            />
            <defs>
              <radialGradient
                id="paint0_radial_4555_919"
                cx="0"
                cy="0"
                r="1"
                gradientUnits="userSpaceOnUse"
                gradientTransform="translate(12.4508 12.5) scale(12.2275)"
              >
                <stop offset="0.5" stop-color="#FDE030" />
                <stop offset="0.92" stop-color="#F7C02B" />
                <stop offset="1" stop-color="#F4A223" />
              </radialGradient>
            </defs>
          </svg>