<svg width="24" height="24" viewBox="0 0 24 24" fill="none" xmlns="http://www.w3.org/2000/svg">
<path d="M6 8C6 5.172 6 3.757 6.879 2.879C7.757 2 9.172 2 12 2C14.828 2 16.243 2 17.121 2.879C18 3.757 18 5.172 18 8V16C18 18.828 18 20.243 17.121 21.121C16.243 22 14.828 22 12 22C9.172 22 7.757 22 6.879 21.121C6 20.243 6 18.828 6 16V8Z" fill="#B29E85" stroke="#B29E85" stroke-width="1.5"/>
<g opacity="0.5">
<path d="M18 19.5C19.4 19.5 20.1 19.5 20.635 19.227C21.1051 18.9874 21.4874 18.6051 21.727 18.135C22 17.6 22 16.9 22 15.5V8.5C22 7.1 22 6.4 21.727 5.865C21.4875 5.39451 21.1053 5.01189 20.635 4.772C20.1 4.5 19.4 4.5 18 4.5M6 19.5C4.6 19.5 3.9 19.5 3.365 19.227C2.89451 18.9875 2.5119 18.6053 2.272 18.135C2 17.6 2 16.9 2 15.5V8.5C2 7.1 2 6.4 2.272 5.865C2.51173 5.39435 2.89435 5.01173 3.365 4.772C3.9 4.5 4.6 4.5 6 4.5" fill="#B29E85"/>
<path d="M18 19.5C19.4 19.5 20.1 19.5 20.635 19.227C21.1051 18.9874 21.4874 18.6051 21.727 18.135C22 17.6 22 16.9 22 15.5V8.5C22 7.1 22 6.4 21.727 5.865C21.4875 5.39451 21.1053 5.01189 20.635 4.772C20.1 4.5 19.4 4.5 18 4.5M6 19.5C4.6 19.5 3.9 19.5 3.365 19.227C2.89451 18.9875 2.5119 18.6053 2.272 18.135C2 17.6 2 16.9 2 15.5V8.5C2 7.1 2 6.4 2.272 5.865C2.51173 5.39435 2.89435 5.01172 3.365 4.772C3.9 4.5 4.6 4.5 6 4.5" stroke="#B29E85" stroke-width="1.5"/>
</g>
</svg>
