<svg width="21" height="22" viewBox="0 0 21 22" fill="none" xmlns="http://www.w3.org/2000/svg">
<path d="M3.8857 8.74189L11.7142 9.79645L12.6732 17.393L18.4662 2.90968L3.8857 8.74189ZM0.726719 9.89673C0.554933 9.87403 0.39552 9.79502 0.273425 9.67206C0.15133 9.5491 0.0734424 9.38913 0.0519497 9.21719C0.0304569 9.04525 0.0665719 8.87103 0.154643 8.7218C0.242714 8.57257 0.377773 8.45675 0.538685 8.39246L19.5819 0.777054C19.7243 0.720063 19.8802 0.706111 20.0305 0.736929C20.1807 0.767747 20.3186 0.841979 20.427 0.950423C20.5355 1.05887 20.6097 1.19675 20.6405 1.34699C20.6714 1.49722 20.6574 1.6532 20.6004 1.79558L13.0022 20.7871C12.9377 20.948 12.8216 21.0831 12.6722 21.171C12.5227 21.2589 12.3483 21.2947 12.1762 21.2728C12.0042 21.251 11.8443 21.1727 11.7215 21.0502C11.5988 20.9277 11.5202 20.7679 11.498 20.5959L10.3102 11.1879L0.726719 9.89673Z" fill="#BFBFBF"/>
</svg>
