<svg xmlns="http://www.w3.org/2000/svg" width="80" height="81" viewBox="0 0 80 81" fill="none">
  <g clip-path="url(#clip0_4555_1086)">
    <path d="M27.7002 15.9121H13.7122C12.4176 15.9121 11.3684 16.9613 11.3684 18.2559C11.3684 19.5504 12.4176 20.5996 13.7122 20.5996H27.7002C28.9941 20.5996 30.0439 19.5504 30.0439 18.2559C30.0439 16.9613 28.9941 15.9121 27.7002 15.9121Z" fill="#B29E85"/>
    <path d="M27.7002 25.2876H13.7122C12.4176 25.2876 11.3684 26.3368 11.3684 27.6313C11.3684 28.9259 12.4176 29.9751 13.7122 29.9751H27.7002C28.9941 29.9751 30.0439 28.9259 30.0439 27.6313C30.0439 26.3368 28.9941 25.2876 27.7002 25.2876Z" fill="#B29E85"/>
    <path d="M27.7002 34.6631H13.7122C12.4176 34.6631 11.3684 35.7123 11.3684 37.0068C11.3684 38.3014 12.4176 39.3506 13.7122 39.3506H27.7002C28.9941 39.3506 30.0439 38.3014 30.0439 37.0068C30.0439 35.7123 28.9941 34.6631 27.7002 34.6631Z" fill="#B29E85"/>
    <path d="M27.7002 44.0391H13.7122C12.4176 44.0391 11.3684 45.0883 11.3684 46.3828C11.3684 47.6774 12.4176 48.7266 13.7122 48.7266H27.7002C28.9941 48.7266 30.0439 47.6774 30.0439 46.3828C30.0439 45.0883 28.9941 44.0391 27.7002 44.0391Z" fill="#B29E85"/>
    <path d="M27.7002 53.5713H13.7122C12.4176 53.5713 11.3684 54.6211 11.3684 55.915C11.3684 57.2096 12.4176 58.2588 13.7122 58.2588H27.7002C28.9941 58.2588 30.0439 57.2096 30.0439 55.915C30.0439 54.6211 28.9941 53.5713 27.7002 53.5713Z" fill="#B29E85"/>
    <path d="M35.5713 20.5996H49.5593C50.8539 20.5996 51.9031 19.5504 51.9031 18.2559C51.9031 16.9613 50.8539 15.9121 49.5593 15.9121H35.5713C34.2773 15.9121 33.2275 16.9613 33.2275 18.2559C33.2275 19.5504 34.2773 20.5996 35.5713 20.5996Z" fill="#B29E85"/>
    <path d="M35.5713 29.9751H49.5593C50.8539 29.9751 51.9031 28.9259 51.9031 27.6313C51.9031 26.3368 50.8539 25.2876 49.5593 25.2876H35.5713C34.2773 25.2876 33.2275 26.3368 33.2275 27.6313C33.2275 28.9259 34.2773 29.9751 35.5713 29.9751Z" fill="#B29E85"/>
    <path d="M44.6521 37.0068C44.6521 35.7123 43.6029 34.6631 42.3083 34.6631H35.5713C34.2773 34.6631 33.2275 35.7123 33.2275 37.0068C33.2275 38.3014 34.2773 39.3506 35.5713 39.3506H42.3083C43.6029 39.3506 44.6521 38.3014 44.6521 37.0068Z" fill="#B29E85"/>
    <path d="M66.8548 54.5606C65.8453 53.7507 64.3707 53.9124 63.5601 54.9219L57.5237 62.4476L53.7866 59.74C52.7386 58.9802 51.2725 59.2145 50.5132 60.2625C49.754 61.3111 49.9883 62.7765 51.0363 63.5358L56.5801 67.5526C56.9952 67.8528 57.4761 67.9987 57.954 67.9987C58.6419 67.9987 59.3218 67.6966 59.7833 67.121L67.2167 57.8553C68.0267 56.8458 67.8649 55.3705 66.8548 54.5606Z" fill="#B29E85"/>
    <path d="M72.7789 47.3658C69.726 44.2592 65.8032 42.3011 61.5527 41.7244V9.93909C61.5527 4.73462 57.3181 0.5 52.1136 0.5H11.1584C5.95337 0.5 1.71875 4.73462 1.71875 9.93909V64.2317C1.71875 69.4368 5.95337 73.6714 11.1578 73.6714H44.0979C47.8046 78.0256 53.1342 80.5 58.9001 80.5C69.6332 80.5 78.3649 71.7622 78.3649 61.0219C78.3649 55.8802 76.3812 51.0304 72.7789 47.3658ZM6.40625 64.2317V9.93909C6.40625 7.31946 8.53821 5.1875 11.1584 5.1875H52.1136C54.7339 5.1875 56.8652 7.31946 56.8652 9.93909V41.6499C47.085 42.671 39.4354 50.9688 39.4354 61.0219C39.4354 63.8081 40.0165 66.5022 41.131 68.9833H11.1584C8.53821 68.9833 6.40625 66.8519 6.40625 64.2317ZM58.9001 75.8125C54.2194 75.8125 49.9164 73.6635 47.0935 69.9171C45.1501 67.3372 44.1223 64.2616 44.1223 61.0219C44.1223 52.8663 50.752 46.2312 58.9001 46.2312C58.9771 46.2312 59.0546 46.2324 59.1315 46.2336L59.1675 46.2343C63.0573 46.3032 66.7041 47.8718 69.436 50.6514C72.171 53.434 73.6774 57.1174 73.6774 61.0219C73.6774 69.1774 67.0483 75.8125 58.9001 75.8125Z" fill="#B29E85"/>
  </g>
  <defs>
    <clipPath id="clip0_4555_1086">
      <rect width="80" height="80" fill="white" transform="translate(0 0.5)"/>
    </clipPath>
  </defs>
</svg>