<svg width="29" height="26" viewBox="0 0 29 26" fill="none" xmlns="http://www.w3.org/2000/svg">
<rect x="0.724794" y="1.29913" width="27.4464" height="23.3756" rx="3.93916" stroke="#C0C0C0" stroke-width="0.875369"/>
<path d="M13.1195 6.92365L12.4557 7.52992H9.13672V8.74247H9.80051V17.8366C9.80051 18.1532 9.92751 18.476 10.1778 18.7045C10.4281 18.9331 10.7814 19.0491 11.1281 19.0491H17.766C18.1126 19.0491 18.466 18.9331 18.7163 18.7045C18.9666 18.476 19.0936 18.1532 19.0936 17.8366V8.74247H19.7574V7.52992H16.4384L15.7746 6.92365H13.1195ZM11.1281 8.74247H17.766V17.8366H11.1281V8.74247ZM12.4557 9.95501V16.624H13.7833V9.95501H12.4557ZM15.1108 9.95501V16.624H16.4384V9.95501H15.1108Z" fill="#C0C0C0"/>
</svg>
