<svg width="29" height="26" viewBox="0 0 29 26" fill="none" xmlns="http://www.w3.org/2000/svg">
<rect x="0.461122" y="1.26227" width="27.4464" height="23.3756" rx="3.93916" stroke="#C0C0C0" stroke-width="0.875369"/>
<path d="M9.04274 17.7476L11.4103 17.1157L9.04274 17.7476ZM9.04274 17.7476L9.71628 15.545L9.71767 15.5404C9.72003 15.5346 9.72385 15.5288 9.73032 15.5227L15.5573 10.0803L17.2557 11.6668L11.4389 17.1003C11.4389 17.1003 11.4389 17.1003 11.4388 17.1004C11.4319 17.1068 11.4222 17.1125 11.4105 17.1156L9.04274 17.7476ZM8.90196 14.7303L8.90196 14.7303L8.67973 15.2652L8.5841 15.236L8.58406 15.2361L7.61642 18.4011L7.61639 18.4012C7.58699 18.4977 7.58571 18.6 7.61272 18.6971C7.63971 18.7943 7.69377 18.882 7.76841 18.9518C7.84301 19.0214 7.93553 19.0707 8.03612 19.0951C8.13669 19.1195 8.24233 19.1183 8.3423 19.0917L8.34238 19.0917L11.7315 18.1878L11.7556 18.1814L11.7567 18.1803C11.9481 18.125 12.1239 18.0272 12.2677 17.8929L12.1994 17.8198L12.2677 17.8929L19.4867 11.149C20.4166 10.2804 20.4166 8.85561 19.4867 7.98702C19.0231 7.55369 18.4127 7.33823 17.8042 7.33823C17.1957 7.33823 16.5853 7.55369 16.1216 7.98702L8.90196 14.7303ZM18.6577 8.77939L18.6821 8.80216C19.1296 9.24339 19.1217 9.92379 18.6584 10.3566L18.094 10.8837L16.3956 9.29723L16.95 8.7794L16.95 8.77939C17.1867 8.55819 17.495 8.4469 17.8042 8.4469C18.1134 8.4469 18.421 8.55816 18.6577 8.77939Z" fill="#C0C0C0" stroke="#C0C0C0" stroke-width="0.2"/>
</svg>
