<svg width="68" height="68" viewBox="0 0 68 68" fill="none" xmlns="http://www.w3.org/2000/svg">
<path d="M33.6807 0L65.713 23.2728L53.4778 60.929H13.8837L1.64845 23.2728L33.6807 0Z" fill="#B29E85"/>
<path fill-rule="evenodd" clip-rule="evenodd" d="M25.5462 37.4208C26.5585 36.4085 27.9314 35.8398 29.3629 35.8398H37.999C39.4305 35.8398 40.8034 36.4085 41.8156 37.4208C42.8278 38.433 43.3965 39.8059 43.3965 41.2374V43.3964C43.3965 43.9926 42.9132 44.4759 42.317 44.4759C41.7208 44.4759 41.2375 43.9926 41.2375 43.3964V41.2374C41.2375 40.3785 40.8963 39.5548 40.289 38.9474C39.6816 38.3401 38.8579 37.9989 37.999 37.9989H29.3629C28.504 37.9989 27.6802 38.3401 27.0729 38.9474C26.4656 39.5548 26.1244 40.3785 26.1244 41.2374V43.3964C26.1244 43.9926 25.641 44.4759 25.0448 44.4759C24.4486 44.4759 23.9653 43.9926 23.9653 43.3964V41.2374C23.9653 39.8059 24.534 38.433 25.5462 37.4208Z" fill="white"/>
<path fill-rule="evenodd" clip-rule="evenodd" d="M33.6808 25.0448C31.8922 25.0448 30.4422 26.4947 30.4422 28.2833C30.4422 30.0719 31.8922 31.5218 33.6808 31.5218C35.4693 31.5218 36.9193 30.0719 36.9193 28.2833C36.9193 26.4947 35.4693 25.0448 33.6808 25.0448ZM28.2832 28.2833C28.2832 25.3023 30.6998 22.8857 33.6808 22.8857C36.6617 22.8857 39.0783 25.3023 39.0783 28.2833C39.0783 31.2643 36.6617 33.6808 33.6808 33.6808C30.6998 33.6808 28.2832 31.2643 28.2832 28.2833Z" fill="white"/>
</svg>
