<svg width="15" height="16" viewBox="0 0 15 16" fill="none" xmlns="http://www.w3.org/2000/svg">
<path d="M7.2039 8.10403V8.25085H7.22233C7.22938 8.27867 7.23841 8.30601 7.2494 8.33266C7.26045 8.35943 7.27338 8.38531 7.28808 8.41012L7.27479 8.4234L7.37982 8.52842L7.37995 8.52856L7.38019 8.5288L7.48497 8.63384L7.4851 8.63371L10.1025 11.2511L10.2076 11.3563L10.3128 11.2511L10.9553 10.6086L11.0605 10.5034L10.9553 10.3983L8.40883 7.85178V4.01832V3.86961H8.26012H7.35261H7.2039V4.01832V8.10187C7.20389 8.10259 7.20389 8.10331 7.2039 8.10403ZM7.80636 2.352C8.56148 2.352 9.30921 2.50073 10.0068 2.78971C10.7045 3.07868 11.3384 3.50223 11.8723 4.03618C12.4063 4.57013 12.8298 5.20402 13.1188 5.90166C13.4078 6.5993 13.5565 7.34702 13.5565 8.10214C13.5565 8.85726 13.4078 9.60498 13.1188 10.3026C12.8298 11.0003 12.4063 11.6342 11.8723 12.1681C11.3384 12.7021 10.7045 13.1256 10.0068 13.4146C9.30921 13.7035 8.56148 13.8523 7.80636 13.8523C6.28133 13.8523 4.81876 13.2465 3.7404 12.1681C2.66204 11.0897 2.05623 9.62717 2.05623 8.10214C2.05623 6.57711 2.66204 5.11454 3.7404 4.03618C4.81876 2.95782 6.28133 2.352 7.80636 2.352ZM0.852877 7.95343H0.851289V8.10214V8.25085H0.852877C0.891131 10.0416 1.61915 11.7509 2.88838 13.0201C4.15762 14.2894 5.86691 15.0174 7.65765 15.0556V15.0572H7.80636H7.95508V15.0556C9.74582 15.0174 11.4551 14.2894 12.7243 13.0201C13.9936 11.7509 14.7216 10.0416 14.7599 8.25085H14.7614V8.10214V7.95343H14.7599C14.7216 6.16269 13.9936 4.4534 12.7243 3.18416C11.4551 1.91492 9.74582 1.18691 7.95508 1.14865V1.14707H7.80636H7.65765V1.14865C5.86691 1.18691 4.15762 1.91492 2.88838 3.18416C1.61915 4.4534 0.891131 6.16269 0.852877 7.95343Z" fill="#252525" stroke="#252525" stroke-width="0.297423"/>
</svg>
