<svg width="34" height="29" viewBox="0 0 34 29" fill="none" xmlns="http://www.w3.org/2000/svg">
<rect x="0.67161" y="0.523172" width="32.8072" height="27.9413" rx="4.70855" stroke="#B29E85" stroke-width="1.04634"/>
<path fill-rule="evenodd" clip-rule="evenodd" d="M21.9657 9.15614C21.3144 8.50053 20.5395 7.98067 19.6858 7.6267C18.8321 7.27273 17.9167 7.09167 16.9925 7.09402C13.1173 7.09402 9.96265 10.2479 9.96108 14.1247C9.96108 15.3637 10.2845 16.5729 10.8993 17.6396L9.90234 21.2822L13.6295 20.304C14.6605 20.8652 15.8155 21.1595 16.9894 21.16H16.9925C20.8669 21.16 24.0216 18.0061 24.0232 14.1294C24.0258 13.2056 23.8454 12.2904 23.4922 11.4368C23.1391 10.5832 22.6203 9.80805 21.9657 9.15614ZM16.9925 19.9735H16.9902C15.9435 19.9736 14.916 19.692 14.0156 19.1582L13.8026 19.0313L11.5909 19.6117L12.1806 17.4556L12.042 17.2347C11.4568 16.303 11.147 15.2249 11.1484 14.1247C11.15 10.9026 13.7713 8.28133 16.9949 8.28133C17.7626 8.27962 18.523 8.43019 19.2322 8.72434C19.9413 9.01848 20.5851 9.45034 21.1262 9.99494C21.6702 10.5369 22.1014 11.1814 22.3948 11.891C22.6883 12.6007 22.8382 13.3614 22.8359 14.1294C22.8343 17.3514 20.213 19.9735 16.9925 19.9735ZM20.1981 15.5963C20.0219 15.5078 19.1588 15.0833 18.9975 15.0246C18.8369 14.9658 18.7202 14.9368 18.6027 15.1123C18.4853 15.2877 18.1485 15.6832 18.0459 15.8007C17.9433 15.9182 17.8407 15.9323 17.6653 15.8445C17.4898 15.7568 16.9236 15.5712 16.2524 14.9729C15.73 14.5069 15.3776 13.932 15.275 13.7558C15.1724 13.5796 15.264 13.4848 15.3525 13.3971C15.4316 13.3188 15.528 13.1919 15.6157 13.0893C15.7034 12.9867 15.7324 12.9139 15.7911 12.7964C15.8499 12.6789 15.8209 12.5763 15.7762 12.4886C15.7324 12.4001 15.3807 11.5355 15.2343 11.1838C15.0925 10.8431 14.9476 10.8885 14.8395 10.8839C14.7276 10.8793 14.6156 10.8772 14.5036 10.8776C14.4145 10.8799 14.3268 10.9005 14.2461 10.9382C14.1654 10.976 14.0933 11.03 14.0344 11.0969C13.8731 11.2731 13.4196 11.6976 13.4196 12.5622C13.4196 13.4269 14.0493 14.2625 14.137 14.38C14.2247 14.4975 15.376 16.2714 17.1382 17.0326C17.558 17.2136 17.8854 17.3216 18.1399 17.4031C18.5605 17.537 18.9434 17.5174 19.2465 17.4728C19.5841 17.4227 20.2858 17.0483 20.4323 16.6379C20.5787 16.2275 20.5787 15.8759 20.5349 15.8023C20.491 15.7286 20.3727 15.684 20.1981 15.5963Z" fill="#B29E85"/>
</svg>
