<svg width="9" height="12" viewBox="0 0 9 12" fill="none" xmlns="http://www.w3.org/2000/svg">
<path d="M4.49999 11.5737C3.68802 10.8811 2.9354 10.1218 2.24999 9.30373C1.22143 8.07524 5.65002e-07 6.24567 5.65002e-07 4.50224C-0.000445511 3.61187 0.263255 2.74136 0.75773 2.00091C1.2522 1.26046 1.95523 0.683335 2.77782 0.342583C3.60042 0.00183003 4.50561 -0.0872354 5.37885 0.086658C6.25208 0.260551 7.0541 0.689587 7.68341 1.31947C8.10239 1.73659 8.43449 2.23267 8.66048 2.77899C8.88647 3.32531 9.00186 3.91103 8.99998 4.50224C8.99998 6.24567 7.77855 8.07524 6.74998 9.30373C6.06457 10.1218 5.31195 10.8811 4.49999 11.5737ZM4.49999 2.57368C3.9885 2.57368 3.49796 2.77687 3.13629 3.13854C2.77461 3.50022 2.57142 3.99076 2.57142 4.50224C2.57142 5.01373 2.77461 5.50427 3.13629 5.86595C3.49796 6.22762 3.9885 6.43081 4.49999 6.43081C5.01148 6.43081 5.50202 6.22762 5.86369 5.86595C6.22537 5.50427 6.42856 5.01373 6.42856 4.50224C6.42856 3.99076 6.22537 3.50022 5.86369 3.13854C5.50202 2.77687 5.01148 2.57368 4.49999 2.57368Z" fill="white"/>
</svg>
