<svg width="158" height="200" viewBox="0 0 158 200" fill="none" xmlns="http://www.w3.org/2000/svg">
<path d="M29.6639 199.205H128.335C147.57 199.205 157.139 189.449 157.139 170.123V85.7594H89.8695C77.9766 85.7594 72.4028 80.0905 72.4028 68.1976V0H29.6639C10.5243 0 0.859375 9.84728 0.859375 29.1771V170.123C0.859375 189.54 10.5243 199.205 29.6639 199.205ZM90.1509 73.0301H156.117C155.467 69.2204 152.771 65.5019 148.406 60.9509L97.1162 8.82847C92.8427 4.36864 88.9418 1.67293 85.037 1.01882V68.0152C85.037 71.3571 86.8051 73.0301 90.1509 73.0301ZM43.2297 125.993C39.42 125.993 36.7243 123.297 36.7243 119.674C36.7243 116.047 39.42 113.355 43.2257 113.355H114.86C118.579 113.355 121.461 116.05 121.461 119.67C121.461 123.297 118.579 125.989 114.864 125.989L43.2297 125.993ZM43.2297 161.39C39.42 161.39 36.7243 158.694 36.7243 155.071C36.7243 151.448 39.42 148.752 43.2257 148.752H114.86C118.579 148.752 121.461 151.448 121.461 155.071C121.461 158.694 118.579 161.39 114.864 161.39H43.2297Z" fill="#B29E85"/>
</svg>
