<svg width="72" height="71" viewBox="0 0 72 71" fill="none" xmlns="http://www.w3.org/2000/svg">
<circle cx="36" cy="35.5" r="34.5" stroke="#B29E85" stroke-width="2"/>
<path fill-rule="evenodd" clip-rule="evenodd" d="M31.8817 30.615H38.0717V33.6983C38.9633 31.925 41.25 30.3317 44.685 30.3317C51.27 30.3317 52.8333 33.8617 52.8333 40.3383V52.3333H46.1667V41.8133C46.1667 38.125 45.275 36.045 43.005 36.045C39.8567 36.045 38.5483 38.2867 38.5483 41.8117V52.3333H31.8817V30.615ZM20.45 52.05H27.1167V30.3317H20.45V52.05ZM28.0717 23.25C28.0719 23.8088 27.9611 24.3621 27.7456 24.8776C27.5302 25.3932 27.2144 25.8609 26.8167 26.2533C26.0107 27.0544 24.9197 27.5028 23.7833 27.5C22.649 27.4992 21.5605 27.052 20.7533 26.255C20.357 25.8612 20.0423 25.393 19.8272 24.8774C19.6122 24.3617 19.501 23.8087 19.5 23.25C19.5 22.1217 19.95 21.0417 20.755 20.245C21.5615 19.4469 22.6504 18.9995 23.785 19C24.9217 19 26.0117 19.4483 26.8167 20.245C27.62 21.0417 28.0717 22.1217 28.0717 23.25Z" fill="#B29E85"/>
</svg>
