<svg width="398" height="325" viewBox="0 0 398 325" fill="none" xmlns="http://www.w3.org/2000/svg">
<path d="M356.718 225.982C356.723 227.844 356.403 229.637 355.797 231.293C353.658 237.145 348.043 241.343 341.447 241.373L138.157 242.164C136.309 242.174 134.509 241.851 132.825 241.235C130.773 240.486 128.889 239.299 127.298 237.714C124.394 234.833 122.781 230.987 122.767 226.893L122.325 114.199C122.312 110.106 123.892 106.252 126.774 103.347C129.658 100.436 133.501 98.8296 137.597 98.8085L340.894 98.0187C344.987 98.0051 348.84 99.5854 351.745 102.467C354.657 105.351 356.263 109.194 356.277 113.288L356.718 225.982ZM341.366 218.085L340.976 120.319L274.497 166.787L341.366 218.085ZM152.856 226.777L326.629 226.098L261.315 175.996L243.959 188.135C241.879 189.586 239.251 189.898 236.933 189.051C236.343 188.835 235.767 188.535 235.224 188.166L217.778 176.174L152.856 226.777ZM239.531 172.521L324.102 113.416L154.498 114.077L239.531 172.521ZM138.062 218.872L204.527 167.062L137.684 121.118L138.062 218.872Z" fill="#B29E85"/>
<path d="M91.0882 217.547C91.1073 221.781 87.6868 225.223 83.4525 225.242L52.66 225.362C51.7217 225.362 50.8241 225.206 49.9963 224.903C47.0667 223.832 44.9747 221.028 44.9648 217.727C44.9458 213.493 48.3663 210.051 52.6006 210.032L83.393 209.912C87.6248 209.9 91.0689 213.313 91.0882 217.547Z" fill="#B29E85"/>
<path d="M78.7972 137.293C78.8163 141.527 75.393 144.976 71.169 144.991L52.1525 145.066C51.2211 145.068 50.3262 144.904 49.4916 144.599C46.5689 143.53 44.4743 140.733 44.4575 137.43C44.4454 133.198 47.859 129.754 52.0933 129.735L71.1098 129.66C75.3338 129.646 78.7857 133.061 78.7972 137.293Z" fill="#B29E85"/>
<path d="M38.1084 184.243C38.1205 188.475 34.7069 191.919 30.4751 191.931L16.3449 191.989C15.4135 191.991 14.5187 191.827 13.684 191.522C10.7613 190.454 8.6667 187.656 8.64992 184.353C8.63779 180.121 12.0514 176.677 16.2857 176.658L30.4134 176.608C34.6468 176.589 38.0891 180.01 38.1084 184.243Z" fill="#B29E85"/>
</svg>
