<svg width="16" height="16" viewBox="0 0 16 16" fill="none" xmlns="http://www.w3.org/2000/svg">
<g id="attach_file">
<path id="icon" d="M7.66667 14.6663C6.64444 14.6663 5.77778 14.3108 5.06667 13.5997C4.35556 12.8886 4 12.0219 4 10.9997V3.99967C4 3.26634 4.26111 2.63856 4.78333 2.11634C5.30556 1.59412 5.93333 1.33301 6.66667 1.33301C7.4 1.33301 8.02778 1.59412 8.55 2.11634C9.07222 2.63856 9.33333 3.26634 9.33333 3.99967V10.333C9.33333 10.7997 9.17222 11.1941 8.85 11.5163C8.52778 11.8386 8.13333 11.9997 7.66667 11.9997C7.2 11.9997 6.80556 11.8386 6.48333 11.5163C6.16111 11.1941 6 10.7997 6 10.333V3.99967H7V10.333C7 10.5219 7.06389 10.6802 7.19167 10.808C7.31944 10.9358 7.47778 10.9997 7.66667 10.9997C7.85556 10.9997 8.01389 10.9358 8.14167 10.808C8.26944 10.6802 8.33333 10.5219 8.33333 10.333V3.99967C8.33333 3.53301 8.17222 3.13856 7.85 2.81634C7.52778 2.49412 7.13333 2.33301 6.66667 2.33301C6.2 2.33301 5.80556 2.49412 5.48333 2.81634C5.16111 3.13856 5 3.53301 5 3.99967V10.9997C5 11.733 5.26111 12.3608 5.78333 12.883C6.30556 13.4052 6.93333 13.6663 7.66667 13.6663C8.4 13.6663 9.02778 13.4052 9.55 12.883C10.0722 12.3608 10.3333 11.733 10.3333 10.9997V3.99967H11.3333V10.9997C11.3333 12.0219 10.9778 12.8886 10.2667 13.5997C9.55556 14.3108 8.68889 14.6663 7.66667 14.6663Z" fill="#1D1B20"/>
</g>
</svg>
