<svg version="1.2" baseProfile="tiny" id="Layer_1" xmlns="http://www.w3.org/2000/svg" x="0" y="0" width="100" height="100" viewBox="0 0 100 100" overflow="visible" xml:space="preserve"><path fill="#4186DD" d="M0 0h100v100H0z"/><path fill="#FFF" d="M60.8 47.6c4.4-3.3 7.2-8.5 7.2-14.3 0-9.9-8.1-18-18-18s-18 8.1-18 18c0 5.9 2.9 11 7.2 14.3C28 52 20 62.8 20 75.6c0 1.1.6 2.1 1.6 2.6.6.3 14 6.5 28.4 6.5 13.9 0 27.7-6.2 28.3-6.5 1-.5 1.7-1.5 1.7-2.6 0-12.8-8-23.6-19.2-28zm-23-14.3c0-6.8 5.5-12.2 12.2-12.2s12.2 5.5 12.2 12.2S56.7 45.5 50 45.5s-12.2-5.4-12.2-12.2zM50 78.9c-10.2 0-20.3-3.6-24.2-5.2 1-12.5 11.4-22.4 24.2-22.4 12.7 0 23.2 9.9 24.2 22.4-4 1.6-14.3 5.2-24.2 5.2z"/></svg>