<svg width="16" height="16" viewBox="0 0 16 16" fill="none" xmlns="http://www.w3.org/2000/svg">
<path d="M3.18889 13.3333C3.08587 13.3333 2.98515 13.3028 2.89949 13.2455C2.81382 13.1883 2.74705 13.107 2.70762 13.0118C2.66819 12.9166 2.65788 12.8119 2.67798 12.7108C2.69809 12.6098 2.74771 12.517 2.82056 12.4441L12.4454 2.81919C12.5431 2.72151 12.6756 2.66663 12.8137 2.66663C12.9519 2.66663 13.0844 2.72151 13.1821 2.81919C13.2798 2.91688 13.3346 3.04937 13.3346 3.18752C13.3346 3.32568 13.2798 3.45817 13.1821 3.55586L3.55722 13.1808C3.50889 13.2292 3.45148 13.2676 3.38827 13.2938C3.32506 13.32 3.2573 13.3334 3.18889 13.3333Z" fill="#C0C0C0"/>
<path d="M12.8137 13.3333C12.7453 13.3334 12.6775 13.32 12.6143 13.2938C12.5511 13.2676 12.4937 13.2292 12.4454 13.1808L2.82054 3.55586C2.72285 3.45817 2.66797 3.32568 2.66797 3.18752C2.66797 3.04937 2.72285 2.91688 2.82054 2.81919C2.91822 2.72151 3.05071 2.66663 3.18886 2.66663C3.32701 2.66663 3.4595 2.72151 3.55719 2.81919L13.182 12.4441C13.2549 12.517 13.3045 12.6098 13.3246 12.7108C13.3447 12.8119 13.3344 12.9166 13.295 13.0118C13.2556 13.107 13.1888 13.1883 13.1031 13.2455C13.0175 13.3028 12.9167 13.3333 12.8137 13.3333Z" fill="#C0C0C0"/>
</svg>
