<svg version="1.2" baseProfile="tiny" id="Layer_1" xmlns="http://www.w3.org/2000/svg" x="0" y="0" width="240" height="72" viewBox="0 0 240 72" overflow="visible" xml:space="preserve"><path fill="none" stroke="#4086DD" stroke-width="3" stroke-linecap="round" stroke-linejoin="round" stroke-miterlimit="10" d="M156 48.5h82.5s-9.8 5.3-19.5 9.5c-13.2 5.7-21 6.5-21 6.5H1.5L6 58h49s16-.5 16-5c0-6.4-23-7-23-7H20l18.3-7.2L70 39s10-.1 10-5c0-5.4-10-5-10-5H48l20-7h46v5h28s5.9 0 13 2c4 1.1 9 3 9 3l.1 4.5H100"/><path fill="none" stroke="#4086DD" stroke-width="3" stroke-linecap="round" stroke-linejoin="round" stroke-miterlimit="10" d="M210 48s-12.6-4.3-23-7c-8.9-2.3-23-4.5-23-4.5"/><path fill="none" stroke="#4086DD" stroke-width="3" stroke-linecap="round" stroke-linejoin="round" stroke-miterlimit="10" d="M135 36.5l8 5h45"/><path fill="none" stroke="#4086DD" stroke-width="2" stroke-linecap="round" stroke-linejoin="round" stroke-miterlimit="10" d="M73 44h16v4H73zM96 44h16v4H96zM119 44h16v4h-16zM43 38.5V34h37M9.5 57v-4H70M20 57v-3M30 57v-3M40 57v-3M50 57v-3M55 38v-4M68 38v-4"/><circle fill="none" stroke="#4086DD" stroke-width="2" stroke-linecap="round" stroke-linejoin="round" stroke-miterlimit="10" cx="90.2" cy="56.2" r="2.2"/><circle fill="none" stroke="#4086DD" stroke-width="2" stroke-linecap="round" stroke-linejoin="round" stroke-miterlimit="10" cx="106.2" cy="56.2" r="2.2"/><circle fill="none" stroke="#4086DD" stroke-width="2" stroke-linecap="round" stroke-linejoin="round" stroke-miterlimit="10" cx="122.2" cy="56.2" r="2.2"/><circle fill="none" stroke="#4086DD" stroke-width="2" stroke-linecap="round" stroke-linejoin="round" stroke-miterlimit="10" cx="138.2" cy="56.2" r="2.2"/><path fill="none" stroke="#4086DD" stroke-width="3" stroke-linecap="round" stroke-linejoin="round" stroke-miterlimit="10" d="M76 22c.7-2.4 2.8-4.3 5.5-4.3s4.8 1.8 5.5 4.3M81 5.5v12M78 9h5M85 14h-3.5"/><path fill="none" stroke="#4086DD" stroke-width="2" stroke-linecap="round" stroke-linejoin="round" stroke-miterlimit="10" d="M60 57v-3"/><circle fill="none" stroke="#4086DD" stroke-width="2" stroke-linecap="round" stroke-linejoin="round" stroke-miterlimit="10" cx="154.2" cy="56.2" r="2.2"/></svg>