<svg width="30" height="30" viewBox="0 0 30 30" fill="none" xmlns="http://www.w3.org/2000/svg">
<path d="M1.86402 0.000806615C1.49495 0.000903615 1.13429 0.111067 0.82815 0.317207C0.52202 0.523357 0.28432 0.816117 0.14544 1.15807C0.00655797 1.50001 -0.027188 1.87561 0.048514 2.23683C0.124216 2.59806 0.30593 2.9285 0.57041 3.18592L12.2455 14.861L0.57041 26.5361C0.39236 26.7071 0.2502 26.9118 0.15227 27.1384C0.0543419 27.365 0.00260702 27.6088 9.60156e-05 27.8557C-0.00241498 28.1025 0.044348 28.3473 0.13765 28.5758C0.23095 28.8044 0.36891 29.012 0.54345 29.1865C0.71799 29.3611 0.9256 29.499 1.15413 29.5923C1.38265 29.6856 1.6275 29.7324 1.87432 29.7299C2.12115 29.7274 2.36499 29.6756 2.59157 29.5777C2.81815 29.4798 3.02291 29.3376 3.19387 29.1596L14.869 17.4845L26.5441 29.1596C26.715 29.3376 26.9198 29.4798 27.1464 29.5777C27.3729 29.6756 27.6168 29.7274 27.8636 29.7299C28.1104 29.7324 28.3553 29.6856 28.5838 29.5923C28.8123 29.499 29.0199 29.3611 29.1945 29.1865C29.369 29.012 29.507 28.8044 29.6003 28.5759C29.6936 28.3473 29.7404 28.1025 29.7378 27.8557C29.7353 27.6088 29.6836 27.365 29.5857 27.1384C29.4877 26.9118 29.3456 26.7071 29.1675 26.5361L17.4924 14.861L29.1675 3.18592C29.4356 2.92532 29.6187 2.58981 29.6928 2.22336C29.767 1.85691 29.7287 1.47661 29.583 1.1323C29.4373 0.787987 29.1909 0.495737 28.8763 0.293827C28.5616 0.0919196 28.1933 -0.0102144 27.8196 0.000806615C27.3376 0.0151686 26.8801 0.216611 26.5441 0.562457L14.869 12.2376L3.19387 0.562457C3.02098 0.384737 2.81422 0.243466 2.58581 0.146998C2.3574 0.0505306 2.11197 0.000820615 1.86402 0.000806615Z" fill="white"/>
</svg>
