<svg width="12" height="16" viewBox="0 0 12 16" fill="none" xmlns="http://www.w3.org/2000/svg">
<path d="M3.10837 0.408312L2.42048 0.615541C1.80799 0.800252 1.261 1.15609 0.843904 1.64117C0.426809 2.12625 0.156964 2.72039 0.0661314 3.35365C-0.218809 5.33768 0.418229 7.65749 1.95422 10.3179C3.48637 12.9716 5.17299 14.6812 7.02941 15.4295C7.62589 15.6699 8.27886 15.734 8.91069 15.6141C9.54251 15.4942 10.1266 15.1954 10.5936 14.7532L11.1136 14.26C11.4512 13.9405 11.6614 13.5092 11.7049 13.0463C11.7485 12.5835 11.6226 12.1205 11.3505 11.7436L10.0496 9.93989C9.8737 9.69639 9.62603 9.51403 9.34129 9.41837C9.05655 9.32271 8.74901 9.31855 8.46179 9.40647L6.49407 10.008L6.44322 10.0176C6.2264 10.0493 5.7256 9.58012 5.10199 8.49984C4.4496 7.36967 4.31529 6.70865 4.49469 6.53788L5.49534 5.60439C5.86127 5.26329 6.11123 4.81619 6.21016 4.32582C6.3091 3.83545 6.25204 3.32641 6.04699 2.87012L5.41187 1.45885C5.22089 1.03417 4.882 0.693423 4.45836 0.500138C4.03472 0.306853 3.55525 0.274216 3.10933 0.408312H3.10837ZM4.53787 1.8522L5.17107 3.26347C5.29438 3.53712 5.32887 3.84253 5.26967 4.13678C5.21048 4.43104 5.06058 4.69936 4.84103 4.90403L3.83751 5.83848C3.19567 6.44674 3.40866 7.4848 4.27211 8.97954C5.08376 10.386 5.82441 11.0806 6.62071 10.9597L6.73968 10.9348L8.74289 10.3236C8.83864 10.2942 8.9412 10.2955 9.03618 10.3274C9.13116 10.3592 9.21378 10.42 9.27248 10.5011L10.5734 12.3048C10.7096 12.4933 10.7728 12.7248 10.7511 12.9563C10.7294 13.1879 10.6243 13.4037 10.4554 13.5635L9.93446 14.0567C9.60092 14.3723 9.18377 14.5856 8.73258 14.6711C8.28139 14.7567 7.81512 14.7109 7.38919 14.5392C5.76013 13.883 4.22031 12.3221 2.78601 9.8382C1.34788 7.34857 0.76553 5.23119 1.01593 3.48989C1.08075 3.03746 1.27348 2.61298 1.57144 2.26641C1.86939 1.91985 2.26017 1.66563 2.69775 1.53368L3.38563 1.32645C3.60865 1.25944 3.84843 1.27582 4.06026 1.37256C4.27209 1.46929 4.4415 1.63977 4.53691 1.8522H4.53787Z" fill="#B29E85"/>
</svg>
