<svg width="16" height="14" viewBox="0 0 16 14" fill="none" xmlns="http://www.w3.org/2000/svg">
<path d="M0.713379 4.53523V10.7687C0.713379 11.4351 0.978087 12.0741 1.44927 12.5453C1.92046 13.0165 2.55952 13.2812 3.22587 13.2812H13.2759C13.9422 13.2812 14.5813 13.0165 15.0525 12.5453C15.5236 12.0741 15.7884 11.4351 15.7884 10.7687V3.23125C15.7884 2.56489 15.5236 1.92583 15.0525 1.45464C14.5813 0.983458 13.9422 0.71875 13.2759 0.71875H3.22587C2.55952 0.71875 1.92046 0.983458 1.44927 1.45464C0.978087 1.92583 0.713379 2.56489 0.713379 3.23125V4.53523ZM3.22587 1.975H13.2759C13.609 1.975 13.9286 2.10735 14.1642 2.34294C14.3997 2.57854 14.5321 2.89807 14.5321 3.23125V4.16087L8.25086 7.54269L1.96963 4.16087V3.23125C1.96963 2.89807 2.10198 2.57854 2.33757 2.34294C2.57317 2.10735 2.8927 1.975 3.22587 1.975ZM1.96963 5.58797L7.95313 8.80898C8.04464 8.85824 8.14694 8.88403 8.25086 8.88403C8.35479 8.88403 8.45709 8.85824 8.5486 8.80898L14.5321 5.58797V10.7687C14.5321 11.1019 14.3997 11.4214 14.1642 11.657C13.9286 11.8926 13.609 12.025 13.2759 12.025H3.22587C2.8927 12.025 2.57317 11.8926 2.33757 11.657C2.10198 11.4214 1.96963 11.1019 1.96963 10.7687V5.58797Z" fill="#B29E85"/>
</svg>
