<svg width="21" height="21" viewBox="0 0 21 21" fill="none" xmlns="http://www.w3.org/2000/svg">
<g clip-path="url(#clip0_4675_670)">
<path d="M7.31555 0.690692C5.21732 1.41859 3.40781 2.80015 2.15281 4.63246C0.897812 6.46477 0.263469 8.65124 0.342959 10.8707C0.422448 13.0902 1.21158 15.2257 2.59444 16.9635C3.97731 18.7013 5.88101 19.9499 8.02594 20.5258C9.76487 20.9746 11.5868 20.9943 13.335 20.5833C14.9187 20.2275 16.3829 19.4666 17.5842 18.375C18.8345 17.2042 19.742 15.7147 20.2092 14.0667C20.7169 12.2746 20.8072 10.39 20.4734 8.55749H10.7084V12.6082H16.3636C16.2506 13.2543 16.0084 13.8709 15.6515 14.4211C15.2946 14.9714 14.8304 15.444 14.2866 15.8107C13.5961 16.2677 12.8176 16.575 12.0012 16.713C11.1824 16.8653 10.3426 16.8653 9.52383 16.713C8.69392 16.5416 7.90886 16.1991 7.21875 15.7073C6.10993 14.9224 5.27736 13.8074 4.83984 12.5212C4.39505 11.211 4.39505 9.79061 4.83984 8.48038C5.15128 7.56198 5.66612 6.72579 6.34594 6.03421C7.12391 5.22825 8.10884 4.65214 9.19268 4.3691C10.2765 4.08606 11.4174 4.10702 12.4901 4.42968C13.3281 4.6868 14.0944 5.13626 14.7279 5.74218C15.3655 5.1078 16.0021 4.47179 16.6376 3.83413C16.9657 3.49124 17.3234 3.16475 17.6466 2.81366C16.6795 1.91381 15.5444 1.21357 14.3062 0.753036C12.0515 -0.0656524 9.58449 -0.0876539 7.31555 0.690692Z" fill="white"/>
<path d="M7.31549 0.690696C9.58425 -0.088179 12.0513 -0.0667567 14.3062 0.751399C15.5445 1.21506 16.6791 1.91867 17.6449 2.82187C17.3167 3.17296 16.9706 3.50109 16.6359 3.84234C15.9993 4.47781 15.3633 5.11109 14.7278 5.74218C14.0944 5.13626 13.3281 4.68681 12.49 4.42968C11.4177 4.10589 10.2769 4.08372 9.19273 4.3656C8.1086 4.64749 7.12307 5.22253 6.34424 6.02765C5.66442 6.71923 5.14958 7.55543 4.83815 8.47382L1.43713 5.84062C2.65449 3.42654 4.76227 1.57995 7.31549 0.690696Z" fill="#E33629"/>
<path d="M0.534854 8.44923C0.71752 7.54323 1.02101 6.66586 1.4372 5.84064L4.83821 8.4804C4.39342 9.79064 4.39342 11.211 4.83821 12.5213C3.70509 13.3963 2.57142 14.2756 1.4372 15.1594C0.395648 13.0862 0.0779932 10.724 0.534854 8.44923Z" fill="#F8BD00"/>
<path d="M10.7084 8.55585H20.4734C20.8072 10.3883 20.7169 12.2729 20.2092 14.0651C19.742 15.713 18.8345 17.2025 17.5842 18.3733C16.4867 17.5169 15.3842 16.6671 14.2866 15.8107C14.8307 15.4436 15.2952 14.9705 15.6521 14.4197C16.009 13.8688 16.251 13.2516 16.3636 12.6049H10.7084C10.7067 11.2563 10.7084 9.90608 10.7084 8.55585Z" fill="#587DBD"/>
<path d="M1.43555 15.1594C2.56977 14.2844 3.70344 13.405 4.83656 12.5212C5.27495 13.8078 6.10871 14.9229 7.21875 15.7073C7.91101 16.1968 8.69777 16.5366 9.52875 16.7048C10.3475 16.8571 11.1873 16.8571 12.0061 16.7048C12.8225 16.5668 13.601 16.2595 14.2915 15.8025C15.3891 16.6589 16.4916 17.5087 17.5891 18.3651C16.388 19.4574 14.9238 20.2189 13.3399 20.5751C11.5917 20.9861 9.7698 20.9664 8.03086 20.5176C6.65553 20.1504 5.37087 19.5031 4.25742 18.6162C3.07901 17.6804 2.11646 16.5013 1.43555 15.1594Z" fill="#319F43"/>
</g>
<defs>
<clipPath id="clip0_4675_670">
<rect width="21" height="21" fill="white"/>
</clipPath>
</defs>
</svg>
