<svg width="159" height="100" viewBox="0 0 159 100" fill="none" xmlns="http://www.w3.org/2000/svg">
<g clip-path="url(#clip0_77_1289)">
<path d="M19.8 71.2C14.1 71.2 7.7 72.1 3.6 67.2C-0.7 62.5 -1 54.7 3.1 49.8C8.8 43.2 18.4 46.2 26 45.6C26.6 45.6 26.6 45.6 26.6 46.2V49.7C26.6 50.2 26.6 50.2 26.1 50.2C19.1 51 7.2 47 4.9 56.4C3.7 61.2 7 66.9 12.3 66.8C15.9 66.9 19.5 66.8 23.1 66.8C23.5 66.8 23.5 66.8 23.5 66.4V60.7C23.5 60.2 23.5 60.2 23 60.2H12.6C11.9 60.2 12 60.2 12 59.6V56.8C12 56.4 12 56.4 12.4 56.4H27.7C28.1 56.4 28.1 56.4 28.1 56.8V70.9C28.1 71.3 28.1 71.3 27.7 71.3C25.1 71.2 22.4 71.2 19.8 71.2ZM113.5 71.2H103.8C103.3 71.2 103.3 71.3 103.3 70.7V67.2C103.3 66.7 103.3 66.7 103.8 66.7H115.4C119 66.3 127 68.6 126.2 62.5C125.4 57.4 111 61.8 106.9 59.3C99.8 55.9 102.8 44.9 110.7 45.6H128.9C129.1 45.6 129.2 45.7 129.2 45.9V49.8C129.2 50.1 129.2 50.1 128.9 50.2H110.9C108.7 50 107.2 52 107.7 54.2C108 55.7 109.4 56.5 110.9 56.4C116 56.7 121.4 55.7 126.4 57C132.4 59.1 131.7 69.5 125.5 70.9C121.6 71.6 117.5 71 113.5 71.2ZM40.5 53.6C40.8 57.9 39 64.5 44.2 66.4C48.5 67.4 55.3 68.3 58.2 64.1C60.1 58.5 58.6 52.1 59.1 46.2C59.1 45.6 59 45.6 59.7 45.6H63C63.5 45.6 63.5 45.6 63.5 46.1V52.3C63.4 56.2 63.9 60.2 63 64.1C60.8 72.8 49.2 72.5 42.2 70.6C32.4 67 36.6 54.3 35.7 46.2C35.7 45.6 35.7 45.6 36.3 45.6H39.8C40.5 45.6 40.4 45.5 40.4 46.2C40.5 48.6 40.5 51.1 40.5 53.6ZM71.6 58.4V46.2C71.6 45.6 71.6 45.6 72.2 45.6H94C94.5 45.6 94.5 45.6 94.5 46.1V49.7C94.5 50.2 94.5 50.2 94 50.2H76.4C76 50.2 76 50.2 76 50.6V66.3C76 66.8 76 66.8 76.5 66.8H93.9C94.5 66.8 94.5 66.8 94.5 67.4V70.9C94.5 71.5 94.5 71.4 94 71.4H72.2C71.5 71.4 71.6 71.5 71.6 70.8V58.4ZM65.9 10.1C79.5 9.1 74.9 13.3 79.7 0C85.6 13.4 78.6 9 93.8 10.1C83.3 18.5 84.9 13.4 88.5 26.5C76.7 18.8 82.9 19 71.2 26.4C74.7 13 76.6 19 65.9 10.1ZM44.7 28.2C47.9 16.6 49.4 21 39.9 13.5C52.4 12.5 48 16.5 52.4 4.2C57.4 16.1 51.9 12.7 65.1 13.4C55.7 20.9 57 16.4 60.2 28C48.9 21.4 56.2 21.3 44.7 28.2ZM99.4 28.2C102.5 16 104.2 21.6 94.6 13.5C107.3 12.6 102.4 16.4 107.1 4.2C111.9 16 106.6 12.8 119.5 13.5C109.9 22.1 111.7 15.3 114.8 28.2C104.1 21.4 109.9 21.7 99.4 28.2ZM145.2 45.6H156.7C157.2 45.6 157.2 45.6 157.2 46.1V49.6C157.2 50.2 157.3 50.1 156.7 50.1H148.1C147.4 50.1 147.5 50 147.5 50.7V70.6C147.5 71.3 147.6 71.2 146.9 71.2H143.5C143 71.2 143 71.2 143 70.7V67.8V50.8C143 50 143.1 50.1 142.3 50.1H133.7C133.3 50.1 133.3 50.1 133.3 49.7V46.1C133.3 45.6 133.3 45.6 133.8 45.6H145.2ZM28.5 10.2C32.5 20.4 28.3 17.5 39.2 18.2C31.1 24.9 32.3 20.8 35.3 31C25.4 24.7 31.3 25.1 21.8 30.7C24.4 20.5 26 24.9 17.6 18.2C20.2 17.8 22.9 18.2 25.5 18C25.8 18 25.9 17.9 25.9 17.7C26.9 15.2 27.4 12.5 28.5 10.2ZM119.5 18.1C130.9 17.9 126.3 20 130.6 10.5C134.4 20.8 130.6 17.4 141.3 18.2C132.6 25.2 134.7 20.5 137 30.8C128.5 25.2 132.1 25.3 123.7 31.1C126.7 20.2 128 25 119.5 18.1ZM149.4 97C151.4 92.4 153.4 87.7 155.4 83.1C155.9 82.3 157.2 82.9 157.9 82.7C158.3 82.7 158.2 83 158.2 83.3V99.1C158.4 100.1 157.3 99.6 156.7 99.7C156.3 99.7 156.4 99.3 156.4 99V84.9C147.2 104.8 151.2 104.6 142.1 84.8V99.1C142.3 100.1 141.2 99.5 140.6 99.7C140.2 99.7 140.3 99.3 140.3 99.1V83.3C140.3 82.6 140.3 82.7 140.9 82.7H142.6C142.9 82.7 143.1 82.8 143.2 83.1C145.4 87.7 147.2 92.5 149.4 97ZM150.4 19C151.3 20.8 151.8 22.9 152.6 24.8C152.7 25.2 152.8 25.2 153.2 25.2C155.2 25.2 157.1 25.2 159.1 25.3C152.9 30.8 153.6 26.8 155.8 35.4C148.7 31 152.2 31.1 145.2 35.4C147.3 28.3 147.9 29.9 141.9 25.5C150.1 24.5 147.5 27.3 150.4 19ZM0 25.3C8.4 24.8 5.4 27.1 8.5 19.2C12 27 8.1 24.8 17 25.3C10.9 30.9 11.5 26.7 13.9 35.3C6.5 30.8 10.6 30.9 3.2 35.3C5.4 26.9 6.3 30.8 0 25.3H0ZM85 87.2C84.4 87.1 83.4 87.5 83 87C79.5 81.5 70 84 69.7 90.5C68.8 98.8 81.3 101.5 84 93.7C84.1 93.5 84 93.4 83.8 93.4H75.1C74.1 93.6 74.5 92.8 74.5 92.2C74.5 91.9 74.5 91.9 74.9 91.9H85.9C86.2 91.9 86.3 92 86.2 92.3C85.6 95.9 83.6 98.4 80.2 99.6C73.3 102.3 65.3 94.8 68.7 87.7C71.1 81 82.6 80.4 85 87.2ZM59.1 91.2C59.1 100.4 45.8 103.3 41.9 95C36.2 81.6 58.3 76.8 59.1 91.2ZM57.3 91.1C56.7 80.4 40.6 82.6 43 93C45.1 101.1 57.4 99.4 57.3 91.1ZM107.1 99.7C106.3 99.6 105.3 100 104.7 99.4C102.9 96.9 100.8 94.5 99.2 91.9C101.1 91.8 103.6 92 105 90.3C106 88.6 105.8 85.8 103.9 84.8C102 83.9 99.8 84.2 97.7 84.1C97.5 84.1 97.4 84.2 97.4 84.4V99C97.4 99.6 97.5 99.6 96.8 99.6C96.4 99.5 95.7 99.8 95.6 99.3V83.1C95.6 82.5 95.6 82.6 96.1 82.6C98.8 82.7 101.7 82.3 104.3 83.2C109.3 85.1 107.8 93.3 102.3 93.2C103.9 95.6 105.4 97.5 107.1 99.7ZM27.5 93.3L32.3 99.6C31.5 99.5 30.4 99.9 29.9 99.3C28 97 26.2 94.5 24.4 92C26 91.7 27.7 92 29.2 91.2C31.5 90 31.3 85.8 28.9 84.8C27 84 25 84.3 23 84.2C22.6 84.2 22.6 84.2 22.6 84.6V99C22.6 99.3 22.7 99.7 22.3 99.6C21.8 99.5 20.7 99.9 20.9 99V82.9C20.9 82.5 20.9 82.5 21.3 82.5C24.2 82.6 27.2 82.1 29.9 83.3C34.5 85.7 32.7 93.4 27.5 93.3ZM115 99.7C125.2 77 121.5 76.7 131.7 99.6C131.6 99.8 131.4 99.7 131.3 99.7C130.8 99.6 130 100 129.7 99.4C129 97.7 128.2 96 127.5 94.3C127.4 94.1 127.3 94 127 94H119.7C119.4 94 119.3 94.1 119.2 94.3C118.4 96 117.7 97.8 116.9 99.5C116.5 100 115.7 99.6 115 99.7ZM120 92.3C122 92.5 124 92.3 126 92.4C126.7 92.4 126.6 92.4 126.4 91.8C125.4 89.4 124.4 87.1 123.4 84.7C122.244 87.223 121.11 89.7564 120 92.3ZM0.3 91.2V83.1C0.3 82.7 0.3 82.7 0.7 82.7C3.4 82.8 6.1 82.4 8.7 83.2C12.7 84.3 12.7 91.2 8.8 92.4C1.1 94.4 2 89.4 2 99.1C2.2 100.1 1.1 99.7 0.5 99.7C0.3 99.7 0.2 99.6 0.2 99.4C0.3 96.7 0.3 93.9 0.3 91.2ZM2 87.8V90.8C2 91.2 2 91.3 2.5 91.2C5.9 91.3 11 91.6 9.8 86.5C9 83.3 4.9 84.4 2.4 84.2C2 84.2 2 84.2 2 84.6V87.8Z" fill="#252525"/>
<path d="M86.4001 56.3H93C93.6 56.3 93.5 56.3 93.5 56.8V59.7001C93.5 60.1001 93.5 60.1 93.1 60.1H79.6C79.4 60.1 79.3001 60 79.3001 59.8V56.6C79.3001 56.3 79.4 56.3 79.6 56.3H86.4001ZM32.5 71.5C29.4 71.6 29.4 66.6 32.5 66.7C35.7 66.5 35.7 71.6 32.5 71.5ZM101 69.1C101.1 72.2 96.1 72.2 96.2 69C96.1 65.8 101.2 66 101 69.1ZM69.3001 69.1C69.4001 72.2 64.3 72.2 64.5 69.1C64.4001 65.9 69.4001 66 69.3001 69.1ZM136.4 69.1C136.5 72.2 131.5 72.2 131.6 69C131.6 65.9 136.5 66 136.4 69.1ZM154 69.1C153.9 65.9 158.9 66 158.8 69.1C158.9 72.2 153.9 72.2 154 69.1Z" fill="#252525"/>
</g>
<defs>
<clipPath id="clip0_77_1289">
<rect width="159" height="100" fill="white"/>
</clipPath>
</defs>
</svg>
