<svg xmlns="http://www.w3.org/2000/svg" width="20" height="21" viewBox="0 0 20 21" fill="none">
  <path d="M3.33301 7.72214H6.11079V17.1666H3.33301V7.72214ZM4.71356 6.61103H4.69801C3.86912 6.61103 3.33301 5.99325 3.33301 5.22159C3.33301 4.43325 3.88579 3.83325 4.72967 3.83325C5.57467 3.83325 6.09523 4.43325 6.11079 5.22159C6.11079 5.9927 5.57467 6.61103 4.71356 6.61103ZM16.6663 17.1666H13.8886V12.1116C13.8886 10.8905 13.208 10.0571 12.1152 10.0571C11.2813 10.0571 10.8302 10.6194 10.6113 11.1627C10.5313 11.3571 10.5552 11.8949 10.5552 12.1666V17.1666H7.77745V7.72214H10.5552V9.17547C10.9558 8.55547 11.583 7.72214 13.1875 7.72214C15.1752 7.72214 16.6658 8.97214 16.6658 11.7633L16.6663 17.1666Z" fill="#B29E85"/>
</svg>