<svg width="88" height="121" viewBox="0 0 88 121" fill="none" xmlns="http://www.w3.org/2000/svg">
<path opacity="0.951" fill-rule="evenodd" clip-rule="evenodd" d="M36 0.538576C55.9643 -2.24405 69.131 5.75595 75.5 24.5386C75.9997 32.5317 76.1664 40.5317 76 48.5386C81.314 47.7783 85.147 49.7783 87.5 54.5386C88.167 74.5386 88.167 94.5386 87.5 114.539C86.333 117.039 84.5 118.872 82 120.039C56.6667 120.706 31.3333 120.706 6.00002 120.039C3.50002 118.872 1.66673 117.039 0.500025 114.539C-0.166675 94.5386 -0.166675 74.5386 0.500025 54.5386C2.85273 49.7783 6.68602 47.7783 12 48.5386C11.8336 40.5317 12.0003 32.5317 12.5 24.5386C15.849 12.0239 23.6824 4.02391 36 0.538576ZM37 9.53858C54.5341 7.58468 64.7007 15.2514 67.5 32.5386C67.9994 37.8615 68.166 43.1949 68 48.5386C52 48.5386 36 48.5386 20 48.5386C19.5501 40.0601 20.3835 31.7267 22.5 23.5386C25.7573 17.1743 30.5907 12.5076 37 9.53858ZM11 56.5386C33.3788 56.2161 55.7121 56.5494 78 57.5386C78.7508 58.4146 79.2508 59.4146 79.5 60.5386C80.1667 76.5386 80.1667 92.5386 79.5 108.539C79.2508 109.663 78.7508 110.663 78 111.539C55.3333 112.872 32.6667 112.872 10 111.539C9.24922 110.663 8.74922 109.663 8.50002 108.539C7.83332 92.5386 7.83332 76.5386 8.50002 60.5386C8.97962 58.9056 9.81292 57.5722 11 56.5386Z" fill="white"/>
</svg>
