<svg version="1.2" baseProfile="tiny" id="Layer_1" xmlns="http://www.w3.org/2000/svg" x="0" y="0" width="200" height="47.5" viewBox="0 0 200 47.5" overflow="visible" xml:space="preserve"><g fill="#4086DD"><path d="M18.1 34c-1 1.5-1.7 2.5-1.9 2.9-.5.7-1 1.4-1.6 2-2.1 2.4-4.4 3.3-8.1 3.3-2.1 0-3.3-.2-6.5-.9L.8 38c2.6.9 4 1.2 5.8 1.2 2.1 0 3.8-.6 5-1.7 1.1-1 1.4-1.4 3.1-4.1L7.5 6.5h3.8l6.2 23.2L32.6 6.5h4.1L18.1 34zM110.3 13.1c-.5-1.6-1-2.1-2.6-2.9-2.2-1.1-4.9-1.7-8-1.7-6.1 0-9.4 1.8-9.4 4.9 0 1.1.5 1.9 1.6 2.4 1 .5 2 .7 7 1.3 2 .3 3.5.4 4.3.5 2.2.3 3.7.6 4.8.9 2.8.9 4.3 2.8 4.3 5.2 0 2-.8 4-2.3 5.4-2.4 2.4-6.2 3.5-11.6 3.5-9 0-14.4-2.7-15.4-7.7l3.9-.6c.3 1 .5 1.4 1 2 1.8 2.1 6.1 3.4 10.9 3.4 5.8 0 10-2.3 10-5.4 0-.9-.5-1.8-1.3-2.3-.5-.4-1.1-.5-2.2-.7-1.9-.3-3.4-.6-8.6-1.1-4.1-.5-5.8-.9-7.4-1.9-1.6-1-2.4-2.5-2.4-4.4 0-2.1.9-4.1 2.5-5.4 2.2-1.9 5.4-2.7 10.5-2.7 4.4 0 7.7.6 10.4 1.9 1.6.7 2.8 1.8 3.5 3.2.3.5.4.8.6 1.7l-4.1.5zM133.9 5.8c-2.5 0-4.9.4-7.1 1.1-2 .7-2.9 1.3-4.6 2.9l.8-3.3h-3.4l-6.9 29.8h3.4l2-8.8c2.8 3.7 6.6 5.4 12.3 5.4 10 0 17.1-6.2 17.1-15.1 0-7.4-5.3-12-13.6-12zm-3.2 24c-6.7 0-10.7-3.2-10.7-8.7 0-3.8 1.6-7.4 4-9.5 2.2-1.8 5.5-2.8 9.3-2.8 6.7 0 10.5 3.3 10.5 9.1 0 7.2-5.3 11.9-13.1 11.9zM77.7 5.8L79 0h-3.4l-1.3 5.8H51.4c-4.9.1-9.1 1.5-12.1 4.1-3.2 2.8-5 6.6-5 10.7 0 7.3 5.9 12 14.9 12 9.9 0 17.4-6.4 17.4-14.9 0-2.6-.7-4.8-2-6.6H60c1.8 1.7 2.9 4 2.9 6.8 0 7-5.6 11.9-13.5 11.9-7.1 0-11.4-3.5-11.4-9.3 0-6.8 5.6-11.8 13.4-11.9v-.1H84l1.2-2.8-7.5.1z"/><path d="M73.2 26.5c0-.9.2-2.3.6-4.1l2.6-11.3H73L70.2 23c-.5 2-.7 3.2-.7 4.3 0 3.1 2.2 5.1 6 5.1 1 0 2.1-.1 3.3-.4l.6-2.9c-1.3.2-2 .3-2.8.3-2.4.1-3.4-.8-3.4-2.9zM188 26.5c0-.9.2-2.3.6-4.1l2.6-11.3h-3.4L185 23c-.5 2-.7 3.2-.7 4.3 0 3.1 2.2 5.1 6 5.1 1 0 2.1-.1 3.3-.4l.6-2.9c-1.3.2-2 .3-2.8.3-2.3.1-3.4-.8-3.4-2.9zM176.3 23.7c-2.2 3.8-6.6 6.1-12 6.1-6 0-9.9-2.4-11.1-6.7-1.5.2-2.7.3-3.7.5 1.4 5.6 6.9 9 14.6 9 7.6 0 13.8-3.8 16.2-9.4-1.1.3-2.5.4-4 .5z"/><path d="M192.5 5.8l1.3-5.8h-3.4l-1.3 5.8h-22.8c-4.9.1-9.1 1.5-12.1 4.1-3.2 2.8-5 6.6-5 10.7 0 .4 0 .8.1 1.1 1-.4 3.7-1.2 3.7-1.3 0-6.8 5.6-11.8 13.4-11.9h32.7l1-2.8h-7.5v.1z"/><g><path d="M161.1 16c-.1 1.7-6 3.3-6 3.3 8.8-2.4 17.1-2.9 17.1-2.9-3.7-2.9-11.1-.4-11.1-.4zM166.8 21.3c-2-.4-3.9-.6-5.6-.6-7.9 0-13.4 3.1-13.4 3.1s4-1.3 10.6-1.3c2 0 4.3.1 6.9.5 2.5.3 4.8.5 7 .5 7 0 11.7-1.3 11.7-1.3s-1.8.4-5.2.4c-3.1-.1-7.1-.4-12-1.3z"/><path d="M148.8 22.8c.7-.4 1.6-.7 2.8-1.1 1.5-.5 3.5-1 5.9-1.3.5-.1 1.1-.1 1.7-.2h.3c.6 0 1.1-.1 1.7-.1h.1c1.9 0 3.8.2 5.6.6.6.1 1.2.2 1.7.3h.1c3.5.6 6.9.9 10 .9 1.2 0 2.1-.1 3-.1 1.6-.3 2.5-.5 2.5-.5s-5.1 1-13.9-.3c1.2-.1 2-.2 2.4-.3 2.1-.7 6.5-4.1 6.5-4.1-13.1.2-25.4 3.6-25.4 3.6s1.1.1 2.8.2c-5.2.9-8.5 2.7-8.5 2.7s.3-.2.7-.3z"/></g><path d="M179.5 11.2h-4.6c1.4 1.3 2.3 2.9 2.8 4.8.8-.1 1.6-.1 2.3-.1h1l-.8.6c-.1.1-1.1.9-2.4 1.7-.1 1-.2 2-.5 3 .8.1 1.5.1 2.2.1h1.4c.3-1.1.5-2.3.5-3.5.1-2.6-.7-4.8-1.9-6.6z"/><g><path d="M25 45.7c-.2.3-.6.9-.7 1-.5.5-.9.7-1.7.7-.5 0-.7-.1-1.4-.2l.2-.7c.6.2.9.3 1.2.3.5 0 .8-.1 1.1-.4.3-.2.3-.3.7-.9l-1.5-5.7h.8l1.3 4.9 3.2-4.9h.9L25 45.7zM34.5 45.3c-.1 0-.1 0-.4.1h-.3c-.5 0-.8-.3-.8-.7v-.2c-.6.6-1.6.9-3 .9s-2.1-.6-2.1-1.6c0-.7.4-1.3 1.1-1.6.4-.2.8-.3 1.3-.3 1-.1 1.4-.2 3.1-.2h.3c.1-.3.1-.4.1-.5 0-.3-.1-.5-.3-.6-.4-.3-1-.4-1.9-.4-1.4 0-2 .4-2.2 1.2l-.8-.1c.2-.6.4-.8.7-1.1.5-.5 1.3-.7 2.4-.7 1.9 0 2.8.5 2.8 1.5 0 .2-.1.4-.1.7l-.5 2.1c-.1.2-.1.3-.1.4 0 .3.2.4.5.4h.3l-.1.7zm-1.7-3c-.7 0-1.7.1-2.3.1-.6.1-1 .2-1.3.3-.4.2-.6.6-.6 1 0 .7.5 1.1 1.6 1.1 1.3 0 2.3-.4 2.8-1.1l.3-.6c.1-.2.1-.3.2-.8h-.7zM40.8 41.7c-.3-.6-.5-.7-.9-1-.5-.3-.9-.4-1.5-.4-1.7 0-2.8 1-2.8 2.4 0 1.2.9 2 2.3 2 .8 0 1.5-.3 2-.7.3-.3.4-.4.7-.9l.7.3c-.9 1.3-1.9 1.9-3.5 1.9-1.8 0-3.1-1-3.1-2.6 0-1.8 1.5-3.2 3.5-3.2 1.4 0 2.5.6 3.1 1.7l-.5.5zM48.3 42.9l-.6 2.4H47l.6-2.4c.1-.4.2-.8.2-1 0-1-.7-1.5-2-1.5-.9 0-1.5.2-2 .7-.2.2-.4.4-.5.7-.3.2-.3.3-.5.8l-.6 2.7h-.7l1.8-7.8h.7l-.7 3.1c.5-.6 1.3-.9 2.4-.9 1.7 0 2.7.7 2.7 2 0 .3 0 .7-.1 1.2zM52.5 40.5H51l-.7 2.8c-.1.4-.2.7-.2.9 0 .5.2.6.8.6.2 0 .3 0 .6-.1l-.2.6c-.3.1-.5.1-.7.1-.8 0-1.3-.4-1.3-1.1 0-.3.1-.5.2-.9l.7-3h-1l.2-.6h1l.5-1.9.8-.4-.5 2.3h1.5l-.2.7zM52.4 45.3h-.7l1.3-5.4h.7l-1.3 5.4zm1.4-6.5h-.7l.3-1.1h.7l-.3 1.1zM60.1 42.9l-.6 2.4h-.7l.6-2.4c.1-.4.2-.8.2-1 0-1-.7-1.5-2-1.5-.9 0-1.5.2-2 .7-.2.2-.4.4-.5.7-.1.3-.2.4-.3.9l-.6 2.7h-.7l1.2-5.4h.7l-.2.8c.5-.6 1.3-.9 2.4-.9 1.7 0 2.7.7 2.7 2 0 .1-.1.5-.2 1zM66.9 44.7c-.1.3-.1.5-.2.7-.2.6-.3.9-.6 1.2-.5.6-1.5.8-2.7.8-1.8 0-2.8-.6-2.8-1.6v-.2h.8v.2c0 .7.7 1 2.2 1 .9 0 1.7-.3 2-.7.2-.3.4-.7.6-1.5-.4.3-.5.5-1 .6-.5.2-1 .3-1.5.3-1.8 0-2.9-1-2.9-2.5 0-.9.4-1.8 1.2-2.4.6-.5 1.5-.8 2.5-.8.9 0 1.5.2 2 .6.3.2.4.3.6.7l.2-1.1h.7l-1.1 4.7zm-2.5-4.4c-1.7 0-2.8 1-2.8 2.6 0 1.2.8 1.9 2.2 1.9.8 0 1.5-.2 2-.6s.8-1.2.8-2c.1-1.2-.8-1.9-2.2-1.9zM73.9 45.5c-1.9 0-3.2-1-3.2-2.6 0-.9.4-1.7 1.1-2.2.7-.6 1.6-.9 2.7-.9 1.9 0 3.1 1 3.1 2.6 0 1.7-1.6 3.1-3.7 3.1zm.8-5.2h-.3c-1.7 0-2.9 1.1-2.9 2.6 0 1.2.9 2 2.4 2 1.7 0 2.9-1.1 2.9-2.6 0-1.1-.8-2-2.1-2zM81.3 45.5c-1.2 0-2-.4-2.6-1.1l-.7 3h-.7l1.7-7.5h.7l-.2.7c.4-.4.6-.5 1-.6.5-.2 1-.3 1.5-.3 1.7 0 2.9 1 2.9 2.6 0 1.8-1.5 3.2-3.6 3.2zm.5-5.1c-.8 0-1.5.2-2 .6-.5.4-.8 1.2-.8 2 0 1.2.9 1.8 2.3 1.8 1.7 0 2.8-1 2.8-2.6 0-1.1-.8-1.8-2.3-1.8zM88.5 45.5c-1.2 0-2-.4-2.6-1.1l-.7 3h-.7l1.7-7.5h.8l-.2.7c.4-.4.6-.5 1-.6.5-.2 1-.3 1.5-.3 1.7 0 2.9 1 2.9 2.6-.1 1.8-1.5 3.2-3.7 3.2zm.6-5.1c-.8 0-1.5.2-2 .6-.5.4-.8 1.2-.8 2 0 1.2.9 1.8 2.3 1.8 1.7 0 2.8-1 2.8-2.6 0-1.1-.8-1.8-2.3-1.8zM95.6 45.5c-1.9 0-3.2-1-3.2-2.6 0-.9.4-1.7 1.1-2.2.7-.6 1.6-.9 2.7-.9 1.9 0 3.1 1 3.1 2.6 0 1.7-1.6 3.1-3.7 3.1zm.8-5.2h-.3c-1.7 0-2.9 1.1-2.9 2.6 0 1.2.9 2 2.4 2 1.7 0 2.9-1.1 2.9-2.6 0-1.1-.8-2-2.1-2zM104 40.5c-.3-.1-.5-.1-.7-.1-.7 0-1.3.2-1.8.6-.1.1-.3.2-.4.4-.2.3-.3.5-.5 1.1l-.6 2.8h-.7l1.2-5.4h.7l-.2.9c.3-.4.6-.6.9-.8.4-.2 1-.3 1.6-.3h.4l.1.8z"/><path d="M107 40.5h-1.5s-.8 3.5-.8 3.7c0 .5.2.6.8.6.2 0 .3 0 .6-.1l-.2.6c-.3.1-.5.1-.7.1-.8 0-1.3-.4-1.3-1.1 0-.3.8-3.9.8-3.9h-1l.2-.6h1l.5-1.9.8-.4-.5 2.3h1.5l-.2.7zM112.4 45.3h-.7l.2-.8c-.5.6-1.3.9-2.4.9-1.8 0-2.7-.7-2.7-2 0-.3.7-3.5.7-3.5h.7s-.7 3.2-.7 3.4c0 1 .7 1.5 2 1.5.9 0 1.5-.2 2-.7.2-.2.4-.4.5-.7.2-.3.2-.4.3-.9l.6-2.7h.7l-1.2 5.5zM120.2 42.9l-.6 2.4h-.7l.6-2.4c.1-.4.2-.8.2-1 0-1-.7-1.5-2-1.5-.9 0-1.5.2-2 .7-.2.2-.4.4-.5.7-.1.3-.2.4-.3.9l-.6 2.7h-.7l1.2-5.4h.7l-.2.8c.5-.6 1.3-.9 2.4-.9 1.7 0 2.7.7 2.7 2-.1.1-.1.5-.2 1zM121.4 45.3h-.7l1.3-5.4h.7l-1.3 5.4zm1.4-6.5h-.7l.3-1.1h.7l-.3 1.1zM126.1 40.5h-1.5s-.8 3.5-.8 3.7c0 .5.2.6.8.6.2 0 .3 0 .6-.1l-.2.6c-.3.1-.5.1-.7.1-.8 0-1.3-.4-1.3-1.1 0-.3.8-3.9.8-3.9h-1l.2-.6h1l.5-1.9.8-.4-.5 2.3h1.5l-.2.7zM126 45.3h-.7l1.3-5.4h.7l-1.3 5.4zm1.5-6.5h-.7l.3-1.1h.7l-.3 1.1zM133.5 42.7H128v.3c0 1.1.9 1.9 2.2 1.9 1.1 0 1.9-.5 2.6-1.4l.5.4c-.8 1.1-1.8 1.6-3.2 1.6-1.7 0-2.9-1-2.9-2.6 0-1.9 1.4-3.2 3.4-3.2 1.8 0 2.9 1 2.9 2.6v.4zm-2.9-2.4c-1.2 0-2.1.7-2.4 1.7h4.6c-.2-1.1-.9-1.7-2.2-1.7zM139.4 41.3c-.1-.3-.2-.5-.6-.6-.5-.3-1-.4-1.7-.4-1.3 0-2 .4-2 1.1 0 .3.1.4.3.5.2.1.4.2 1.5.3.4.1.8.1.9.1.5.1.8.1 1 .2.6.2.9.6.9 1.1 0 .4-.2.8-.5 1.2-.5.5-1.3.8-2.4.8-1.9 0-3.1-.6-3.3-1.6l.8-.2c.1.2.1.3.2.4.4.5 1.3.7 2.3.7 1.2 0 2.1-.5 2.1-1.2 0-.2-.1-.4-.3-.5-.1-.1-.3-.1-.5-.2-.4-.1-.7-.1-1.8-.3-.9-.1-1.2-.2-1.6-.4-.4-.2-.5-.5-.5-.9 0-.5.2-.9.5-1.2.5-.4 1.2-.6 2.2-.6.9 0 1.6.1 2.2.4.4.2.6.4.8.7.1.1.1.2.2.4l-.7.2zM150.6 45.3c-.2 0-.5-.1-.6-.1-.2-.1-.5-.2-.7-.4-.3-.2-.4-.3-.7-.5-.9.7-1.9 1.1-3.1 1.1-1.6 0-2.5-.8-2.5-2 0-.5.1-.9.4-1.2.3-.4.6-.6 1.2-.9.4-.2.6-.3 1.3-.5-.4-.6-.6-1.1-.6-1.5 0-1.1.8-1.8 2-1.8 1.1 0 1.8.6 1.8 1.5 0 .4-.2.8-.5 1.1-.2.2-.4.4-.6.5-.4.2-.4.3-1.2.6.4.6.5.7.8 1.1.4.5.5.6 1 1.1l.1-.1c.3-.4.5-.6.7-1 .2-.4.3-.6.5-1.2h.7c-.2.6-.4 1.1-.7 1.6-.3.5-.6.8-.8 1.1l.2.1c.6.4.8.6 1.3.7v.7zm-3.6-2.7c-.4-.5-.5-.7-.8-1.1-.7.2-1 .3-1.3.5-.8.4-1.1.8-1.1 1.4 0 .9.7 1.4 1.8 1.4.7 0 1.5-.2 2.1-.6.2-.1.3-.2.5-.3-.5-.4-.6-.6-1.2-1.3zm.3-4.4c-.8 0-1.2.4-1.2 1.1 0 .2.1.4.1.6.1.3.2.4.5.8.2-.1.3-.1.4-.1.5-.2.9-.4 1.1-.7.3-.3.4-.6.4-.8-.1-.5-.6-.9-1.3-.9zM157.6 40.5h-1.5s-.8 3.5-.8 3.7c0 .5.2.6.8.6.2 0 .3 0 .6-.1l-.2.6c-.3.1-.5.1-.7.1-.8 0-1.3-.4-1.3-1.1 0-.3.8-3.9.8-3.9h-1l.2-.6h1l.5-1.9.8-.4-.5 2.3h1.5l-.2.7z"/><path d="M161.2 40.5c-.3-.1-.5-.1-.7-.1-.7 0-1.3.2-1.8.6-.1.1-.3.2-.4.4-.2.3-.3.5-.5 1.1l-.6 2.8h-.7l1.2-5.4h.7l-.2.9c.3-.4.6-.6.9-.8.4-.2 1-.3 1.6-.3h.4l.1.8zM167.1 45.3c-.1 0-.1 0-.4.1h-.3c-.5 0-.8-.3-.8-.7v-.2c-.6.6-1.6.9-3 .9s-2.1-.6-2.1-1.6c0-.7.4-1.3 1.1-1.6.4-.2.8-.3 1.3-.3 1-.1 1.4-.2 3.1-.2h.3c.1-.3.1-.4.1-.5 0-.3-.1-.5-.4-.6-.4-.2-1.1-.4-1.9-.4-1.4 0-2 .4-2.2 1.2l-.8-.1c.2-.6.4-.8.7-1.1.5-.5 1.3-.7 2.4-.7 1.9 0 2.8.5 2.8 1.5 0 .2-.1.4-.1.7l-.5 2.1c-.1.2-.1.3-.1.4 0 .3.2.4.5.4h.3v.7zm-1.6-3c-.7 0-1.7.1-2.3.1-.6.1-1 .2-1.3.3-.4.2-.6.6-.6 1 0 .7.5 1.1 1.6 1.1 1.3 0 2.3-.4 2.8-1.1l.3-.6c.1-.2.1-.3.2-.8h-.7zM168.1 45.3h-.7l1.3-5.4h.7l-1.3 5.4zm1.4-6.5h-.7l.3-1.1h.7l-.3 1.1zM175.3 45.3h-.7s.7-3.2.7-3.4c0-1-.7-1.5-2-1.5-.9 0-1.5.2-2 .7-.2.2-.4.4-.5.7-.1.3-.2.4-.3.9l-.6 2.7h-.7l1.2-5.4h.7l-.2.8c.5-.6 1.3-.9 2.4-.9 1.7 0 2.7.7 2.7 2 0 .1-.7 3.4-.7 3.4zM177 45.3h-.7l1.3-5.4h.7l-1.3 5.4zm1.6-6.5h-.7l.3-1.1h.7l-.3 1.1zM184.3 45.3h-.7s.7-3.2.7-3.4c0-1-.7-1.5-2-1.5-.9 0-1.5.2-2 .7-.2.2-.4.4-.5.7-.1.3-.9 3.6-.9 3.6h-.7l1.2-5.4h.7l-.2.8c.5-.6 1.3-.9 2.4-.9 1.7 0 2.7.7 2.7 2 0 .1-.7 3.4-.7 3.4zM191.4 45.5c-.2.6-.3.9-.6 1.2-.5.6-1.5.8-2.7.8-1.8 0-2.8-.6-2.8-1.6v-.2h.8v.2c0 .7.7 1 2.2 1 .9 0 1.7-.3 2-.7.2-.3.4-.7.6-1.5-.4.3-.5.5-1 .6-.5.2-1 .3-1.5.3-1.8 0-2.9-1-2.9-2.5 0-.9.4-1.8 1.2-2.4.6-.5 1.5-.8 2.5-.8.9 0 1.5.2 2 .6.3.2.4.3.6.7l.2-1.1h.7c0-.2-1.3 5.2-1.3 5.4zm-2.3-5.2c-1.7 0-2.8 1-2.8 2.6 0 1.2.8 1.9 2.2 1.9.8 0 1.5-.2 2-.6s.8-1.2.8-2c.1-1.2-.8-1.9-2.2-1.9z"/></g></g></svg>