<svg width="135" height="105" viewBox="0 0 135 105" fill="none" xmlns="http://www.w3.org/2000/svg">
<g clip-path="url(#clip0_77_1161)">
<path d="M27.2634 5.12402C26.7634 5.82402 26.9634 6.12402 27.3634 6.62402C27.6634 6.02402 27.6634 5.52402 27.2634 5.12402Z" fill="#252525"/>
<path d="M31.7765 5.12402C32.2765 5.82402 32.0765 6.12402 31.6765 6.62402C31.2765 6.02402 31.3765 5.52402 31.7765 5.12402Z" fill="#252525"/>
<path d="M24.5656 4.91884C24.9656 4.91884 24.9656 4.31886 24.5656 4.31886C24.1656 4.21886 24.1656 4.91884 24.5656 4.91884Z" fill="#252525"/>
<path d="M24.7699 5.38301C24.7699 4.98301 24.1699 4.98301 24.1699 5.38301C24.1699 5.78301 24.7699 5.68301 24.7699 5.38301Z" fill="#252525"/>
<path d="M24.9184 6.04414C24.9184 5.64414 24.3184 5.64414 24.3184 6.04414C24.3184 6.44414 24.9184 6.44414 24.9184 6.04414Z" fill="#252525"/>
<path d="M26.3537 3.37292C26.7537 3.37292 26.7537 2.77295 26.3537 2.77295C25.9537 2.77295 25.9537 3.37292 26.3537 3.37292Z" fill="#252525"/>
<path d="M25.4963 3.63904C25.8963 3.63904 25.8963 3.03906 25.4963 3.03906C25.0963 3.03906 25.0963 3.63904 25.4963 3.63904Z" fill="#252525"/>
<path d="M25 4.21699C25.4 4.21699 25.4 3.61696 25 3.61696C24.5 3.51696 24.5 4.21699 25 4.21699Z" fill="#252525"/>
<path d="M27.1496 3.49988C27.5496 3.49988 27.5496 2.8999 27.1496 2.8999C26.7496 2.8999 26.7496 3.49988 27.1496 3.49988Z" fill="#252525"/>
<path d="M27.9064 3.68011C28.3064 3.68011 28.3064 3.08008 27.9064 3.08008C27.5064 3.08008 27.5064 3.78011 27.9064 3.68011Z" fill="#252525"/>
<path d="M28.6184 4.04706C29.0184 4.04706 29.0184 3.44702 28.6184 3.44702C28.2184 3.44702 28.2184 4.04706 28.6184 4.04706Z" fill="#252525"/>
<path d="M34.0596 4.52412C34.0596 4.92412 34.6596 4.92412 34.6596 4.52412C34.7596 4.12412 34.0596 4.12412 34.0596 4.52412Z" fill="#252525"/>
<path d="M34.5656 4.98804C34.1656 4.98804 34.1656 5.58807 34.5656 5.58807C34.9656 5.68807 34.9656 4.98804 34.5656 4.98804Z" fill="#252525"/>
<path d="M34.3166 5.75C33.9166 5.75 33.9166 6.35004 34.3166 6.35004C34.8166 6.45004 34.8166 5.75 34.3166 5.75Z" fill="#252525"/>
<path d="M32.677 3.37292C33.077 3.37292 33.077 2.77295 32.677 2.77295C32.277 2.77295 32.277 3.37292 32.677 3.37292Z" fill="#252525"/>
<path d="M33.435 3.63904C33.835 3.63904 33.835 3.03906 33.435 3.03906C33.035 3.03906 33.035 3.63904 33.435 3.63904Z" fill="#252525"/>
<path d="M34.1311 4.21699C34.5311 4.21699 34.5311 3.61696 34.1311 3.61696C33.7311 3.51696 33.7311 4.21699 34.1311 4.21699Z" fill="#252525"/>
<path d="M31.8801 3.5C32.2801 3.5 32.2801 2.90002 31.8801 2.90002C31.4801 2.90002 31.4801 3.5 31.8801 3.5Z" fill="#252525"/>
<path d="M31.124 3.67999C31.524 3.67999 31.524 3.07996 31.124 3.07996C30.724 3.07996 30.724 3.77999 31.124 3.67999Z" fill="#252525"/>
<path d="M30.1084 3.75215C30.1084 4.15215 30.7084 4.15215 30.7084 3.75215C30.7084 3.35215 30.1084 3.35215 30.1084 3.75215Z" fill="#252525"/>
<path d="M28.9951 5.40192H29.2951V4.10193C29.1951 4.10193 29.0951 4.00195 28.9951 4.00195V5.40192Z" fill="#252525"/>
<path d="M30.0373 4.01392C29.9373 4.01392 29.8373 4.11395 29.7373 4.11395V5.41394H30.0373V4.01392Z" fill="#252525"/>
<path d="M29.3195 2.55493V1.75488C28.9195 1.85488 28.6195 2.15493 28.5195 2.55493H29.3195Z" fill="#252525"/>
<path d="M29.7161 2.55505H30.5161C30.4161 2.15505 30.1161 1.855 29.7161 1.755V2.55505Z" fill="#252525"/>
<path d="M28.5801 2.88196C28.7801 3.88196 30.2801 3.88196 30.4801 2.88196H28.5801Z" fill="#252525"/>
<path d="M30.04 1.65204C29.84 1.45204 29.64 1.25209 29.64 0.952087C29.84 0.952087 30.14 1.15205 30.34 1.35205V0.252075C30.14 0.452075 29.94 0.652039 29.64 0.652039C29.64 0.452039 29.84 0.152051 30.04 -0.147949H29.04C29.24 0.152051 29.44 0.352039 29.44 0.652039C29.24 0.652039 28.94 0.452075 28.74 0.252075V1.35205C28.94 1.15205 29.14 0.952087 29.44 0.952087C29.44 1.25209 29.24 1.45204 29.04 1.65204H30.04Z" fill="#252525"/>
<path d="M31.1631 22.8021C30.1631 22.6021 29.0631 22.102 27.9631 21.702C28.0631 21.102 27.3631 20.5021 26.8631 20.8021C25.9631 20.0021 25.3631 18.8021 25.1631 17.6021C25.1631 17.9021 24.7631 18.3021 24.1631 18.3021C24.1631 18.2021 24.1631 18.1021 24.0631 18.1021C23.8631 18.3021 23.6631 18.5021 23.1631 18.3021C23.4631 19.9021 24.2631 21.4021 25.5631 22.5021C25.4631 23.1021 26.2631 23.8021 26.8631 23.3021C28.7631 24.3021 31.2631 24.9021 33.0631 23.1021C32.4631 23.1021 31.7631 23.0021 31.1631 22.8021ZM27.5631 21.3021C27.1631 20.9021 26.8631 21.3021 26.6631 21.6021C27.1631 22.0021 26.8631 22.4021 26.3631 22.0021C25.9631 22.6021 25.9631 22.7021 26.6631 23.0021C25.7631 23.4021 25.4631 22.2021 25.9631 21.6021C25.8631 21.5021 25.8631 21.4021 25.7631 21.3021C25.8631 21.3021 25.9631 21.402 26.0631 21.402C26.3631 20.902 27.5631 20.502 27.6631 21.402C27.7631 21.402 27.6631 21.4021 27.5631 21.3021ZM28.2631 23.202C27.7631 23.202 27.7631 22.302 28.2631 22.402C28.8631 22.402 28.7631 23.202 28.2631 23.202ZM30.0631 23.8021C29.5631 23.8021 29.5631 23.0021 30.0631 23.0021C30.5631 23.0021 30.5631 23.8021 30.0631 23.8021Z" fill="#252525"/>
<path d="M30.5643 25.6681H30.3643V24.4681C29.8643 24.4681 29.2643 24.3681 28.6643 24.2681V25.6681C27.7643 25.3681 27.5643 26.6681 28.1643 27.0681C28.6643 26.0681 28.3643 27.7681 29.0643 27.7681C28.7643 28.5681 30.1643 28.5681 29.8643 27.7681C30.5643 27.7681 30.3643 26.0681 30.7643 27.0681C31.1643 26.7681 31.4643 25.6681 30.5643 25.6681ZM29.4643 28.2681C29.1643 28.2681 29.1643 27.7681 29.4643 27.7681C29.7643 27.7681 29.8643 28.2681 29.4643 28.2681ZM30.8643 26.7681C30.2643 25.7681 30.1643 28.568 29.5643 27.368C29.5643 27.168 29.7643 26.868 29.4643 26.868C29.1643 26.868 29.2643 27.168 29.3643 27.368C28.6643 28.568 28.6643 25.8681 28.0643 26.7681C27.8643 26.3681 27.8643 25.968 28.3643 25.868C28.8643 25.868 28.7643 26.5681 29.0643 26.5681C29.7643 26.2681 28.1643 25.768 29.4643 24.868C30.7643 25.668 29.1643 26.2681 29.8643 26.5681C30.0643 26.5681 29.9643 25.868 30.5643 25.868C30.8643 25.868 30.9643 26.1681 30.9643 26.2681C31.0643 26.4681 30.9643 26.5681 30.8643 26.7681Z" fill="#252525"/>
<path d="M44.25 27.086C41.15 27.986 36.25 20.586 33.75 24.686C32.4501 26.986 32.65 26.686 34.55 28.086C31.65 29.186 27.55 29.186 24.65 28.086C26.35 26.486 26.9501 27.386 25.4501 24.686C22.9501 20.586 18.15 28.086 15.05 27.086C18.25 31.286 20.55 26.286 24.15 25.686C22.65 26.686 23.5501 27.886 23.9501 29.186C24.4501 32.386 32.15 31.486 34.25 30.686C35.55 29.986 35.05 29.386 35.55 28.386C36.25 27.386 36.25 26.386 35.15 25.686C38.75 26.286 40.55 30.886 44.25 27.286C44.15 27.186 44.25 27.186 44.25 27.086Z" fill="#252525"/>
<path d="M36.0703 16.152C35.4703 15.752 34.8703 14.152 34.5703 13.652C34.1703 13.152 34.7703 12.852 34.8703 12.452C34.3703 11.552 33.5703 10.752 32.7703 10.252C33.2703 10.052 33.5703 9.25205 32.9703 8.85205C33.2703 7.95205 33.7703 6.95203 34.1703 6.45203L33.2703 6.05206C33.4703 6.35206 33.4703 6.85206 33.4703 7.05206C33.2703 6.85206 33.0703 6.65205 32.9703 6.35205C32.9703 6.65205 32.7703 7.05201 32.6703 7.25201C32.8703 7.15201 33.0703 7.05204 33.3703 7.15204C33.2703 7.65204 31.7703 7.75206 31.6703 7.05206C31.6703 6.55206 32.3703 6.75204 32.0703 7.15204C32.9703 6.35204 31.8703 5.65205 31.4703 6.85205C31.2703 5.55205 30.2703 6.15206 30.7703 7.05206C30.7703 6.55206 31.2703 6.55203 31.2703 6.95203C31.0703 7.55203 29.4703 7.55206 29.4703 6.55206C29.6703 6.55206 30.0703 6.75203 30.2703 6.95203V5.75201C30.0703 6.05201 29.7703 6.15204 29.4703 6.15204C29.5703 5.85204 29.7703 5.55205 30.0703 5.35205H28.4703C28.7703 5.55205 29.0703 5.85204 29.0703 6.15204C28.8703 6.15204 28.4703 5.95201 28.2703 5.75201V6.95203C28.4703 6.75203 28.7703 6.55206 29.0703 6.55206C28.9703 7.55206 27.4703 7.65203 27.2703 6.95203C27.2703 6.45203 27.7703 6.55206 27.7703 7.05206C28.2703 6.15206 27.2703 5.55205 27.0703 6.85205C26.6703 5.65205 25.6703 6.35204 26.4703 7.15204C26.2703 6.75204 26.9703 6.45206 26.8703 7.05206C26.7703 7.75206 25.2703 7.65204 25.1703 7.15204C25.4703 7.05204 25.5703 7.05201 25.8703 7.25201C25.7703 7.05201 25.5703 6.55205 25.5703 6.35205C25.4703 6.65205 25.2703 6.85206 25.0703 7.05206C25.0703 6.85206 25.0703 6.35206 25.2703 6.05206L24.3703 6.45203C24.7703 6.85203 25.2703 7.95205 25.5703 8.85205C25.0703 9.25205 25.3703 10.052 25.7703 10.252C24.5703 11.052 23.5703 12.252 23.0703 13.752C23.4703 14.152 24.1703 14.8521 24.1703 15.3521C24.1703 15.9521 24.6703 16.152 24.6703 16.752H29.0703V21.5521C28.8703 21.5521 28.7703 21.652 28.5703 21.752C29.0703 21.952 29.5703 22.152 30.0703 22.252C30.0703 21.952 30.1703 21.7521 30.3703 21.5521C30.3703 21.5521 29.7703 21.452 29.3703 21.452V16.752H33.6703C33.5703 20.752 31.0703 20.4521 30.4703 22.3521C31.4703 22.6521 32.9703 22.852 32.8703 22.652C34.7703 21.252 35.6703 18.8521 35.6703 16.5521C36.0703 16.4521 36.0703 16.352 36.0703 16.152ZM29.4703 16.5521H25.0703C25.0703 14.0521 26.8703 11.552 29.4703 11.452V16.5521ZM29.4703 9.25201C27.9703 9.25201 26.9703 9.65206 26.4703 10.0521C24.6703 8.75206 28.1703 8.45206 29.4703 8.55206C30.7703 8.55206 34.2703 8.75206 32.4703 10.0521C31.9703 9.75206 30.9703 9.25201 29.4703 9.25201ZM29.6703 16.5521V11.452C32.1703 11.552 33.9703 14.1521 33.9703 16.5521H29.6703Z" fill="#252525"/>
<path d="M16.617 3.73206C16.617 3.43206 16.217 3.53206 16.217 3.73206C16.217 4.03206 16.617 4.03206 16.617 3.73206Z" fill="#252525"/>
<path d="M16.5396 3.1161C16.5396 2.8161 16.1396 2.9161 16.1396 3.1161C16.1396 3.4161 16.6396 3.5161 16.5396 3.1161Z" fill="#252525"/>
<path d="M16.6646 2.87506C16.9646 2.87506 16.9646 2.4751 16.6646 2.4751C16.4646 2.4751 16.4646 2.87506 16.6646 2.87506Z" fill="#252525"/>
<path d="M17.2486 2.91412C17.5486 2.91412 17.4486 2.51416 17.2486 2.51416C17.0486 2.51416 17.0486 2.91412 17.2486 2.91412Z" fill="#252525"/>
<path d="M19.8404 2.4199C20.0404 2.6199 20.3404 2.31991 20.1404 2.11991C19.9404 1.91991 19.6404 2.2199 19.8404 2.4199Z" fill="#252525"/>
<path d="M19.7917 1.98704C20.0917 1.78704 19.6917 1.48705 19.4917 1.68705C19.1917 1.88705 19.5917 2.18704 19.7917 1.98704Z" fill="#252525"/>
<path d="M19.2097 1.88206C19.4097 1.68206 19.1097 1.38207 18.9097 1.58207C18.7097 1.78207 19.0097 2.08206 19.2097 1.88206Z" fill="#252525"/>
<path d="M18.7136 2.21311C18.9136 2.01311 18.6136 1.71313 18.4136 1.91313C18.2136 2.21313 18.5136 2.51311 18.7136 2.21311Z" fill="#252525"/>
<path d="M17.2151 1.91504L17.4151 2.315L17.6151 2.01501C17.5151 3.31501 18.8151 2.71501 17.7151 2.01501H18.1151L18.0151 1.61505L17.7151 1.815V1.41504L17.3151 1.51501L17.5151 1.815L17.2151 1.91504Z" fill="#252525"/>
<path d="M19.8553 2.63202C19.9553 2.73202 19.9553 2.83207 19.9553 2.93207C19.8553 2.93207 19.8553 2.83206 19.7553 2.73206V3.23206L19.9553 3.03204C19.8553 4.13204 18.9553 3.03206 19.6553 3.23206C19.6553 2.93206 19.4553 2.93204 19.3553 3.03204C19.4553 2.73204 19.4553 2.53203 19.1553 2.33203C18.9553 2.63203 19.0553 2.73204 19.2553 3.03204C19.0553 2.93204 18.8553 3.13203 19.0553 3.33203C19.0553 3.13203 19.2553 3.23203 19.2553 3.33203C19.3553 3.73203 18.4553 3.93207 18.4553 3.43207C18.5553 3.43207 18.6553 3.43204 18.8553 3.53204L18.7553 3.03204C18.6553 3.23204 18.5553 3.23203 18.4553 3.33203C18.4553 3.23203 18.5553 2.93207 18.5553 2.93207L17.9553 3.13202C17.9553 3.13202 18.2553 3.23203 18.3553 3.33203C18.2553 3.33203 18.1553 3.43203 17.9553 3.33203L18.1553 3.83203C18.1553 3.63203 18.2553 3.53204 18.3553 3.53204C18.6553 3.83204 17.9553 4.33204 17.6553 4.03204C17.5553 3.93204 17.6553 3.73203 17.8553 3.83203C17.8553 3.53203 17.5553 3.53206 17.5553 3.73206C17.5553 3.43206 17.4553 3.23202 17.1553 3.13202C17.0553 3.43202 17.1553 3.63206 17.4553 3.73206C17.2553 3.73206 17.1553 3.83204 17.3553 4.03204C17.6553 3.43204 17.7553 4.83202 16.9553 4.13202H17.2553L16.9553 3.73206V4.03204C16.8553 3.93204 16.8553 3.93206 16.8553 3.73206L16.6553 3.93207C16.8553 4.03207 17.1553 4.33206 17.4553 4.73206C18.2553 4.23206 19.2553 3.73202 20.2553 3.63202C20.1553 3.03202 20.2553 2.73207 20.2553 2.43207L19.8553 2.63202Z" fill="#252525"/>
<path d="M24.6683 16.7739C24.7683 16.5739 24.3683 16.2739 24.2683 15.9739C24.2683 14.8739 22.3683 13.4739 21.7683 12.5739C22.2683 12.4739 22.5683 13.0739 23.0683 13.3739C23.4683 12.3739 24.0683 11.5739 24.7683 10.7739C24.5683 10.8739 24.1683 10.8739 23.9683 11.0739C23.9683 10.6739 23.9683 10.3739 23.7683 10.0739C23.8683 9.47391 23.7683 8.87391 22.5683 8.07391C23.1683 8.17391 23.5683 8.7739 24.0683 8.3739C23.6683 8.3739 23.6683 7.47389 22.0683 6.67389C22.6683 6.67389 23.0683 7.57391 23.7683 7.07391C23.0683 6.97391 22.8683 5.87394 21.7683 5.47394C22.1683 5.47394 22.5683 5.67393 22.9683 5.27393C22.5683 5.37393 22.2683 4.97394 21.8683 4.97394C22.0683 4.47394 21.9683 4.17393 21.8683 3.77393C21.5683 3.77393 21.2683 3.87391 21.0683 4.07391C21.0683 3.77391 20.7683 3.77393 20.4683 3.77393C20.5683 4.37393 19.5683 4.17391 18.9683 4.57391C18.2683 4.77391 17.7683 5.57389 17.3683 5.17389C17.1683 5.37389 16.9683 5.57393 17.1683 5.77393C16.8683 5.77393 16.5683 5.87391 16.2683 6.07391C16.2683 6.37391 16.5683 6.77394 16.9683 6.97394C16.2683 7.67394 16.8683 8.37394 16.2683 8.97394C17.1683 8.97394 16.9683 7.77391 17.4683 7.57391C17.4683 8.47391 16.9683 8.57391 16.9683 9.57391C16.9683 10.0739 17.2683 10.5739 16.9683 10.9739C17.7683 10.7739 17.5683 9.07391 17.9683 8.57391C18.0683 8.87391 17.9683 9.1739 17.8683 9.3739C17.5683 10.1739 17.8683 11.1739 17.4683 11.4739C18.2683 11.3739 18.3683 10.1739 18.9683 9.77393C18.4683 11.3739 14.3683 21.3739 12.8683 17.2739C12.8683 15.2739 16.2683 13.8739 16.2683 11.7739C16.1683 10.2739 14.8683 10.1739 13.9683 10.8739C12.4683 10.1739 12.6683 12.9739 11.5683 12.8739C11.9683 13.0739 12.6683 12.6739 13.1683 12.0739C12.9683 13.4739 10.9683 13.0739 11.1683 14.7739C11.3683 13.4739 15.7683 13.2739 14.3683 11.0739C14.9683 10.6739 15.7683 10.7739 15.7683 11.7739C15.8683 13.6739 11.1683 15.6739 12.6683 18.1739C12.4683 18.2739 12.1683 18.2739 11.9683 17.9739C11.9683 18.5739 12.7683 18.8739 13.2683 18.5739C13.3683 18.5739 13.4683 18.6739 13.5683 18.6739C13.4683 19.0739 12.8683 19.2739 12.6683 19.1739C13.4683 19.8739 14.9683 18.9739 14.8683 18.2739C15.5683 17.7739 15.9683 16.7739 16.4683 16.2739C16.1683 17.4739 15.3683 18.1739 15.3683 19.4739C15.2683 20.4739 14.7683 21.3739 14.0683 21.3739C13.5683 21.1739 13.3683 21.2739 13.5683 21.7739C13.0683 22.5739 12.9683 23.1739 13.1683 24.2739C13.3683 24.1739 13.6683 23.7739 13.7683 23.3739C13.9683 24.4739 13.2683 24.4739 13.7683 25.4739C13.8683 25.1739 14.1683 24.9739 14.3683 25.1739C14.5683 25.2739 14.4683 25.3739 14.3683 25.5739C14.2683 25.6739 14.0683 26.4739 14.7683 26.4739C14.4683 25.8739 15.7683 26.2739 16.0683 26.2739C16.3683 26.2739 16.4683 25.8739 16.7683 25.8739C16.9683 25.8739 16.9683 26.0739 16.9683 26.1739C17.6683 26.0739 17.3683 25.4739 17.3683 25.1739C17.4683 25.0739 17.9683 25.1739 17.7683 25.5739C18.3683 25.4739 18.1683 24.4739 17.5683 24.6739C17.4683 24.4739 17.2683 24.3739 16.9683 24.3739C16.3683 24.3739 16.4683 24.7739 16.0683 24.7739C15.4683 24.7739 14.8683 23.9739 14.8683 22.6739C15.6683 20.7739 19.0683 21.5739 18.6683 17.1739C19.9683 17.9739 19.6683 19.4739 18.6683 19.7739C18.6683 19.8739 18.7683 19.9739 18.8683 20.0739C19.3683 20.5739 19.1683 21.2739 19.9683 21.8739V21.0739C20.5683 21.3739 20.0683 22.5739 21.2683 22.5739C20.8683 22.0739 21.3683 21.7739 21.6683 22.4739C21.8683 22.7739 21.8683 22.7739 22.3683 22.7739C22.9683 22.7739 22.6683 22.5739 22.9683 22.5739C23.2683 22.5739 23.2683 22.8739 23.0683 23.1739C23.5683 23.0739 23.6683 22.6739 23.4683 22.2739C23.8683 22.0739 24.1683 22.3739 24.1683 22.5739C24.5683 22.1739 24.1683 21.6739 23.8683 21.5739C23.6683 20.8739 22.8683 21.2739 22.4683 21.5739C16.6683 18.8739 25.3683 19.0739 19.5683 15.6739C19.8683 15.2739 20.8683 15.1739 21.4683 15.4739C21.5683 15.1739 21.7683 15.2739 21.7683 14.6739C21.9683 15.1739 21.7683 15.5739 21.9683 15.7739C22.1683 15.5739 22.5683 15.5739 22.5683 14.9739C22.6683 15.3739 22.3683 15.8739 22.6683 16.1739C22.7683 15.6739 23.1683 15.6739 23.2683 16.0739C23.2683 16.4739 22.6683 16.2739 22.6683 16.8739C22.6683 17.0739 22.9683 17.1739 22.9683 17.2739C22.9683 17.3739 22.7683 17.5739 22.4683 17.4739C22.6683 18.0739 23.3683 17.8739 23.5683 17.3739C23.6683 17.6739 23.5683 18.0739 23.3683 18.0739C23.5683 18.1739 24.1683 18.0739 24.1683 17.2739C24.4683 17.3739 24.6683 17.5739 24.4683 17.9739C25.1683 17.5739 24.6683 17.2739 24.6683 16.7739ZM18.2683 6.47394C17.9683 6.47394 17.9683 6.17391 17.3683 6.07391C17.7683 5.97391 18.2683 5.77389 18.6683 5.67389C18.8683 5.97389 18.6683 6.47394 18.2683 6.47394ZM20.4683 8.77393C19.8683 9.07393 19.4683 8.1739 19.6683 7.8739C20.0683 7.4739 19.6683 6.97393 19.1683 7.27393C19.2683 7.07393 19.2683 6.8739 19.1683 6.8739C18.9683 6.8739 18.9683 7.27389 18.8683 7.17389C18.7683 6.97389 18.8683 6.57391 19.0683 6.57391C19.4683 6.47391 20.6683 5.67394 20.7683 6.47394C20.6683 6.57394 20.4683 6.37394 20.2683 6.47394C20.1683 6.57394 20.2683 6.67393 20.4683 6.77393C19.8683 6.97393 19.8683 7.57391 20.4683 7.57391C20.7683 7.67391 21.0683 8.57393 20.4683 8.77393ZM20.5683 5.57391C20.2683 5.77391 19.8683 5.57393 19.6683 5.27393C20.0683 5.07393 20.5683 4.87389 20.8683 4.67389C20.5683 5.17389 20.7683 5.37391 20.5683 5.57391Z" fill="#252525"/>
<path d="M46.426 22.265C46.426 23.465 48.326 23.565 48.326 22.265C48.426 20.965 46.426 20.965 46.426 22.265ZM46.626 22.265C46.626 21.365 48.126 21.265 48.126 22.265C48.126 23.165 46.626 23.165 46.626 22.265Z" fill="#252525"/>
<path d="M42.8936 23.0931C42.1936 23.6931 43.1936 24.4931 43.7936 24.0931C44.6936 23.5931 43.4936 22.5931 42.8936 23.0931ZM43.2936 23.9931C42.5936 23.8931 42.8936 23.0931 43.3936 23.2931C44.0936 23.2931 43.8936 24.0931 43.2936 23.9931Z" fill="#252525"/>
<path d="M37.5814 9.67194C37.2814 9.87194 37.1814 10.272 37.3814 10.572C38.5814 11.472 39.0814 8.87194 37.5814 9.67194ZM37.4814 10.272C37.4814 9.97198 37.9814 9.57196 38.1814 9.87196C38.3814 10.272 37.6814 10.672 37.4814 10.372V10.272Z" fill="#252525"/>
<path d="M41.6834 21.5651C41.2834 21.9651 41.3834 22.865 41.9834 22.865C43.0834 22.865 42.6834 20.7651 41.6834 21.5651ZM42.0834 22.665C41.5834 22.565 41.6834 21.665 42.1834 21.665C42.5834 21.665 42.5834 22.565 42.0834 22.665Z" fill="#252525"/>
<path d="M37.0511 13.812C36.1511 14.112 37.0511 15.312 37.7511 15.012C38.6511 14.612 37.7511 13.512 37.0511 13.812ZM37.2511 14.7121C36.6511 14.4121 37.0511 13.812 37.5511 14.012C38.1511 14.312 37.8511 15.0121 37.2511 14.7121Z" fill="#252525"/>
<path d="M47.0981 12.7849C47.3981 13.6849 47.9981 13.9849 48.4981 13.6849C47.3981 13.5849 48.2981 11.3849 46.6981 11.7849C45.8981 10.9849 44.2981 11.5849 44.1981 13.0849C44.1981 15.5849 47.0981 15.7849 47.0981 17.9849C46.1981 20.7849 44.6981 17.2849 43.6981 16.0849C44.3981 16.5849 45.0981 15.6849 44.4981 15.0849C44.0981 14.4849 43.0981 14.8849 43.3981 15.5849C42.3981 14.2849 41.6981 13.5849 42.7981 12.4849L42.8981 12.5849C43.0981 12.2849 43.2981 12.0849 43.8981 11.4849L43.9981 11.3849L43.6981 11.1849C43.7981 10.9849 43.7981 10.7849 43.8981 10.5849C43.9981 10.9849 44.1981 11.2849 44.4981 11.1849C44.2981 10.7849 44.6981 10.1849 44.3981 9.18494C44.5981 9.58494 44.9981 9.78494 45.1981 9.68494C44.5981 9.08494 45.3981 8.3849 44.5981 7.0849C44.8981 7.1849 44.9981 7.08492 45.1981 6.98492C44.3981 6.88492 44.7981 5.8849 43.4981 5.5849C43.7981 5.4849 43.9981 5.38494 43.9981 5.18494C43.6981 5.38494 43.2981 4.68491 42.1981 4.78491C42.0981 4.38491 41.6981 3.88494 41.2981 3.68494C41.3981 3.98494 41.2981 4.2849 41.1981 4.5849L37.4981 0.884949C37.3981 0.784949 37.2981 0.784912 37.2981 0.784912V0.984924L40.4981 4.98492C40.1981 5.18492 39.4981 5.18494 39.4981 5.68494C38.7981 6.18494 37.6981 6.38494 37.8981 7.18494C37.9981 7.28494 37.7981 7.68495 38.1981 7.38495C38.4981 7.18495 39.1981 6.7849 39.2981 7.0849C39.3981 7.3849 37.6981 7.68492 38.5981 7.98492C38.6981 8.38492 38.8981 8.0849 38.9981 8.0849C39.0981 8.1849 38.9981 8.58494 38.8981 8.68494C39.4981 8.68494 39.3981 7.88494 39.6981 7.68494C39.7981 7.68494 39.7981 7.98494 39.6981 8.18494C39.8981 8.18494 40.0981 7.88495 40.0981 7.38495C40.4981 6.98495 40.5981 7.5849 41.0981 7.5849C41.9981 7.4849 42.3981 6.88491 41.9981 6.28491C43.1981 7.58491 40.7981 8.18492 39.9981 8.98492L39.1981 8.68494C39.0981 9.08494 38.8981 9.78491 38.7981 10.2849H38.8981C38.4981 10.8849 38.0981 11.4849 37.9981 12.1849C37.7981 11.9849 37.6981 11.8849 37.3981 11.6849C37.5981 11.0849 36.8981 10.4849 36.4981 10.9849C36.4981 10.9849 36.3981 10.9849 36.3981 10.8849C35.5981 10.1849 35.1981 9.68494 34.2981 10.6849C34.3981 10.8849 34.5981 10.9849 34.6981 11.0849C35.5981 10.4849 35.6981 11.7849 36.5981 12.5849C36.0981 12.8849 35.4981 12.4849 35.0981 12.8849C34.9981 13.1849 34.6981 13.1849 34.8981 13.5849C35.9981 15.4849 35.5981 15.5849 37.5981 16.5849V16.2849C36.4981 15.7849 36.9981 15.7849 37.8981 16.1849C37.7981 15.8849 37.4981 15.4849 37.2981 15.2849C37.0981 15.1849 36.7981 15.1849 36.6981 15.2849C36.6981 15.4849 36.3981 15.4849 36.3981 15.2849C36.6981 14.9849 36.4981 14.7849 36.0981 14.6849C34.5981 12.5849 36.2981 13.6849 37.7981 13.5849C37.6981 15.5849 40.1981 15.2849 40.8981 16.7849C38.3981 16.7849 38.0981 17.6849 38.0981 18.5849C38.0981 19.5849 38.9981 19.5849 38.9981 20.2849C38.0981 21.6849 35.4981 20.6849 34.2981 22.7849H34.6981C35.1981 21.9849 35.5981 21.6849 34.8981 22.7849C36.0981 22.8849 36.1981 22.3849 36.1981 22.1849C36.1981 21.9849 35.8981 21.8849 36.0981 21.7849C36.5981 21.4849 36.4981 22.3849 37.0981 22.0849C37.0981 22.0849 39.6981 20.9849 40.0981 20.8849C40.3981 20.7849 40.2981 20.5849 40.0981 20.4849C39.4981 19.6849 40.0981 18.5849 41.1981 18.7849C40.7981 20.1849 42.9981 21.5849 43.5981 21.5849C43.7981 21.5849 44.0981 21.3849 44.1981 22.1849C44.5981 24.5849 43.5981 24.3849 42.6981 26.0849C43.1981 26.4849 43.2981 25.1849 43.5981 25.1849C43.4981 25.5849 43.3981 26.0849 43.2981 26.2849C44.1981 26.2849 44.8981 25.7849 44.2981 25.0849C44.2981 24.7849 44.8981 24.8849 44.8981 25.0849C45.2981 24.9849 45.2981 24.0849 45.1981 23.6849C45.4981 24.2849 46.4981 23.8849 46.4981 23.3849C46.5981 22.4849 45.2981 22.4849 45.0981 23.2849C45.0981 18.8849 44.6981 22.9849 43.7981 20.1849C43.7981 19.5849 44.3981 18.9849 44.3981 18.1849C44.5981 17.4849 44.8981 18.6849 45.1981 18.8849C45.0981 19.7849 46.0981 20.6849 46.8981 20.0849C46.4981 20.1849 46.1981 19.7849 45.9981 19.3849H46.3981C46.6981 19.7849 47.5981 19.6849 47.8981 18.7849C47.6981 18.9849 47.3981 19.0849 47.0981 19.0849C49.2981 16.5849 44.6981 15.2849 44.7981 13.0849C44.7981 12.0849 45.6981 11.4849 46.3981 11.8849C44.8981 13.8849 48.8981 14.3849 48.9981 15.0849C49.1981 14.0849 47.1981 14.4849 47.0981 12.7849ZM39.7981 6.28491C39.8981 5.38491 40.2981 5.58492 40.9981 5.98492C40.4981 6.08492 40.0981 6.18491 39.7981 6.28491ZM37.1981 11.4849C37.1981 11.9849 36.5981 11.9849 36.5981 11.4849C36.5981 10.8849 37.2981 10.9849 37.1981 11.4849ZM45.3981 23.3849C45.4981 22.9849 45.9981 22.6849 46.2981 23.0849C46.5981 23.6849 45.2981 24.0849 45.3981 23.3849ZM43.6981 15.4849C43.8981 14.7849 44.8981 15.5849 44.4981 16.0849C44.0981 16.2849 43.6981 15.8849 43.6981 15.4849ZM38.9981 10.1849C39.0981 9.78494 39.3981 8.98492 39.3981 8.98492L39.7981 9.18494C39.6981 9.18494 39.4981 9.38492 39.3981 9.48492H39.7981L39.5981 9.88495C39.5981 9.78495 39.3981 9.68494 39.2981 9.68494C39.0981 10.1849 39.8981 10.4849 40.0981 10.2849C40.1981 10.1849 39.9981 9.98492 39.7981 9.98492C39.6981 9.58492 40.1981 9.48495 40.2981 9.88495C40.2981 9.48495 40.3981 9.1849 40.7981 9.0849C40.8981 9.3849 40.7981 9.68492 40.5981 9.98492C40.9981 9.78492 41.1981 10.1849 40.7981 10.3849C40.7981 10.1849 40.4981 10.1849 40.3981 10.2849C40.2981 10.6849 41.1981 11.0849 41.2981 10.5849C41.1981 10.5849 41.0981 10.5849 40.8981 10.6849L41.1981 10.0849C41.1981 10.1849 41.2981 10.2849 41.3981 10.3849C41.3981 10.2849 41.4981 10.0849 41.3981 9.88495L41.9981 10.1849C41.7981 10.1849 41.5981 10.3849 41.5981 10.4849C41.6981 10.5849 41.8981 10.4849 41.9981 10.4849L41.6981 10.9849C41.6981 10.7849 41.5981 10.6849 41.5981 10.5849C41.2981 10.9849 41.9981 11.5849 42.2981 11.2849C42.3981 11.1849 42.1981 10.8849 41.9981 10.9849C41.9981 10.4849 42.4981 10.4849 42.4981 10.9849C42.5981 10.5849 42.6981 10.3849 43.0981 10.2849C43.1981 10.5849 42.9981 10.8849 42.6981 11.0849C43.0981 10.9849 43.2981 11.3849 42.8981 11.4849C42.8981 11.2849 42.5981 11.1849 42.4981 11.3849C42.3981 11.6849 43.0981 12.1849 43.3981 11.7849C43.2981 11.6849 43.0981 11.6849 42.9981 11.6849L43.2981 11.2849C43.2981 11.3849 43.3981 11.5849 43.4981 11.5849C43.4981 11.3849 43.5981 11.1849 43.4981 11.0849L43.8981 11.3849C43.8981 11.3849 43.2981 11.9849 42.9981 12.3849L38.9981 10.1849ZM42.8981 19.9849C42.4981 20.4849 41.8981 19.9849 42.2981 19.5849C42.5981 18.9849 43.1981 19.4849 42.8981 19.9849ZM43.9981 18.1849C43.5981 18.6849 42.9981 18.1849 43.3981 17.7849C43.6981 17.1849 44.2981 17.6849 43.9981 18.1849Z" fill="#252525"/>
<path d="M0 0H3V100H0V0Z" fill="#252525"/>
<path d="M13.4 39.4H16.1L20.8 52L25.5 39.4H28.2V54.4H26.3V41.9L21.6 54.4H20L15.3 41.9V54.4H13.4V39.4ZM41 54.3C40.7 54.5 40.3 54.6 39.7 54.6C38.8 54.6 38.2 54.1 38.2 52.9C37.2 54.1 35.9 54.6 34.4 54.6C32.4 54.6 30.7999 53.7 30.7999 51.6C30.7999 49.1 32.6 48.6 34.5 48.3C36.5 47.9 38.2 48 38.2 46.7C38.2 45.1 36.9 44.9 35.7999 44.9C34.2999 44.9 33.1999 45.4 33.0999 47H31.2999C31.4 44.3 33.5 43.4 35.9 43.4C37.9 43.4 40 43.8 40 46.4V51.8C40 52.6 39.9999 53 40.5999 53C40.6999 53 40.8999 53 41.0999 52.9L41 54.3ZM38.0999 48.8C37.3999 49.3 36.1 49.3 34.9 49.5C33.7 49.7 32.7 50.1 32.7 51.5C32.7 52.7 33.6999 53.1 34.7999 53.1C37.1999 53.1 38.0999 51.6 38.0999 50.6V48.8ZM42.5999 43.5H44.2999V45.8C45.2 44.1 46.3999 43.2 48.2999 43.3V45.2C45.3999 45.2 44.4 46.8 44.4 49.6V54.4H42.5999V43.5ZM51.5 41.6H49.7V39.4H51.5V41.6ZM49.7999 43.5H51.5999V54.4H49.7999V43.5ZM56.7999 43.5H59V45.1H56.7999V51.8C56.7999 52.6 57 52.8 58.0999 52.8H58.9V54.4H57.5C55.7 54.4 54.9 54 54.9 52V45.1H53.0999V43.5H55V40.2H56.7999V43.5ZM62.7999 41.6H61V39.4H62.7999V41.6ZM61 43.5H62.7999V54.4H61V43.5ZM65.5999 43.5H67.3V45.1C68.1 43.9 69.3 43.3 70.8 43.3C72.1 43.3 73.3 43.8 73.8 45.1C74.5 43.9 75.7999 43.3 77.2 43.3C79.3999 43.3 80.8 44.2 80.8 46.4V54.4H79V47.3C79 46 78.6 44.9 76.9 44.9C75.2 44.9 74.0999 46 74.0999 47.7V54.5H72.3V47.4C72.3 46 71.9 45 70.3 45C68.2 45 67.4 47 67.4 47.8V54.6H65.5999V43.5ZM92.8 50.9C92.3 53.3 90.6 54.6 88.2 54.6C84.7 54.6 83.1 52.2 83 48.9C83 45.6 85.1 43.3 88.1 43.3C91.9 43.3 93.1 46.9 93 49.5H84.9C84.8 51.4 85.9 53.1 88.3 53.1C89.8 53.1 90.7999 52.4 91.1 51H92.8V50.9ZM91 47.9C90.9 46.2 89.6 44.8 87.9 44.8C86 44.8 84.9 46.2 84.8 47.9H91ZM108.9 52.5C108 53.9 106.3 54.6 104.7 54.6C100.6 54.6 100 51.7 100 50.5C100 48.1 101.6 47 103.5 46C102.7 44.8 101.8 44 101.8 42.5C101.8 40.9 103 39.4 105.2 39.4C107.1 39.4 108.8 40.4 108.8 42.5C108.8 44.3 107.4 45.6 106 46.4L108.7 49.7C109 49 109.1 48.2 109.2 47.4H110.9C110.8 49.2 110.5 49.8 109.9 51.1L112.8 54.5H110.5L108.9 52.5ZM104.5 47.1C103.1 47.9 101.9 48.7 101.9 50.5C101.9 52 103.3 53 104.8 53C106.2 53 107.3 52.3 108 51.2L104.5 47.1ZM107 42.6C107 41.7 106.3 41 105.3 41C104.5 41 103.6 41.5 103.6 42.6C103.6 43.5 104.4 44.4 105 45.2C105.9 44.6 107 43.8 107 42.6ZM23.9 66.9C23.5 64.8 21.8 63.7 19.7 63.7C16.1 63.7 14.6 66.6 14.6 69.8C14.6 73.2 16.1 76.1 19.7 76.1C22.3 76.1 23.8 74.3 24 71.8H26C25.6 75.5 23.3 77.8 19.5 77.8C14.8 77.8 12.6 74.4 12.6 70C12.6 65.7 15.1 62.1 19.7 62.1C22.8 62.1 25.4 63.8 25.9 67L23.9 66.9ZM32.9 66.3C36.3 66.3 38.2 68.8 38.2 72C38.2 75.2 36.4 77.7 32.9 77.7C29.4 77.7 27.6 75.2 27.6 72C27.7 68.8 29.5 66.3 32.9 66.3ZM32.9 76.1C34.8 76.1 36.2999 74.6 36.2999 72C36.2999 69.4 34.8 67.9 32.9 67.9C31 67.9 29.5 69.4 29.5 72C29.5 74.6 31.1 76.1 32.9 76.1ZM49.9 77.3C49.6 77.5 49.1999 77.6 48.5999 77.6C47.6999 77.6 47.0999 77.1 47.0999 75.9C46.0999 77.1 44.7999 77.6 43.2999 77.6C41.2999 77.6 39.7 76.7 39.7 74.6C39.7 72.1 41.5 71.6 43.4 71.3C45.4 70.9 47.0999 71 47.0999 69.7C47.0999 68.1 45.7999 67.9 44.7 67.9C43.2 67.9 42.1 68.4 42 70H40.2C40.3 67.3 42.4 66.4 44.7999 66.4C46.7999 66.4 48.9 66.8 48.9 69.4V75C48.9 75.8 48.9 76.2 49.5 76.2C49.5999 76.2 49.7999 76.2 50 76.1L49.9 77.3ZM47 71.8C46.2999 72.3 45 72.3 43.7999 72.5C42.5999 72.7 41.5999 73.1 41.5999 74.5C41.5999 75.7 42.6 76.1 43.7 76.1C46.1 76.1 47 74.6 47 73.6V71.8ZM52.7 74C52.7999 75.6 54.0999 76.1 55.5999 76.1C56.6999 76.1 58.2 75.8 58.2 74.5C58.2 73.1 56.4 72.9 54.7 72.5C52.9 72.1 51.2 71.5 51.2 69.4C51.2 67.2 53.3999 66.3 55.2999 66.3C57.7 66.3 59.5999 67.1 59.7999 69.7H58C57.9 68.3 56.7 67.9 55.5 67.9C54.4 67.9 53.2 68.2 53.2 69.3C53.2 70.6 55.1 70.8 56.7 71.2C58.5 71.6 60.2 72.2 60.2 74.3C60.2 76.9 57.7999 77.7 55.5999 77.7C53.1999 77.7 51.0999 76.7 51 74H52.7ZM64.5999 66.5H66.8V68.1H64.5999V74.8C64.5999 75.6 64.8 75.8 65.9 75.8H66.6999V77.4H65.3C63.5 77.4 62.7 77 62.7 75V68.1H60.9V66.5H62.7V63.2H64.5L64.5999 66.5ZM78.1 76.5C78.1 80 76.4999 81.8 73.0999 81.8C71.0999 81.8 68.6999 81 68.5999 78.6H70.4C70.5 79.9 71.9999 80.4 73.1999 80.4C75.4999 80.4 76.5 78.7 76.5 76.3V75.6C75.9 76.9 74.5 77.6 73.0999 77.6C69.8999 77.6 68.3 75.1 68.3 72.1C68.3 69.5 69.6 66.4 73.3 66.4C74.7 66.4 75.9 67 76.5 68.2V66.6H78.2L78.1 76.5ZM76.3 71.7C76.3 69.8 75.4999 67.8 73.1999 67.8C70.8999 67.8 70 69.7 70 71.7C70 73.7 70.6999 75.8 73.0999 75.8C75.5 75.8 76.3 73.8 76.3 71.7ZM89.7 77.4H88V75.7C87.2 77 86 77.7 84.5 77.7C81.6 77.7 80.8 76.1 80.8 73.7V66.6H82.6V73.9C82.6 75.2 83.4 76.1 84.8 76.1C87 76.1 88 74.7 88 72.7V66.6H89.8V77.4H89.7ZM102 77.3C101.7 77.5 101.3 77.6 100.7 77.6C99.7999 77.6 99.2 77.1 99.2 75.9C98.2 77.1 96.9 77.6 95.4 77.6C93.4 77.6 91.8 76.7 91.8 74.6C91.8 72.1 93.6 71.6 95.5 71.3C97.5 70.9 99.2 71 99.2 69.7C99.2 68.1 97.9 67.9 96.8 67.9C95.3 67.9 94.2 68.4 94.1 70H92.3C92.4 67.3 94.5 66.4 96.9 66.4C98.9 66.4 101 66.8 101 69.4V75C101 75.8 101 76.2 101.6 76.2C101.7 76.2 101.9 76.2 102.1 76.1L102 77.3ZM99.1 71.8C98.4 72.3 97.1 72.3 95.9 72.5C94.7 72.7 93.7 73.1 93.7 74.5C93.7 75.7 94.7 76.1 95.8 76.1C98.2 76.1 99.1 74.6 99.1 73.6V71.8ZM103.6 66.5H105.3V68.8C106.2 67.1 107.4 66.2 109.3 66.3V68.2C106.4 68.2 105.4 69.8 105.4 72.6V77.4H103.6V66.5ZM120 77.4H118.2V75.9C117.6 77.1 116.2 77.6 114.7 77.6C111.4 77.6 109.7 75 109.7 71.9C109.7 68.8 111.3 66.3 114.7 66.3C115.8 66.3 117.4 66.7 118.2 68V62.4H120V77.4ZM115 76.1C117.4 76.1 118.3 74 118.3 72C118.3 69.9 117.3 67.9 114.9 67.9C112.5 67.9 111.6 70 111.6 72.1C111.6 74.1 112.7 76.1 115 76.1ZM17.5 85.4H19.7L25.6 100.4H23.4L21.8 95.9H15.5L13.8 100.4H11.7L17.5 85.4ZM16 94.2H21L18.5 87.2L16 94.2ZM36.0999 99.5C36.0999 103 34.5 104.8 31.1 104.8C29.1 104.8 26.7 104 26.6 101.6H28.4C28.5 102.9 30 103.4 31.2 103.4C33.5 103.4 34.5 101.7 34.5 99.3V98.6C33.9 99.9 32.5 100.6 31.1 100.6C27.9 100.6 26.2 98.1 26.2 95.1C26.2 92.5 27.5 89.4 31.2 89.4C32.6 89.4 33.8 90 34.4 91.2V89.6H36.0999V99.5ZM34.2999 94.7C34.2999 92.8 33.5 90.8 31.2 90.8C28.9 90.8 28 92.7 28 94.7C28 96.7 28.7 98.8 31.1 98.8C33.5 98.8 34.2999 96.8 34.2999 94.7ZM48 96.9C47.5 99.3 45.8 100.6 43.4 100.6C39.9 100.6 38.3 98.2 38.2 94.9C38.2 91.6 40.2999 89.3 43.2999 89.3C47.0999 89.3 48.2999 92.9 48.2 95.5H40C39.9 97.4 41 99.1 43.4 99.1C44.9 99.1 45.9 98.4 46.2 97L48 96.9ZM46.2999 93.9C46.2 92.2 44.9 90.8 43.2 90.8C41.3 90.8 40.1999 92.2 40.0999 93.9H46.2999ZM50 89.5H51.7V91.2C52.5 89.9 53.7 89.2 55.2 89.2C58.1 89.2 58.9 90.8 58.9 93.2V100.3H57.0999V93C57.0999 91.7 56.3 90.8 54.9 90.8C52.7 90.8 51.7 92.2 51.7 94.2V100.3H50V89.5ZM69.0999 93C68.7999 91.6 67.9 90.8 66.4 90.8C63.8 90.8 63 92.8 63 95C63 97 63.8999 99 66.1999 99C67.8999 99 68.9999 98 69.1999 96.4H71C70.5999 99 68.8999 100.6 66.1999 100.6C62.8999 100.6 61.0999 98.3 61.0999 95.1C61.0999 91.8 62.7999 89.3 66.1999 89.3C68.6999 89.3 70.6 90.5 70.9 93H69.0999ZM77.2 101.8C76.3999 103.9 75.5999 104.7 74 104.7C73.5999 104.7 73.2 104.7 72.8 104.5V102.9C73.1 103 73.5 103.2 73.8 103.2C74.5 103.2 74.9 102.8 75.3 102.2L76 100.4L71.6999 89.6H73.6999L76.9 98.5L79.9 89.6H82L77.2 101.8Z" fill="#252525"/>
</g>
<defs>
<clipPath id="clip0_77_1161">
<rect width="135" height="105" fill="white"/>
</clipPath>
</defs>
</svg>
