<svg width="200" height="133" viewBox="0 0 200 133" fill="none" xmlns="http://www.w3.org/2000/svg">
<g style="mix-blend-mode:luminosity" opacity="0.5">
<g filter="url(#filter0_d_2051_2609)">
<path d="M54 46H189C190.326 46 191.598 46.5268 192.536 47.4645C193.473 48.4021 194 49.6739 194 51V76C194 77.3261 193.473 78.5979 192.536 79.5355C191.598 80.4732 190.326 81 189 81H54C52.6739 81 51.4021 80.4732 50.4645 79.5355C49.5268 78.5979 49 77.3261 49 76V51C49 49.6739 49.5268 48.4021 50.4645 47.4645C51.4021 46.5268 52.6739 46 54 46V46Z" fill="white"/>
</g>
<path d="M128 54H102C100.343 54 99 55.3431 99 57C99 58.6569 100.343 60 102 60H128C129.657 60 131 58.6569 131 57C131 55.3431 129.657 54 128 54Z" fill="#B4DAFF"/>
<path d="M146 67H102C100.343 67 99 68.3431 99 70C99 71.6569 100.343 73 102 73H146C147.657 73 149 71.6569 149 70C149 68.3431 147.657 67 146 67Z" fill="#DEE9FC"/>
<path d="M79.5 73C84.7467 73 89 68.7467 89 63.5C89 58.2533 84.7467 54 79.5 54C74.2533 54 70 58.2533 70 63.5C70 68.7467 74.2533 73 79.5 73Z" fill="#1485FD"/>
<g filter="url(#filter1_d_2051_2609)">
<path d="M11 89H146C147.326 89 148.598 89.5268 149.536 90.4645C150.473 91.4021 151 92.6739 151 94V119C151 120.326 150.473 121.598 149.536 122.536C148.598 123.473 147.326 124 146 124H11C9.67392 124 8.40215 123.473 7.46447 122.536C6.52678 121.598 6 120.326 6 119V94C6 92.6739 6.52678 91.4021 7.46447 90.4645C8.40215 89.5268 9.67392 89 11 89V89Z" fill="white"/>
</g>
<path d="M85 97H59C57.3431 97 56 98.3431 56 100C56 101.657 57.3431 103 59 103H85C86.6569 103 88 101.657 88 100C88 98.3431 86.6569 97 85 97Z" fill="#B4DAFF"/>
<path d="M103 110H59C57.3431 110 56 111.343 56 113C56 114.657 57.3431 116 59 116H103C104.657 116 106 114.657 106 113C106 111.343 104.657 110 103 110Z" fill="#DEE9FC"/>
<path d="M23.5 116C28.7467 116 33 111.747 33 106.5C33 101.253 28.7467 97 23.5 97C18.2533 97 14 101.253 14 106.5C14 111.747 18.2533 116 23.5 116Z" fill="#1485FD"/>
<g filter="url(#filter2_d_2051_2609)">
<path d="M146 3H11C8.23858 3 6 5.23858 6 8V33C6 35.7614 8.23858 38 11 38H146C148.761 38 151 35.7614 151 33V8C151 5.23858 148.761 3 146 3Z" fill="white"/>
</g>
<path d="M83 11H57C55.3431 11 54 12.3431 54 14C54 15.6569 55.3431 17 57 17H83C84.6569 17 86 15.6569 86 14C86 12.3431 84.6569 11 83 11Z" fill="#B4DAFF"/>
<path d="M101 24H57C55.3431 24 54 25.3431 54 27C54 28.6569 55.3431 30 57 30H101C102.657 30 104 28.6569 104 27C104 25.3431 102.657 24 101 24Z" fill="#DEE9FC"/>
<path d="M36.5 30C41.7467 30 46 25.7467 46 20.5C46 15.2533 41.7467 11 36.5 11C31.2533 11 27 15.2533 27 20.5C27 25.7467 31.2533 30 36.5 30Z" fill="#1485FD"/>
<path d="M39.0907 24.0005L36.3633 21.2731L33.6359 24.0005L32.7267 23.0914L35.4541 20.364L32.7267 17.6365L33.6359 16.7274L36.3633 19.4548L39.0907 16.7274L39.9998 17.6365L37.2724 20.364L39.9998 23.0914L39.0907 24.0005Z" fill="white"/>
<path d="M82.0907 67.0005L79.3633 64.2731L76.6359 67.0005L75.7267 66.0914L78.4541 63.364L75.7267 60.6365L76.6359 59.7274L79.3633 62.4548L82.0907 59.7274L82.9998 60.6365L80.2724 63.364L82.9998 66.0914L82.0907 67.0005Z" fill="white"/>
<path d="M26.0907 110.001L23.3633 107.273L20.6359 110.001L19.7267 109.091L22.4541 106.364L19.7267 103.637L20.6359 102.727L23.3633 105.455L26.0907 102.727L26.9998 103.637L24.2724 106.364L26.9998 109.091L26.0907 110.001Z" fill="white"/>
</g>
<defs>
<filter id="filter0_d_2051_2609" x="43" y="43" width="157" height="47" filterUnits="userSpaceOnUse" color-interpolation-filters="sRGB">
<feFlood flood-opacity="0" result="BackgroundImageFix"/>
<feColorMatrix in="SourceAlpha" type="matrix" values="0 0 0 0 0 0 0 0 0 0 0 0 0 0 0 0 0 0 127 0" result="hardAlpha"/>
<feOffset dy="3"/>
<feGaussianBlur stdDeviation="3"/>
<feColorMatrix type="matrix" values="0 0 0 0 0 0 0 0 0 0 0 0 0 0 0 0 0 0 0.161 0"/>
<feBlend mode="normal" in2="BackgroundImageFix" result="effect1_dropShadow_2051_2609"/>
<feBlend mode="normal" in="SourceGraphic" in2="effect1_dropShadow_2051_2609" result="shape"/>
</filter>
<filter id="filter1_d_2051_2609" x="0" y="86" width="157" height="47" filterUnits="userSpaceOnUse" color-interpolation-filters="sRGB">
<feFlood flood-opacity="0" result="BackgroundImageFix"/>
<feColorMatrix in="SourceAlpha" type="matrix" values="0 0 0 0 0 0 0 0 0 0 0 0 0 0 0 0 0 0 127 0" result="hardAlpha"/>
<feOffset dy="3"/>
<feGaussianBlur stdDeviation="3"/>
<feColorMatrix type="matrix" values="0 0 0 0 0 0 0 0 0 0 0 0 0 0 0 0 0 0 0.161 0"/>
<feBlend mode="normal" in2="BackgroundImageFix" result="effect1_dropShadow_2051_2609"/>
<feBlend mode="normal" in="SourceGraphic" in2="effect1_dropShadow_2051_2609" result="shape"/>
</filter>
<filter id="filter2_d_2051_2609" x="0" y="0" width="157" height="47" filterUnits="userSpaceOnUse" color-interpolation-filters="sRGB">
<feFlood flood-opacity="0" result="BackgroundImageFix"/>
<feColorMatrix in="SourceAlpha" type="matrix" values="0 0 0 0 0 0 0 0 0 0 0 0 0 0 0 0 0 0 127 0" result="hardAlpha"/>
<feOffset dy="3"/>
<feGaussianBlur stdDeviation="3"/>
<feColorMatrix type="matrix" values="0 0 0 0 0 0 0 0 0 0 0 0 0 0 0 0 0 0 0.161 0"/>
<feBlend mode="normal" in2="BackgroundImageFix" result="effect1_dropShadow_2051_2609"/>
<feBlend mode="normal" in="SourceGraphic" in2="effect1_dropShadow_2051_2609" result="shape"/>
</filter>
</defs>
</svg>
