<svg width="160" height="100" viewBox="0 0 160 100" fill="none" xmlns="http://www.w3.org/2000/svg">
<g clip-path="url(#clip0_77_1270)">
<path d="M108.2 52.9C108.2 49.6 107.3 46.9999 105.6 45.2999C104 43.5999 101.5 42.7 98.1 42.7H87.5C86.6 42.7 85.8 43 85.2 43.7C84.6 44.3 84.2 45.1 84.2 46V74.0999H90.7V63H98.6C101.7 63 104.1 62.1 105.7 60.4C107.4 58.6 108.2 56.1 108.2 52.9ZM100.6 56.2C99.9 56.9 98.7 57.2999 97 57.2999H90.7V48.2999H97.3C98.7 48.2999 99.8 48.7 100.7 49.4C101.4 50.2 101.8 51.4 101.8 52.7999C101.8 54.4 101.4 55.5 100.6 56.2ZM131 42.7999C129.6 42.7999 128.6 43.3999 128 44.5999L122.6 56.2999L116 42.7999H108.1V43H108.2L119.5 62.5V74.1999H126V62.5L136.3 42.7999H131ZM131.1 74.1999H136.8L138.8 67.6999H151.1L153.2 74.1999H160L148.6 42.9H143.5C142 42.9 140.9 43.6 140.4 45L130 74.1999H131.1ZM144.9 49.0999L149.3 62.4H140.5L144.9 49.0999Z" fill="#252525"/>
<path d="M89.9 83.4L89.4 83.7C89.2 83.4 88.9 83.1 88.5 83C88.2 82.8 87.8 82.7 87.3 82.7C86.8 82.7 86.4 82.8 86 83C85.6 83.2 85.3 83.5 85.1 83.9C84.9 84.3 84.8 84.7 84.8 85.2C84.8 85.9 85 86.5 85.5 87C86 87.5 86.6 87.7 87.3 87.7C88.1 87.7 88.8 87.4 89.3 86.8L89.8 87.1C89.5 87.5 89.2 87.7 88.7 87.9C88.3 88.1 87.8 88.2 87.3 88.2C86.3 88.2 85.5 87.9 84.9 87.2C84.4 86.6 84.2 86 84.2 85.2C84.2 84.4 84.5 83.7 85.1 83.1C85.7 82.5 86.4 82.2 87.3 82.2C87.8 82.2 88.3 82.3 88.8 82.5C89.3 82.7 89.7 83 89.9 83.4ZM93 83.7C93.7 83.7 94.2 83.9 94.6 84.4C95 84.8 95.2 85.3 95.2 85.9C95.2 86.5 95 87 94.6 87.5C94.2 87.9 93.7 88.2 93 88.2C92.3 88.2 91.8 88 91.4 87.5C91 87.1 90.8 86.5 90.8 85.9C90.8 85.3 91 84.8 91.4 84.4C91.8 83.9 92.4 83.7 93 83.7ZM93 84.2C92.5 84.2 92.2 84.4 91.8 84.7C91.5 85 91.3 85.4 91.3 85.9C91.3 86.2 91.4 86.5 91.5 86.8C91.6 87.1 91.9 87.3 92.1 87.4C92.4 87.5 92.6 87.6 92.9 87.6C93.2 87.6 93.5 87.5 93.7 87.4C94 87.3 94.2 87.1 94.3 86.8C94.4 86.5 94.5 86.2 94.5 85.9C94.5 85.4 94.3 85 94 84.7C93.9 84.4 93.5 84.2 93 84.2ZM96 83.8H96.6V84.4C96.8 84.2 96.9 84 97.1 83.9C97.3 83.8 97.5 83.7 97.7 83.7C97.9 83.7 98 83.7 98.2 83.8L97.9 84.3C97.8 84.3 97.7 84.2 97.6 84.2C97.4 84.2 97.2 84.3 97.1 84.4C96.9 84.5 96.8 84.8 96.7 85.1C96.6 85.3 96.6 85.8 96.6 86.6V88H96V83.8ZM98.7 83.8H99.2V84.6C99.4 84.3 99.7 84.1 99.9 83.9C100.2 83.8 100.5 83.7 100.8 83.7C101.4 83.7 101.9 83.9 102.3 84.4C102.7 84.8 102.9 85.4 102.9 86C102.9 86.6 102.7 87.2 102.3 87.6C101.9 88 101.4 88.3 100.8 88.3C100.5 88.3 100.2 88.2 99.9 88.1C99.6 88 99.4 87.7 99.1 87.5V89.8H98.6V83.8H98.7ZM100.9 84.2C100.4 84.2 100 84.4 99.7 84.7C99.4 85 99.2 85.4 99.2 85.9C99.2 86.2 99.3 86.5 99.4 86.8C99.5 87.1 99.8 87.3 100 87.4C100.3 87.6 100.6 87.6 100.9 87.6C101.2 87.6 101.5 87.5 101.7 87.4C101.9 87.3 102.2 87 102.3 86.8C102.5 86.5 102.5 86.2 102.5 85.9C102.5 85.6 102.4 85.3 102.3 85C102.1 84.7 101.9 84.5 101.7 84.4C101.4 84.3 101.2 84.2 100.9 84.2ZM106.1 83.7C106.8 83.7 107.3 83.9 107.7 84.4C108.1 84.8 108.3 85.3 108.3 85.9C108.3 86.5 108.1 87 107.7 87.5C107.3 87.9 106.8 88.2 106.1 88.2C105.4 88.2 104.9 88 104.5 87.5C104.1 87.1 103.9 86.5 103.9 85.9C103.9 85.3 104.1 84.8 104.5 84.4C104.9 83.9 105.5 83.7 106.1 83.7ZM106.1 84.2C105.6 84.2 105.3 84.4 104.9 84.7C104.6 85 104.4 85.4 104.4 85.9C104.4 86.2 104.5 86.5 104.6 86.8C104.7 87.1 105 87.3 105.2 87.4C105.5 87.5 105.7 87.6 106 87.6C106.3 87.6 106.6 87.5 106.8 87.4C107.1 87.3 107.3 87.1 107.4 86.8C107.5 86.5 107.6 86.2 107.6 85.9C107.6 85.4 107.4 85 107.1 84.7C107 84.4 106.6 84.2 106.1 84.2ZM109.1 83.8H109.7V84.4C109.9 84.2 110 84 110.2 83.9C110.4 83.8 110.6 83.7 110.8 83.7C111 83.7 111.1 83.7 111.3 83.8L111 84.3C110.9 84.3 110.8 84.2 110.7 84.2C110.5 84.2 110.3 84.3 110.2 84.4C110 84.5 109.9 84.8 109.8 85.1C109.7 85.3 109.7 85.8 109.7 86.6V88H109.1V83.8ZM116 83.8V88H115.5V87.3C115.3 87.6 115 87.8 114.7 87.9C114.4 88 114.1 88.1 113.8 88.1C113.2 88.1 112.7 87.9 112.3 87.4C111.9 87 111.7 86.4 111.7 85.8C111.7 85.2 111.9 84.7 112.3 84.2C112.7 83.8 113.2 83.5 113.9 83.5C114.2 83.5 114.6 83.6 114.8 83.7C115.1 83.8 115.3 84.1 115.5 84.4V83.6H116V83.8ZM113.8 84.2C113.5 84.2 113.2 84.3 113 84.4C112.7 84.5 112.5 84.8 112.4 85C112.3 85.2 112.2 85.6 112.2 85.9C112.2 86.2 112.3 86.5 112.4 86.8C112.6 87.1 112.8 87.3 113 87.4C113.2 87.5 113.5 87.6 113.8 87.6C114.1 87.6 114.4 87.5 114.7 87.4C115 87.2 115.2 87 115.3 86.8C115.4 86.5 115.5 86.3 115.5 85.9C115.5 85.4 115.3 85 115 84.7C114.7 84.4 114.3 84.2 113.8 84.2ZM117.7 82.2H118.2V83.8H119.1V84.3H118.2V88H117.7V84.2H117V83.7H117.7V82.2ZM123.5 86.6L124 86.8C123.8 87.1 123.7 87.3 123.5 87.5C123.3 87.7 123.1 87.8 122.8 87.9C122.6 88 122.3 88 122 88C121.3 88 120.8 87.8 120.4 87.3C120 86.8 119.8 86.3 119.8 85.8C119.8 85.3 120 84.8 120.3 84.4C120.7 83.9 121.3 83.6 122 83.6C122.7 83.6 123.3 83.9 123.7 84.4C124 84.8 124.2 85.3 124.2 85.9H120.4C120.4 86.4 120.6 86.8 120.9 87.1C121.2 87.4 121.6 87.6 122 87.6C122.2 87.6 122.4 87.6 122.6 87.5C122.8 87.4 123 87.3 123.1 87.2C123.2 87.1 123.3 86.9 123.5 86.6ZM123.5 85.5C123.4 85.2 123.3 85 123.2 84.8C123.1 84.6 122.9 84.5 122.6 84.4C122.4 84.3 122.1 84.2 121.9 84.2C121.5 84.2 121.1 84.3 120.8 84.6C120.6 84.8 120.4 85.1 120.3 85.5H123.5ZM127.2 88L128 82.3H128.1L130.4 87L132.7 82.3H132.8L133.6 88H133L132.4 83.9L130.4 88H130.3L128.2 83.9L127.6 88H127.2ZM138.3 86.6L138.8 86.8C138.6 87.1 138.5 87.3 138.3 87.5C138.1 87.7 137.9 87.8 137.6 87.9C137.4 88 137.1 88 136.8 88C136.1 88 135.6 87.8 135.2 87.3C134.8 86.8 134.6 86.3 134.6 85.8C134.6 85.3 134.8 84.8 135.1 84.4C135.5 83.9 136.1 83.6 136.8 83.6C137.5 83.6 138.1 83.9 138.5 84.4C138.8 84.8 139 85.3 139 85.9H135.2C135.2 86.4 135.4 86.8 135.7 87.1C136 87.4 136.4 87.6 136.8 87.6C137 87.6 137.2 87.6 137.4 87.5C137.6 87.4 137.8 87.3 137.9 87.2C138 87.1 138.1 86.9 138.3 86.6ZM138.3 85.5C138.2 85.2 138.1 85 138 84.8C137.9 84.6 137.7 84.5 137.4 84.4C137.2 84.3 136.9 84.2 136.7 84.2C136.3 84.2 135.9 84.3 135.6 84.6C135.4 84.8 135.2 85.1 135.1 85.5H138.3ZM139.9 83.8H140.4V84.5C140.6 84.2 140.8 84 141 83.9C141.3 83.7 141.6 83.7 141.9 83.7C142.1 83.7 142.3 83.7 142.5 83.8C142.7 83.9 142.8 84 143 84.1C143.1 84.2 143.2 84.4 143.3 84.7C143.5 84.4 143.7 84.1 144 83.9C144.3 83.7 144.6 83.6 144.9 83.6C145.2 83.6 145.5 83.7 145.7 83.8C145.9 83.9 146.1 84.2 146.2 84.4C146.3 84.7 146.4 85.1 146.4 85.6V88H145.8V85.7C145.8 85.2 145.8 84.9 145.7 84.8C145.6 84.6 145.5 84.5 145.4 84.4C145.2 84.3 145.1 84.2 144.8 84.2C144.5 84.2 144.3 84.3 144.1 84.4C143.9 84.5 143.7 84.8 143.6 85C143.5 85.3 143.4 85.7 143.4 86.3V88H142.9V85.8C142.9 85.3 142.9 84.9 142.8 84.8C142.7 84.6 142.6 84.5 142.5 84.4C142.3 84.3 142.2 84.2 141.9 84.2C141.6 84.2 141.4 84.3 141.2 84.4C141 84.6 140.8 84.8 140.7 85C140.6 85.2 140.5 85.7 140.5 86.2V88H140V83.8H139.9ZM147.4 88V82.1H147.9V84.5C148.1 84.2 148.4 84 148.7 83.9C149 83.8 149.3 83.7 149.6 83.7C150.2 83.7 150.7 83.9 151.1 84.4C151.5 84.8 151.7 85.4 151.7 86C151.7 86.6 151.5 87.1 151.1 87.6C150.7 88 150.2 88.3 149.6 88.3C149.3 88.3 148.9 88.2 148.7 88.1C148.4 88 148.2 87.7 148 87.4V88H147.4ZM149.6 87.6C149.9 87.6 150.2 87.5 150.4 87.4C150.7 87.2 150.9 87 151 86.8C151.2 86.5 151.2 86.2 151.2 85.9C151.2 85.6 151.1 85.3 151 85C150.9 84.7 150.6 84.5 150.4 84.4C150.2 84.3 149.9 84.2 149.6 84.2C149.3 84.2 149 84.3 148.7 84.4C148.4 84.6 148.2 84.8 148.1 85C148 85.3 147.9 85.5 147.9 85.9C147.9 86.4 148.1 86.8 148.4 87.1C148.8 87.5 149.2 87.6 149.6 87.6ZM156.4 86.6L156.9 86.8C156.7 87.1 156.6 87.3 156.4 87.5C156.2 87.7 156 87.8 155.7 87.9C155.5 88 155.2 88 154.9 88C154.2 88 153.7 87.8 153.3 87.3C152.9 86.8 152.7 86.3 152.7 85.8C152.7 85.3 152.9 84.8 153.2 84.4C153.6 83.9 154.2 83.6 154.9 83.6C155.6 83.6 156.2 83.9 156.6 84.4C156.9 84.8 157.1 85.3 157.1 85.9H153.3C153.3 86.4 153.5 86.8 153.8 87.1C154.1 87.4 154.5 87.6 154.9 87.6C155.1 87.6 155.3 87.6 155.5 87.5C155.7 87.4 155.9 87.3 156 87.2C156.1 87.1 156.3 86.9 156.4 86.6ZM156.4 85.5C156.3 85.2 156.2 85 156.1 84.8C156 84.6 155.8 84.5 155.5 84.4C155.3 84.3 155 84.2 154.8 84.2C154.4 84.2 154 84.3 153.7 84.6C153.5 84.8 153.3 85.1 153.2 85.5H156.4ZM157.9 83.8H158.5V84.4C158.7 84.2 158.8 84 159 83.9C159.2 83.8 159.4 83.7 159.6 83.7C159.8 83.7 159.9 83.7 160.1 83.8L159.8 84.3C159.7 84.3 159.6 84.2 159.5 84.2C159.3 84.2 159.1 84.3 159 84.4C158.8 84.5 158.7 84.8 158.6 85.1C158.5 85.3 158.5 85.8 158.5 86.6V88H157.9V83.8Z" fill="#252525"/>
<path d="M75.8 26C75.8 26 62.9 56.7 14.2 89.9L36.5999 87.2C71.3999 53.7 75.8 26 75.8 26Z" fill="#252525"/>
<path d="M75.8003 25.9C75.8003 25.9 75.6003 47.8 45.1003 86.1L59.8003 83.1C79.5003 49.4 75.8003 25.9 75.8003 25.9Z" fill="#252525"/>
<path d="M40 57.6001C44.1421 57.6001 47.5 54.2422 47.5 50.1001C47.5 45.958 44.1421 42.6001 40 42.6001C35.8579 42.6001 32.5 45.958 32.5 50.1001C32.5 54.2422 35.8579 57.6001 40 57.6001Z" fill="#252525"/>
<path d="M41 30.1001V24.1001H39V30.1001H39.2V68.1001L40.8 66.8001V30.1001H41Z" fill="#252525"/>
<path d="M19.9004 49.2001H13.9004V51.2001H19.9004V51.0001H55.6004L57.2004 49.4001H19.9004V49.2001Z" fill="#252525"/>
<path d="M26.5004 35.3001L22.3004 31.0001L22.1004 31.2001L21.0004 32.3001L20.9004 32.4001L25.1004 36.7001L25.2004 36.5001L48.3004 59.6001L49.5004 58.3001L26.4004 35.4001L26.5004 35.3001Z" fill="#252525"/>
<path d="M25.1004 63.6001L20.9004 67.9001L21.0004 68.0001L22.1004 69.2001L22.3004 69.3001L26.5004 65.1001L26.4004 64.9001L54.8004 36.5001L54.9004 36.7001L59.1004 32.4001L57.7004 31.0001L53.5004 35.3001L53.6004 35.4001L25.2004 63.8001L25.1004 63.6001Z" fill="#252525"/>
<path d="M40.7 19.8L41.5 11.6C41.5 10.8 40.8 10.1 40 10.1C39.2 10.1 38.5 10.8 38.5 11.6L39.3 19.8C38.9 20.1 38.5 20.5 38.5 21.1V22.6H41.5V21.1C41.5 20.5 41.2 20 40.7 19.8ZM9.7 49.4L1.5 48.6C0.7 48.6 0 49.3 0 50.1C0 50.9 0.7 51.6 1.5 51.6L9.7 50.8C10 51.2 10.4 51.6 11 51.6H12.5V48.6H11C10.4 48.6 9.9 48.9 9.7 49.4ZM19 28.2L13.8 21.8C13.2 21.2 12.3 21.2 11.7 21.8C11.1 22.4 11.1 23.3 11.7 23.9L18 29.2C17.9 29.7 18 30.3 18.4 30.6L19.5 31.7L21.6 29.6L20.5 28.5C20.1 28.1 19.5 28 19 28.2ZM18.1 71.1L11.7 76.3C11.1 76.9 11.1 77.8 11.7 78.4C12.3 79 13.2 79 13.8 78.4L19.1 72.1C19.6 72.2 20.2 72.1 20.5 71.7L21.6 70.6L19.5 68.5L18.4 69.6C18 70 17.9 70.6 18.1 71.1ZM61.9 29.1L68.3 23.9C68.9 23.3 68.9 22.4 68.3 21.8C67.7 21.2 66.8 21.2 66.2 21.8L60.9 28.1C60.4 28 59.8 28.1 59.5 28.5L58.4 29.6L60.5 31.7L61.6 30.6C62 30.2 62.1 29.6 61.9 29.1Z" fill="#252525"/>
<path d="M39.9996 24.7C50.5996 24.7 59.6996 31.2 63.4996 40.5L65.3996 38.7C61.0996 28.9 51.2996 22.2 39.9996 22.2C24.5996 22.2 12.0996 34.6999 12.0996 50.0999C12.0996 61.5999 18.9996 71.3999 28.8996 75.6999L31.1996 73.9C21.4996 70.3 14.5996 60.9999 14.5996 50.0999C14.5996 36.0999 25.9996 24.7 39.9996 24.7Z" fill="#252525"/>
</g>
<defs>
<clipPath id="clip0_77_1270">
<rect width="160" height="100" fill="white"/>
</clipPath>
</defs>
</svg>
