<?xml version="1.0" encoding="UTF-8"?>
<!DOCTYPE svg PUBLIC "-//W3C//DTD SVG 1.1//EN" "http://www.w3.org/Graphics/SVG/1.1/DTD/svg11.dtd">
<svg xmlns="http://www.w3.org/2000/svg" version="1.1" width="512px" height="512px" style="shape-rendering:geometricPrecision; text-rendering:geometricPrecision; image-rendering:optimizeQuality; fill-rule:evenodd; clip-rule:evenodd" xmlns:xlink="http://www.w3.org/1999/xlink">
<g><path style="opacity:0.979" fill="#ffffff" d="M 194.5,-0.5 C 208.167,-0.5 221.833,-0.5 235.5,-0.5C 319.517,11.6851 377.683,57.0184 410,135.5C 434.115,209.646 422.282,277.312 374.5,338.5C 415.817,382.318 457.317,425.985 499,469.5C 507.487,489.23 501.987,503.23 482.5,511.5C 477.833,511.5 473.167,511.5 468.5,511.5C 465.592,510.046 462.592,508.546 459.5,507C 417.318,463.652 375.318,420.152 333.5,376.5C 270.433,417.258 203.766,424.091 133.5,397C 53.8255,358.758 11.8255,295.258 7.5,206.5C 10.7383,127.483 45.7383,67.3164 112.5,26C 138.237,11.8088 165.57,2.97545 194.5,-0.5 Z M 213.5,53.5 C 280.163,56.699 327.663,88.3656 356,148.5C 377.45,208.478 367.45,262.478 326,310.5C 276.463,358.345 219.296,370.179 154.5,346C 96.5614,317.503 65.8948,270.836 62.5,206C 66.0236,140.855 97.0236,94.1879 155.5,66C 174.222,58.3147 193.555,54.148 213.5,53.5 Z"/></g>
</svg>
