<svg width="200" height="40" viewBox="0 0 200 40" fill="none" xmlns="http://www.w3.org/2000/svg">
<path d="M200 4.78564C200 4.78564 174.4 5.88564 172 5.68564C172 5.68564 163.2 5.38564 154.9 7.98564C141.7 12.0856 122.6 22.7856 122.6 22.7856C137.1 17.9856 140.8 16.4856 157.3 17.2856C163.8 17.5856 171.6 20.7856 175.9 22.8856L194.4 9.08564C196 7.78564 197.8 6.38564 200 4.78564Z" fill="#252525"/>
<path d="M118.3 24.2855C119.6 23.6855 130.9 16.1855 143.1 10.2855C153.7 5.1855 155.1 5.2855 170 3.9855C157.1 2.9855 154.3 2.6855 150.3 2.9855C142.6 3.3855 138 3.4855 132.7 8.2855C126.1 14.0855 113.3 26.6855 118.3 24.2855Z" fill="#252525"/>
<path d="M120.1 18.7856C125.9 12.5856 127.1 10.9856 130.7 7.68558C132.9 5.68558 136.2 2.38558 146.7 1.58558C138.7 -0.214419 135.8 -0.21442 131.7 0.28558C127 0.78558 122.6 11.4856 120.6 15.6856C119 19.0856 117.4 21.6856 120.1 18.7856ZM165.9 20.4856C160.7 18.8856 155.1 18.6856 149.7 18.5856C137.4 18.5856 125.5 22.0856 114.6 27.5856C113.9 27.9856 113.9 28.2856 114.8 28.2856C115.9 28.2856 117.1 27.9856 118.1 27.4856C123.1 24.9856 128.2 22.7856 133.6 21.4856C138.3 20.2856 143.2 19.9856 148.1 20.0856C153 20.1856 158 20.5856 162.6 22.1856C165.6 23.1856 168.4 24.7856 171.2 26.2856L174.1 24.0856C171.5 22.6856 168.8 21.3856 165.9 20.4856Z" fill="#252525"/>
<path d="M5.7 39.7855C4.1 39.7855 2.8 39.4855 1.8 38.8855C0.6 38.2855 0 37.1856 0 35.6856V35.0855H1.2V35.5855C1.2 37.6855 2.7 38.6856 5.7 38.6856C6.8 38.6856 7.6 38.4856 8.3 38.1856C9.2 37.7856 9.6 37.1855 9.6 36.3855C9.6 35.7855 9.4 35.3855 9.1 35.0855C9 34.8855 8.5 34.6855 7.9 34.4855C7.5 34.3855 6.7 34.1855 5.3 33.8855C3.7 33.5855 2.7 33.2855 2.1 32.9855C1 32.3855 0.4 31.5855 0.4 30.3855C0.4 28.2855 2.1 27.1855 5.4 27.1855C8.9 27.1855 10.6 28.5855 10.7 31.2855H9.5C9.4 30.1855 9 29.2855 8.2 28.8855C7.6 28.5855 6.6 28.3855 5.4 28.3855C2.9 28.3855 1.6 29.0855 1.6 30.4855C1.6 31.1855 1.9 31.6855 2.6 31.9855C3.1 32.2855 3.9 32.4855 5.1 32.6855C7.3 33.0855 8.8 33.4855 9.6 33.8855C10.5 34.3855 11 35.2855 11 36.4855C11 37.6855 10.4 38.5855 9.2 39.0855C8.1 39.5855 7 39.7855 5.7 39.7855ZM23.9 38.6856C23 39.3856 21.7 39.7855 19.9 39.7855C16.3 39.7855 14.5 38.1855 14.5 34.9855V27.3855H15.7V34.9855C15.7 37.4855 17.1 38.6856 19.9 38.6856C22.7 38.6856 24.1 37.4855 24.1 35.0855V27.3855H25.3V35.0855C25.3 36.6855 24.9 37.9856 23.9 38.6856ZM38.3 33.6855C37.4 34.1855 36.4 34.3855 35.1 34.3855H30.7V39.5855H29.5V27.3855H35.3C38.4 27.3855 39.9 28.5855 39.9 30.9855C39.9 32.1855 39.4 33.0855 38.3 33.6855ZM35.4 28.4855H30.6V33.2855H35.4C36.3 33.2855 37.1 33.0855 37.7 32.6855C38.4 32.2855 38.7 31.6855 38.7 30.8855C38.7 29.3855 37.6 28.4855 35.4 28.4855ZM43.1 39.6856V27.3855H52.7V28.4855H44.3V32.6855H51.8V33.8855H44.3V38.5855H52.8V39.6856H43.1ZM64.5 33.6855C65.6 34.1855 66.2 35.1855 66.2 36.4855V39.6856H65V36.5855C65 35.0855 63.9 34.3855 61.8 34.3855H57.1V39.7855H55.9V27.3855H62C65 27.3855 66.5 28.4855 66.5 30.6855C66.4 32.0855 65.8 33.0855 64.5 33.6855ZM62 28.4855H57.1V33.1855H61.7C62.7 33.1855 63.5 32.9855 64.1 32.6855C64.8 32.2855 65.2 31.5855 65.2 30.7855C65.2 29.2855 64.1 28.4855 62 28.4855ZM75.4 33.7855V39.6856H74.2V33.7855L68.2 27.3855H69.7L74.7 32.6855L79.7 27.3855H81.3L75.4 33.7855ZM91.8 39.6856L90 35.8855H83.6L81.8 39.6856H80.5L86.4 27.3855H87.4L93.1 39.6856H91.8ZM86.9 29.1855L84.2 34.7855H89.5L86.9 29.1855ZM106.1 30.3855C105.2 29.0855 103.7 28.3855 101.7 28.3855C100 28.3855 98.6 28.8855 97.6 29.7855C96.6 30.6855 96.1 31.9855 96.1 33.5855C96.1 35.1855 96.6 36.3855 97.5 37.3855C98.5 38.2855 99.8 38.7855 101.4 38.7855C103.3 38.7855 104.8 38.0855 105.8 36.7855L106.8 37.3855C105.5 39.0855 103.7 39.8855 101.4 39.8855C99.4 39.8855 97.8 39.2856 96.6 38.1856C95.4 37.0856 94.8 35.5855 94.8 33.6855C94.8 31.7855 95.4 30.1855 96.6 29.0855C97.8 27.9855 99.5 27.3855 101.5 27.3855C103.9 27.3855 105.7 28.1855 106.9 29.8855L106.1 30.3855ZM120.3 39.6856V33.8855H111.6V39.6856H110.4V27.3855H111.6V32.6855H120.3V27.3855H121.5V39.6856H120.3ZM130.4 28.4855V39.6856H129.2V28.4855H124.5V27.3855H135.1V28.4855H130.4ZM152 38.6856C151.1 39.3856 149.8 39.7855 148 39.7855C144.4 39.7855 142.6 38.1855 142.6 34.9855V27.3855H143.8V34.9855C143.8 37.4855 145.2 38.6856 148 38.6856C150.8 38.6856 152.2 37.4855 152.2 35.0855V27.3855H153.4V35.0855C153.4 36.6855 152.9 37.9856 152 38.6856ZM168 39.6856L161.2 33.3855L158.7 35.2855V39.6856H157.5V27.3855H158.7V33.8855L167.5 27.3855H169.5L162.2 32.6855L169.7 39.5855H168V39.6856Z" fill="#252525"/>
</svg>
