<svg width="152" height="100" viewBox="0 0 152 100" fill="none" xmlns="http://www.w3.org/2000/svg">
<g clip-path="url(#clip0_77_1294)">
<path d="M130.3 43.4V50.3H129.5V43.4H130.3ZM133 48.2L132.3 50.4H131.5L133.7 43.5H134.7L136.9 50.4H136L135.3 48.2H133ZM135.1 47.5L134.5 45.5C134.4 45 134.3 44.6 134.2 44.2C134.1 44.6 134 45 133.9 45.5L133.3 47.5H135.1ZM143.6 47.3C143.6 46.3 143.5 45.2 143.5 44.3C143.3 45.1 143 46 142.7 46.9L141.6 50.3H141L140 47C139.7 46 139.4 45.1 139.3 44.3C139.3 45.2 139.2 46.3 139.2 47.4L139 50.4H138.2L138.6 43.5H139.6L140.7 46.9C141 47.8 141.2 48.5 141.3 49.2C141.5 48.5 141.7 47.7 142 46.9L143.1 43.5H144.1L144.5 50.4H143.7L143.6 47.3ZM147.3 43.4V50.3H146.5V43.4H147.3Z" fill="#252525"/>
<path fill-rule="evenodd" clip-rule="evenodd" d="M113.3 46.4C112.8 46.4 112.5 46.9 112.5 47.4C112.5 47.9 112.8 48.4 113.3 48.4C113.7 48.4 114.1 48 114.1 47.4C114.1 47 113.9 46.4 113.3 46.4ZM52.4 46.4C51.9 46.4 51.6 46.9 51.6 47.4C51.6 47.9 51.9 48.4 52.4 48.4C52.8 48.4 53.2 48 53.2 47.4C53.2 47 53 46.4 52.4 46.4ZM79.7 47.9C79.7 48.2 79.9 48.3 80.1 48.3C80.4 48.3 80.6 48.1 80.7 47.9V47.4C80.3 47.4 79.7 47.4 79.7 47.9ZM45.4 45.6C45.3 45.8 45.3 46 45.2 46.2L44.9 47.2H45.9L45.6 46.2C45.5 46 45.4 45.8 45.4 45.6ZM39.7 47.9C39.7 48.2 39.9 48.3 40.1 48.3C40.4 48.3 40.6 48.1 40.7 47.9V47.4C40.2 47.4 39.7 47.4 39.7 47.9ZM64.2 46.4C63.7 46.4 63.4 46.9 63.4 47.4C63.4 47.9 63.7 48.4 64.2 48.4C64.6 48.4 65 48 65 47.4C64.9 47 64.7 46.4 64.2 46.4ZM34.8 46.4C34.3 46.4 34 46.9 34 47.4C34 47.9 34.3 48.4 34.8 48.4C35.2 48.4 35.6 48 35.6 47.4C35.5 47 35.3 46.4 34.8 46.4ZM58 47.9C58 48.2 58.2 48.3 58.4 48.3C58.7 48.3 58.9 48.1 59 47.9V47.4C58.6 47.4 58 47.4 58 47.9ZM70.9 46.4C70.4 46.4 70.1 46.9 70.1 47.4C70.1 47.9 70.4 48.4 70.9 48.4C71.3 48.4 71.7 48 71.7 47.4C71.7 47 71.5 46.4 70.9 46.4ZM12.7 46.4C12.2 46.4 12 46.8 12 47.1H13.3C13.3 46.9 13.2 46.4 12.7 46.4ZM22.2 46.4C21.7 46.4 21.5 46.8 21.5 47.1H22.8C22.8 46.9 22.7 46.4 22.2 46.4ZM28.6 47.9C28.6 48.2 28.8 48.3 29 48.3C29.3 48.3 29.5 48.1 29.6 47.9V47.4C29.2 47.4 28.6 47.4 28.6 47.9ZM93 46.4C92.5 46.4 92.3 46.8 92.3 47.1H93.6C93.7 46.9 93.5 46.4 93 46.4Z" fill="#252525"/>
<path fill-rule="evenodd" clip-rule="evenodd" d="M148.9 38.9H125.2C121.9 30.8 114 25 104.7 25C95.4 25 87.5 30.8 84.2 39H4.9C2.2 39 0 41.2 0 43.9V50.5C0 53.2 2.2 55.4 4.9 55.4H84.2C86.4 61 90.7 65.5 96.2 67.8L95.3 67.5C94 67.2 92.6 66.9 91.3 66.5C88.1 65.5 84.8 64.5 81.6 63.5C78.4 62.5 75.1 62 71.7 62C69.6 62 67.5 62.2 65.5 62.6C59.7 63.6 54.6 66.2 50.5 70.6C49.4 71.8 48.5 73.2 47.9 74.7L48 74.8C48.2 74.6 48.3 74.4 48.5 74.2C48.7 74 48.8 73.8 49 73.6C51.9 70.6 55.4 68.6 59.4 67.2C63.7 65.7 68.2 65.4 72.7 65.8C75.6 66.1 78.5 66.6 81.4 67.5C83.9 68.3 86.5 69.1 89 69.9C93.6 71.3 98.3 72.2 103.1 71.8C105.4 71.6 107.6 71.2 109.8 70.4C109.8 70.4 117.6 67.8 121.8 61.3C123.3 59.5 124.5 57.5 125.3 55.3H149C150.7 55.3 152.1 53.9 152.1 52.2V42C152 40.3 150.6 38.9 148.9 38.9ZM8.5 45.5H7.5V48.6H7V45.5H6V45.1H8.6V45.5H8.5ZM11 48.7H10.5V47.3C10.5 46.9 10.4 46.6 9.9 46.6C9.6 46.6 9.4 46.8 9.3 47.1V48.8H8.9V45H9.4V46.6L9.7 46.3C9.8 46.2 10 46.2 10.2 46.2C10.5 46.2 11.1 46.4 11.1 47.3V48.7H11ZM13.7 47.5H12C12 48.1 12.4 48.4 12.9 48.4C13.2 48.4 13.4 48.3 13.6 48.3L13.7 48.6C13.5 48.7 13.3 48.8 12.9 48.8C12.1 48.8 11.7 48.3 11.7 47.5C11.7 46.7 12.1 46.1 12.9 46.1C13.7 46.1 13.9 46.8 13.9 47.3C13.8 47.4 13.7 47.4 13.7 47.5ZM15.9 48.7H15.5V45.2H15.9V48.7ZM18.8 48.7H18.3V47.3C18.3 46.9 18.2 46.6 17.7 46.6C17.4 46.6 17.2 46.8 17.1 47.1V48.8H16.6V47V46.3H17V46.7C17.1 46.5 17.4 46.2 17.8 46.2C18.1 46.2 18.7 46.4 18.7 47.3V48.7H18.8ZM20.7 46.5H20.1V47.9C20.1 48.2 20.2 48.4 20.4 48.4H20.7V48.7C20.6 48.7 20.5 48.8 20.3 48.8C20.1 48.8 19.9 48.7 19.8 48.6C19.7 48.5 19.6 48.2 19.6 47.9V46.5H19.2V46.2H19.6V45.6L20 45.5V46.2H20.6V46.5H20.7ZM23.2 47.5H21.4C21.4 48.1 21.8 48.4 22.3 48.4C22.6 48.4 22.8 48.3 23 48.3L23.1 48.6C22.9 48.7 22.7 48.8 22.3 48.8C21.5 48.8 21.1 48.3 21.1 47.5C21.1 46.7 21.5 46.1 22.3 46.1C23.1 46.1 23.3 46.8 23.3 47.3C23.2 47.4 23.2 47.4 23.2 47.5ZM25 46.5H24.8C24.5 46.5 24.3 46.7 24.2 47.1V48.6H23.8V46.9V46.1H24.2V46.6C24.3 46.3 24.6 46.1 24.9 46.1H25V46.5ZM27.6 48.7H27.1V47.3C27.1 46.9 27 46.6 26.5 46.6C26.2 46.6 26 46.8 25.9 47.1V48.8H25.4V47V46.3H25.8V46.7C25.9 46.5 26.2 46.2 26.6 46.2C26.9 46.2 27.5 46.4 27.5 47.3V48.7H27.6ZM29.7 48.7V48.4C29.6 48.6 29.3 48.8 28.9 48.8C28.4 48.8 28.1 48.4 28.1 48.1C28.1 47.5 28.6 47.2 29.6 47.2V47C29.6 46.8 29.5 46.4 29 46.4C28.8 46.4 28.5 46.5 28.4 46.6L28.3 46.3C28.5 46.2 28.8 46.1 29.1 46.1C29.9 46.1 30 46.6 30 47.1V48.6H29.7V48.7ZM32 46.5H31.4V47.9C31.4 48.2 31.5 48.4 31.7 48.4H32V48.7C31.9 48.7 31.8 48.8 31.6 48.8C31.4 48.8 31.2 48.7 31.1 48.6C31 48.5 30.9 48.2 30.9 47.9V46.5H30.5V46.2H30.9V45.6L31.3 45.5V46.2H32V46.5ZM33 48.7H32.5V46.2H33V48.7ZM32.7 45.7C32.5 45.7 32.4 45.6 32.4 45.4C32.4 45.2 32.5 45.1 32.7 45.1C32.9 45.1 33 45.2 33 45.4C33 45.6 32.9 45.7 32.7 45.7ZM34.7 48.7C34 48.7 33.5 48.2 33.5 47.4C33.5 46.6 34 46.1 34.7 46.1C35.4 46.1 35.9 46.6 35.9 47.4C36 48.3 35.3 48.7 34.7 48.7ZM38.7 48.7H38.2V47.3C38.2 46.9 38.1 46.6 37.6 46.6C37.3 46.6 37.1 46.8 37 47.1V48.8H36.5V47V46.3H36.9V46.7C37 46.5 37.3 46.2 37.7 46.2C38 46.2 38.6 46.4 38.6 47.3V48.7H38.7ZM40.8 48.7V48.4C40.7 48.6 40.4 48.8 40 48.8C39.5 48.8 39.2 48.4 39.2 48.1C39.2 47.5 39.7 47.2 40.7 47.2V47C40.7 46.8 40.6 46.4 40.1 46.4C39.9 46.4 39.6 46.5 39.5 46.6L39.4 46.3C39.6 46.2 39.9 46.1 40.2 46.1C41 46.1 41.1 46.6 41.1 47.1V48.6H40.8V48.7ZM42.3 48.7H41.8V45H42.3V48.7ZM46.4 48.7L46 47.6H44.8L44.4 48.7H43.9L45.1 45.2H45.6L46.8 48.7H46.4ZM47.8 48.7C47.5 48.7 47.3 48.6 47.1 48.5L47.2 48.2C47.3 48.3 47.6 48.4 47.8 48.4C48.1 48.4 48.3 48.2 48.3 48C48.3 47.8 48.2 47.7 47.8 47.5C47.4 47.3 47.1 47.1 47.1 46.8C47.1 46.4 47.4 46.1 48 46.1C48.3 46.1 48.5 46.2 48.6 46.3L48.5 46.6C48.4 46.5 48.2 46.5 48 46.5C47.7 46.5 47.6 46.7 47.6 46.8C47.6 47 47.7 47.1 48.1 47.2C48.5 47.4 48.8 47.6 48.8 48C48.8 48.4 48.4 48.7 47.8 48.7ZM49.9 48.7C49.6 48.7 49.4 48.6 49.2 48.5L49.3 48.2C49.4 48.3 49.7 48.4 49.9 48.4C50.2 48.4 50.4 48.2 50.4 48C50.4 47.8 50.3 47.7 49.9 47.5C49.5 47.3 49.2 47.1 49.2 46.8C49.2 46.4 49.5 46.1 50.1 46.1C50.4 46.1 50.6 46.2 50.7 46.3L50.6 46.6C50.5 46.5 50.3 46.5 50.1 46.5C49.8 46.5 49.7 46.7 49.7 46.8C49.7 47 49.8 47.1 50.2 47.2C50.6 47.4 50.9 47.6 50.9 48C50.8 48.4 50.5 48.7 49.9 48.7ZM52.4 48.7C51.7 48.7 51.2 48.2 51.2 47.4C51.2 46.6 51.7 46.1 52.4 46.1C53.1 46.1 53.6 46.6 53.6 47.4C53.6 48.3 53 48.7 52.4 48.7ZM55.4 48.3C55.7 48.3 55.8 48.2 56 48.2L56.1 48.5C56 48.6 55.7 48.6 55.4 48.6C54.6 48.6 54.2 48.1 54.2 47.3C54.2 46.5 54.7 46 55.5 46C55.8 46 56 46.1 56.1 46.1L56 46.5C55.9 46.4 55.7 46.4 55.5 46.4C54.9 46.4 54.6 46.8 54.6 47.3C54.5 48 54.9 48.3 55.4 48.3ZM57 48.7H56.5V46.2H57V48.7ZM56.7 45.7C56.5 45.7 56.4 45.6 56.4 45.4C56.4 45.2 56.5 45.1 56.7 45.1C56.9 45.1 57 45.2 57 45.4C57 45.6 56.9 45.7 56.7 45.7ZM59.1 48.7V48.4C59 48.6 58.7 48.8 58.3 48.8C57.8 48.8 57.5 48.4 57.5 48.1C57.5 47.5 58 47.2 59 47.2V47C59 46.8 58.9 46.4 58.4 46.4C58.2 46.4 57.9 46.5 57.8 46.6L57.7 46.3C57.9 46.2 58.2 46.1 58.5 46.1C59.3 46.1 59.4 46.6 59.4 47.1V48.6H59.1V48.7ZM61.4 46.5H60.8V47.9C60.8 48.2 60.9 48.4 61.1 48.4H61.4V48.7C61.3 48.7 61.2 48.8 61 48.8C60.8 48.8 60.6 48.7 60.5 48.6C60.4 48.5 60.3 48.2 60.3 47.9V46.5H59.9V46.2H60.3V45.6L60.7 45.5V46.2H61.3V46.5H61.4ZM62.4 48.7H61.9V46.2H62.4V48.7ZM62.1 45.7C61.9 45.7 61.8 45.6 61.8 45.4C61.8 45.2 61.9 45.1 62.1 45.1C62.3 45.1 62.4 45.2 62.4 45.4C62.4 45.6 62.3 45.7 62.1 45.7ZM64.1 48.7C63.4 48.7 62.9 48.2 62.9 47.4C62.9 46.6 63.4 46.1 64.1 46.1C64.8 46.1 65.3 46.6 65.3 47.4C65.4 48.3 64.7 48.7 64.1 48.7ZM68.1 48.7H67.6V47.3C67.6 46.9 67.5 46.6 67 46.6C66.7 46.6 66.5 46.8 66.4 47.1V48.8H65.9V47V46.3H66.3V46.7C66.4 46.5 66.7 46.2 67.1 46.2C67.4 46.2 68 46.4 68 47.3V48.7H68.1ZM70.9 48.7C70.2 48.7 69.7 48.2 69.7 47.4C69.7 46.6 70.2 46.1 70.9 46.1C71.6 46.1 72.1 46.6 72.1 47.4C72.1 48.3 71.5 48.7 70.9 48.7ZM74 45.3C73.9 45.3 73.8 45.2 73.7 45.2C73.3 45.2 73.2 45.5 73.2 45.9V46H73.8V46.3H73.2V48.5H72.8V46.3H72.4V46H72.8C72.8 45.6 72.9 45.3 73.1 45.1C73.3 44.9 73.5 44.9 73.7 44.9C73.9 44.9 74 44.9 74.1 45L74 45.3ZM78.3 48.7L78.2 47.2C78.2 46.7 78.1 46.1 78.1 45.7C78 46.1 77.8 46.5 77.7 47L77.1 48.7H76.8L76.2 47C76 46.5 75.9 46.1 75.8 45.6C75.8 46 75.8 46.6 75.7 47.1L75.6 48.6H75.2L75.4 45.1H76L76.6 46.8C76.7 47.2 76.9 47.6 77 48C77.1 47.6 77.2 47.3 77.4 46.8L78 45.1H78.6L78.8 48.6H78.3V48.7ZM80.9 48.7V48.4C80.8 48.6 80.5 48.8 80.1 48.8C79.6 48.8 79.3 48.4 79.3 48.1C79.3 47.5 79.8 47.2 80.8 47.2V47C80.8 46.8 80.7 46.4 80.2 46.4C80 46.4 79.7 46.5 79.6 46.6L79.5 46.3C79.7 46.2 80 46.1 80.3 46.1C81.1 46.1 81.2 46.6 81.2 47.1V48.6H80.9V48.7ZM83.2 46.5H83C82.7 46.5 82.5 46.7 82.4 47.1V48.6H82V46.9V46.1H82.4V46.6C82.5 46.3 82.8 46.1 83.1 46.1H83.2V46.5ZM84.1 48.7H83.6V46.2H84.1V48.7ZM83.9 45.7C83.7 45.7 83.6 45.6 83.6 45.4C83.6 45.2 83.7 45.1 83.9 45.1C84.1 45.1 84.2 45.2 84.2 45.4C84.2 45.6 84.1 45.7 83.9 45.7ZM123.8 39H115.1C115 38.4 114.9 37.8 114.7 37.3H123C123.3 37.8 123.6 38.4 123.8 39ZM118.5 47.5C118.1 47.3 117.8 47.1 117.8 46.8C117.8 46.4 118.1 46.1 118.7 46.1C119 46.1 119.2 46.2 119.3 46.3L119.2 46.6C119.1 46.5 118.9 46.5 118.7 46.5C118.4 46.5 118.3 46.7 118.3 46.8C118.3 47 118.4 47.1 118.8 47.2C119.2 47.4 119.5 47.6 119.5 48C119.5 48.4 119.2 48.8 118.6 48.8C118.3 48.8 118.1 48.7 117.9 48.6L118 48.3C118.1 48.4 118.4 48.5 118.6 48.5C118.9 48.5 119.1 48.3 119.1 48.1C119 47.8 118.9 47.7 118.5 47.5ZM116.2 46.5C115.9 46.5 115.7 46.7 115.6 47V48.7H115.1V46.9V46.2H115.5V46.6C115.6 46.4 115.9 46.1 116.3 46.1C116.6 46.1 117.2 46.3 117.2 47.2V48.7H116.7V47.3C116.8 46.8 116.6 46.5 116.2 46.5ZM122.2 35.9H114.3C113.2 32.4 111.7 29.3 109.7 26.9C115 28.2 119.4 31.5 122.2 35.9ZM107.5 48.3C107.8 48.3 108 48.1 108.1 47.9V46.2H108.6V48.7H108.2V48.3C108.1 48.5 107.8 48.8 107.4 48.8C107 48.8 106.5 48.6 106.5 47.7V46.2H107V47.6C107 48 107.1 48.3 107.5 48.3ZM114 55.3C113.9 56 113.7 56.6 113.6 57.3H105.4V55.3H114ZM110.6 46.1V46.4H110V47.8C110 48.1 110.1 48.3 110.3 48.3H110.6V48.6C110.5 48.6 110.4 48.7 110.2 48.7C110 48.7 109.8 48.6 109.7 48.5C109.6 48.4 109.5 48.1 109.5 47.8V46.4H109.1V46.1H109.5V45.5L109.9 45.4V46.1H110.6ZM111.3 45.7C111.1 45.7 111 45.6 111 45.4C111 45.2 111.1 45.1 111.3 45.1C111.5 45.1 111.6 45.2 111.6 45.4C111.6 45.6 111.5 45.7 111.3 45.7ZM111.5 46.1V48.6H111V46.1H111.5ZM113.3 48.7C112.6 48.7 112.1 48.2 112.1 47.4C112.1 46.6 112.6 46.1 113.3 46.1C114 46.1 114.5 46.6 114.5 47.4C114.5 48.3 113.9 48.7 113.3 48.7ZM105.4 26.3C106.2 26.3 107 26.4 107.7 26.5C110 28.9 111.8 32.1 113 35.9H105.3V26.3H105.4ZM105.4 37.2H113.4C113.6 37.8 113.7 38.3 113.8 38.9H105.3V37.2H105.4ZM104.1 26.3V35.9H96.3C97.5 32.1 99.3 28.9 101.6 26.5C102.4 26.4 103.2 26.3 104.1 26.3ZM102.8 48.3H103.1V48.6C103 48.6 102.9 48.7 102.7 48.7C102.5 48.7 102.3 48.6 102.2 48.5C102.1 48.4 102 48.1 102 47.8V46.4H101.6V46.1H102V45.5L102.4 45.4V46.1H103V46.4H102.4V47.8C102.5 48.2 102.6 48.3 102.8 48.3ZM95.5 39C95.6 38.4 95.8 37.8 95.9 37.3H104.1V39H95.5ZM100.4 47.5C100 47.3 99.7 47.1 99.7 46.8C99.7 46.4 100 46.1 100.6 46.1C100.9 46.1 101.1 46.2 101.2 46.3L101.1 46.6C101 46.5 100.8 46.5 100.6 46.5C100.3 46.5 100.2 46.7 100.2 46.8C100.2 47 100.3 47.1 100.7 47.2C101.1 47.4 101.4 47.6 101.4 48C101.4 48.4 101.1 48.8 100.5 48.8C100.2 48.8 100 48.7 99.8 48.6L99.9 48.3C100 48.4 100.3 48.5 100.5 48.5C100.8 48.5 101 48.3 101 48.1C100.9 47.8 100.8 47.7 100.4 47.5ZM98.1 46.5C97.8 46.5 97.6 46.7 97.5 47V48.7H97V46.9V46.2H97.4V46.6C97.5 46.4 97.8 46.1 98.2 46.1C98.5 46.1 99.1 46.3 99.1 47.2V48.7H98.6V47.3C98.7 46.8 98.6 46.5 98.1 46.5ZM96.2 45.2V48.7H95.8V45.2H96.2ZM99.5 27C97.5 29.4 96 32.5 94.9 36H87.2C90 31.6 94.4 28.3 99.5 27ZM86.4 37.2H94.5C94.3 37.8 94.2 38.3 94.1 38.9H85.6C85.9 38.4 86.1 37.8 86.4 37.2ZM93.2 48.4C93.5 48.4 93.7 48.3 93.9 48.3L94 48.6C93.8 48.7 93.6 48.8 93.2 48.8C92.4 48.8 92 48.3 92 47.5C92 46.7 92.4 46.1 93.2 46.1C94 46.1 94.2 46.8 94.2 47.3V47.5H92.4C92.3 48.1 92.7 48.4 93.2 48.4ZM90.4 46.5C90.1 46.5 89.9 46.7 89.9 46.9V48.6H89.5V47.1C89.5 46.7 89.3 46.4 89 46.4C88.7 46.4 88.5 46.6 88.4 46.9V48.6H88V46.8V46.1H88.4V46.5C88.5 46.3 88.8 46 89.2 46C89.5 46 89.8 46.2 89.9 46.5L90.2 46.2C90.3 46.1 90.5 46 90.8 46C91.1 46 91.6 46.2 91.6 47.1V48.6H91.2V47.2C90.9 46.7 90.7 46.5 90.4 46.5ZM86.8 45.7C86.6 45.7 86.5 45.6 86.5 45.4C86.5 45.2 86.6 45.1 86.8 45.1C87 45.1 87.1 45.2 87.1 45.4C87.1 45.6 87 45.7 86.8 45.7ZM87 46.1V48.6H86.5V46.1H87ZM85 47.9V46.5H84.6V46.2H85V45.6L85.4 45.5V46.2H86V46.5H85.4V47.9C85.4 48.2 85.5 48.4 85.7 48.4H86V48.7C85.9 48.7 85.8 48.8 85.6 48.8C85.4 48.8 85.2 48.7 85.1 48.6C85 48.4 85 48.2 85 47.9ZM85.5 55.3H94C94.1 56 94.3 56.6 94.4 57.3H86.5C86.1 56.7 85.8 56 85.5 55.3ZM87.2 58.6H94.7C95.6 61.9 97 64.9 98.7 67.3C94 65.9 89.9 62.7 87.2 58.6ZM104.1 68.2C103 68.2 101.9 68 100.8 67.8C98.8 65.4 97.2 62.2 96.1 58.6H104.1V68.2ZM104.1 57.3H95.7C95.5 56.7 95.4 56 95.3 55.3H104.1V57.3ZM104.1 48.7H103.6V46.2H104.1V48.7ZM103.9 45.7C103.7 45.7 103.6 45.6 103.6 45.4C103.6 45.2 103.7 45.1 103.9 45.1C104.1 45.1 104.2 45.2 104.2 45.4C104.1 45.6 104 45.7 103.9 45.7ZM104.9 47.9V46.5H104.5V46.2H104.9V45.6L105.3 45.5V46.2H105.9V46.5H105.3V47.9C105.3 48.2 105.4 48.4 105.6 48.4H105.9V48.7C105.8 48.7 105.7 48.8 105.5 48.8C105.3 48.8 105.1 48.7 105 48.6C105 48.4 104.9 48.2 104.9 47.9ZM108.5 67.8C107.5 68 106.4 68.1 105.4 68.1V58.5H113.3C112.1 62.2 110.5 65.4 108.5 67.8ZM110.5 67.4C112.2 65 113.6 62 114.6 58.6H122.2C119.5 62.8 115.3 66 110.5 67.4ZM123 57.3H114.9C115.1 56.7 115.2 56 115.3 55.3H123.9C123.6 56 123.3 56.7 123 57.3ZM151.2 52.3C151.2 53.6 150.2 54.6 148.9 54.6H125.5C126.3 52.3 126.8 49.8 126.8 47.3C126.8 44.7 126.3 42.1 125.5 39.8H148.9C150.2 39.8 151.2 40.8 151.2 42.1V52.3Z" fill="#252525"/>
</g>
<defs>
<clipPath id="clip0_77_1294">
<rect width="152" height="100" fill="white"/>
</clipPath>
</defs>
</svg>
