<svg width="27" height="28" viewBox="0 0 27 28" fill="none" xmlns="http://www.w3.org/2000/svg">
<g clip-path="url(#clip0_77_1120)">
<path fill-rule="evenodd" clip-rule="evenodd" d="M0 14.0275C0 10.5264 1.3908 7.16869 3.86644 4.69304C6.34209 2.2174 9.69978 0.826599 13.2009 0.826599C16.702 0.826599 20.0596 2.2174 22.5353 4.69304C25.0109 7.16869 26.4017 10.5264 26.4017 14.0275C26.4017 17.5286 25.0109 20.8862 22.5353 23.3619C20.0596 25.8375 16.702 27.2283 13.2009 27.2283C9.69978 27.2283 6.34209 25.8375 3.86644 23.3619C1.3908 20.8862 0 17.5286 0 14.0275H0ZM12.4475 19.6774L20.0477 10.1763L18.6748 9.07802L12.1941 17.1763L7.6037 13.3516L6.47723 14.7033L12.4475 19.6792V19.6774Z" fill="#1DC580"/>
</g>
<defs>
<clipPath id="clip0_77_1120">
<rect width="26.4017" height="26.4017" fill="white" transform="translate(0 0.826599)"/>
</clipPath>
</defs>
</svg>
