<svg id="Layer_1" data-name="Layer 1" xmlns="http://www.w3.org/2000/svg" viewBox="0 0 83 87"><defs><style>.cls-1{fill:#fff;}.cls-2{fill:none;stroke:#fff;stroke-miterlimit:10;stroke-width:3px;}</style></defs><path class="cls-1" d="M60,32.05a15.15,15.15,0,0,1-4.35,1.19,7.61,7.61,0,0,0,3.33-4.18,15.37,15.37,0,0,1-4.81,1.83A7.58,7.58,0,0,0,41.22,37.8a21.51,21.51,0,0,1-15.61-7.92A7.6,7.6,0,0,0,28,40a7.53,7.53,0,0,1-3.44-1v.1a7.57,7.57,0,0,0,6.08,7.42,7.43,7.43,0,0,1-3.42.13A7.57,7.57,0,0,0,34.25,52,15.42,15.42,0,0,1,23,55.1a21.41,21.41,0,0,0,11.61,3.4C48.58,58.5,56.2,47,56.2,37c0-.32,0-.66,0-1A15.48,15.48,0,0,0,60,32.05Z"/><rect class="cls-2" x="5.23" y="5.78" width="72.54" height="75.44" rx="4.12"/></svg>