<svg width="24" height="24" viewBox="0 0 24 24" fill="none" xmlns="http://www.w3.org/2000/svg">
<g id="Group 1">
<path id="Vector" d="M0.100313 11.892C0.0996563 13.9879 0.649687 16.034 1.69537 17.8376L0 24L6.33478 22.3464C8.08022 23.2938 10.0454 23.7934 12.0451 23.7941H12.0502C18.636 23.7941 23.9972 18.4585 24 11.9015C24.0011 8.72373 22.7591 5.73552 20.5031 3.48762C18.2468 1.24001 15.2468 0.00130665 12.0502 0C5.46337 0 0.102938 5.33485 0.100313 11.892ZM3.87291 17.527L3.63637 17.1532C2.64206 15.5792 2.11725 13.7604 2.118 11.8927C2.12006 6.4426 6.57544 2.0085 12.054 2.0085C14.7071 2.00962 17.2005 3.03926 19.0759 4.90739C20.9512 6.7757 21.9831 9.25926 21.9824 11.9007C21.98 17.3509 17.5245 21.7855 12.0502 21.7855H12.0463C10.2638 21.7846 8.51569 21.308 6.99113 20.4075L6.62831 20.1933L2.86912 21.1745L3.87291 17.527Z" fill="url(#paint0_linear_269_449)"/>
<path id="Vector_2" d="M2.08336 11.9099C2.08287 13.6563 2.54125 15.3616 3.41284 16.8646L2 22L7.2791 20.622C8.73924 21.4133 10.3752 21.8279 12.0377 21.8281H12.042C17.5302 21.8281 21.9977 17.3822 22 11.9177C22.0011 9.26975 20.9661 6.77979 19.0859 4.90648C17.2059 3.03333 14.7056 2.00121 12.0416 2C6.55285 2 2.0857 6.44561 2.08344 11.9099" fill="url(#paint1_linear_269_449)"/>
<path id="Vector_3" d="M8.5593 5.65037C8.30125 5.03196 8.02968 5.01949 7.78428 5.00864C7.58333 4.99931 7.35362 5.00001 7.12412 5.00001C6.8944 5.00001 6.52117 5.09319 6.20569 5.4646C5.88988 5.83637 5 6.73477 5 8.562C5 10.3892 6.23435 12.1553 6.40642 12.4033C6.5787 12.6509 8.78935 16.5206 12.2905 18.0093C15.2002 19.2465 15.7923 19.0004 16.4238 18.9384C17.0555 18.8766 18.4619 18.0402 18.7488 17.1729C19.0359 16.3058 19.0359 15.5625 18.9499 15.4072C18.8638 15.2524 18.6341 15.1595 18.2896 14.9738C17.9451 14.7882 16.2516 13.8895 15.9359 13.7656C15.6201 13.6417 15.3904 13.5799 15.1607 13.9518C14.931 14.3231 14.2714 15.1595 14.0703 15.4072C13.8695 15.6554 13.6684 15.6863 13.3241 15.5006C12.9794 15.3142 11.8701 14.9225 10.554 13.6574C9.52998 12.6729 8.83866 11.4572 8.63772 11.0853C8.43677 10.714 8.61619 10.5127 8.78891 10.3277C8.94368 10.1613 9.13349 9.89398 9.30588 9.67719C9.47763 9.46029 9.53495 9.30554 9.64981 9.05785C9.76477 8.80993 9.70724 8.59302 9.62126 8.40726C9.53495 8.22149 8.86559 6.38469 8.5593 5.65037Z" fill="white"/>
</g>
<defs>
<linearGradient id="paint0_linear_269_449" x1="1200" y1="2400" x2="1200" y2="0" gradientUnits="userSpaceOnUse">
<stop stop-color="#F9F9F9"/>
<stop offset="1" stop-color="white"/>
</linearGradient>
<linearGradient id="paint1_linear_269_449" x1="1002" y1="2002" x2="1002" y2="2" gradientUnits="userSpaceOnUse">
<stop stop-color="#1FAF38"/>
<stop offset="1" stop-color="#60D669"/>
</linearGradient>
</defs>
</svg>
