<svg version="1.2" baseProfile="tiny" xmlns="http://www.w3.org/2000/svg" width="64" height="64" viewBox="0 0 64 64" overflow="visible"><g id="Layer_1"><g><g><path fill="#FFF" d="M12.8 24.7l-3.1-1.2.3-.7 3.1 1.2-.3.7z"/></g><g><path fill="#FFF" d="M11.6 19.6l.4-.7 2.9 1.6-.4.7-2.5.2 1.8 1-.4.7-2.9-1.6.4-.7 2.5-.1-1.8-1.1z"/></g><g><path fill="#FFF" d="M13.7 16.8c1.5-1.9 4.1.4 2.5 2.1l-.8.9-2.5-2.1.8-.9zm1.8 2c.5-.5.7-1.2.1-1.7s-1.3-.3-1.7.4l1.6 1.3z"/></g><g><path fill="#FFF" d="M17.1 16l-1.3-1.5.6-.5 1.3 1.5c.2.3.5.4.8.1.3-.2.3-.6.1-.8l-1.3-1.5.6-.5c.3.5 1.6 1.7 1.6 2.2.2 1.2-1.6 2.1-2.4 1z"/></g><g><path fill="#FFF" d="M20.4 11.9c-.3.1-.2.5.1.6.3.1.6-.1 1-.2.7-.2 1.3.5 1 1.2-.3.8-1.7 1.4-2.2.4l.7-.4c.5.7 1.2-.6.2-.5-.6.1-1.3.4-1.7-.2-.7-1.1 1.5-2.4 2.1-1.2l-.7.4c-.1-.2-.3-.3-.5-.1z"/></g><g><path fill="#FFF" d="M22.5 10.8l-.2-.6 2.4-.9.2.6-.8.3 1 2.5-.8.3-1-2.5-.8.3z"/></g><g><path fill="#FFF" d="M27 10.8l.3 1.3-.8.2-.7-3.3c.6-.1 1.7-.5 2.2-.2.7.4.6 1.4-.1 1.7l1.1 1.1-.9.2-1.1-1zm-.3-1.4l.2.8c.3-.1.9-.1.8-.6-.1-.5-.6-.3-1-.2z"/></g><g><path fill="#FFF" d="M31.5 11.5h-.8v-1.1l-1.2-2.2h.9l.6 1.5.6-1.5h.9l-1 2.3v1z"/></g><g><path fill="#FFF" d="M35 8.9l.1-.6 2.6.5-.1.6-.9-.2-.5 2.6-.8-.1.5-2.6-.9-.2z"/></g><g><path fill="#FFF" d="M38.9 11.3l-.4 1.2-.8-.3 1.1-3.1c.5.2 1.7.5 2 1 .4.7-.2 1.5-1 1.4l.3 1.5-.9-.3-.3-1.4zm.5-1.3l-.3.7c.3.1.8.4 1-.1.2-.4-.4-.5-.7-.6z"/></g><g><path fill="#FFF" d="M41.5 12.3l1-1.7.7.4-1 1.7c-.2.3-.1.6.2.8.3.2.6.1.8-.3l1-1.7.7.4c-.3.5-1 2.1-1.5 2.3-1.2.6-2.7-.8-1.9-1.9z"/></g><g><path fill="#FFF" d="M46.6 13.9c-.2-.2-.6 0-.5.3 0 .3.3.6.5.8.4.6 0 1.4-.7 1.4-.9 0-1.9-1.1-1.2-1.9l.7.5c-.5.8 1 .9.5.1-.3-.5-.9-1.1-.4-1.6.8-1.1 2.8.5 1.9 1.5l-.7-.6c.1-.2 0-.4-.1-.5z"/></g><g><path fill="#FFF" d="M48.3 15.4l.5-.4 1.8 1.9-.5.4-.6-.7-2 1.8-.5-.6 2-1.8-.7-.6z"/></g><g><path fill="#FFF" d="M52.3 19.5l-.5.3-.7-1-.6.4.6.9-.5.3-.6-.8-.6.4.7 1-.5.3-1.1-1.7 2.7-1.9 1.1 1.8z"/></g><g><path fill="#FFF" d="M53.5 21.8c1.1 2.1-2 3.6-3 1.4l-.5-1.1 3-1.4.5 1.1zm-2.6.8c.2.7.8 1.1 1.5.8.7-.3.8-1 .4-1.7l-1.9.9z"/></g></g><g><g><path fill="#FFF" d="M51.2 39.1l3.1 1.2-.3.8-3.1-1.2.3-.8z"/></g><g><path fill="#FFF" d="M52.5 44.2l-.4.7-2.9-1.6.4-.7 2.5-.2-1.8-1 .4-.7 2.9 1.6-.4.7-2.5.2 1.8 1z"/></g><g><path fill="#FFF" d="M50.4 47.1c-1.5 1.9-4.1-.3-2.5-2.1l.7-.9 2.5 2.1-.7.9zm-1.8-2c-.5.5-.7 1.2-.1 1.7s1.3.2 1.7-.4l-1.6-1.3z"/></g><g><path fill="#FFF" d="M47.1 47.9l1.3 1.5-.6.5-1.3-1.5c-.2-.3-.5-.4-.8-.1-.3.2-.3.6-.1.8l1.3 1.5-.6.5c-.3-.5-1.6-1.6-1.6-2.2-.2-1.2 1.6-2.2 2.4-1z"/></g><g><path fill="#FFF" d="M43.8 52c.3-.1.2-.5-.1-.6-.2-.1-.4 0-.6.1-.8.4-1.7-.2-1.4-1.1.3-.8 1.7-1.4 2.2-.4l-.7.4c-.6-.7-1.2.6-.2.5.6-.1 1.3-.4 1.7.2.7 1.1-1.4 2.5-2.1 1.2l.8-.4c0 .2.2.3.4.1z"/></g><g><path fill="#FFF" d="M41.7 53.1l.2.6-2.4 1-.2-.6.8-.3-1-2.5.7-.3 1 2.5.9-.4z"/></g><g><path fill="#FFF" d="M37.2 53.2l-.3-1.3.8-.2.7 3.2c-.6.1-1.7.5-2.2.2-.7-.4-.7-1.4.1-1.7l-1.1-1.1.9-.2 1.1 1.1zm.3 1.4l-.2-.8c-.3.1-.9.1-.8.6.1.5.7.2 1 .2z"/></g><g><path fill="#FFF" d="M32.7 52.5h.8l.1 1.1 1.3 2.2H34l-.7-1.5-.5 1.5h-.9l1-2.3-.2-1z"/></g><g><path fill="#FFF" d="M29.2 55.1l-.1.6-2.6-.5.1-.6.9.2.5-2.7.8.1-.5 2.7.9.2z"/></g><g><path fill="#FFF" d="M25.3 52.7l.4-1.2.8.3-1.1 3.1c-.5-.2-1.7-.4-2-1-.4-.7.2-1.5.9-1.4L24 51l.9.3.4 1.4zm-.5 1.4l.3-.8c-.3-.1-.8-.4-1 .1-.2.5.4.6.7.7z"/></g><g><path fill="#FFF" d="M22.7 51.8l-1 1.7-.7-.3 1-1.7c.2-.3.1-.6-.2-.8-.3-.2-.6-.1-.8.3l-1 1.7-.7-.4c.3-.5 1-2.1 1.5-2.3 1.1-.7 2.6.6 1.9 1.8z"/></g><g><path fill="#FFF" d="M17.6 50.2c.2.2.6 0 .5-.3 0-.3-.3-.6-.5-.8-.4-.6 0-1.4.7-1.4.9 0 1.9 1.1 1.2 1.9l-.7-.5c.5-.8-1-.9-.5 0 .3.5.9 1.1.4 1.6-.8 1.1-2.8-.4-1.9-1.5l.7.5c-.1.2-.1.4.1.5z"/></g><g><path fill="#FFF" d="M15.8 48.7l-.4.4-1.8-1.9.4-.4.6.7 2-1.8.5.6-2 1.8.7.6z"/></g><g><path fill="#FFF" d="M11.8 44.7l.5-.3.7 1 .6-.4-.6-1 .5-.3.6.9.6-.4-.7-1 .5-.3 1.1 1.6-2.7 1.9-1.1-1.7z"/></g><g><path fill="#FFF" d="M10.6 42.4c-1.1-2.1 2-3.6 3-1.4l.5 1.1-3 1.4-.5-1.1zm2.5-.8c-.2-.7-.8-1.1-1.5-.8-.7.3-.8 1-.4 1.7l1.9-.9z"/></g></g><g><g><path fill="#FFF" d="M64 32c0-1.8-3.7-3.2-4-4.9-.3-1.8 2.7-4.4 2.1-6-.6-1.7-4.6-1.8-5.4-3.3-.9-1.5 1-5-.1-6.3-1.1-1.3-4.9-.1-6.2-1.2-1.3-1.1-.8-5-2.3-5.9-1.5-.9-4.6 1.6-6.3 1-1.6-.6-2.4-4.5-4.2-4.8-1.7-.3-3.8 3.1-5.6 3.1-1.8 0-3.9-3.4-5.6-3.1-1.8.3-2.5 4.2-4.2 4.8-1.7.6-4.8-1.9-6.3-1-1.5.9-.9 4.8-2.3 5.9-1.3 1.1-5.1-.1-6.2 1.2-1.1 1.3.8 4.8-.1 6.3s-4.8 1.6-5.4 3.3c-.6 1.6 2.4 4.3 2.1 6-.3 1.7-4 3.2-4 4.9 0 1.8 3.7 3.2 4 4.9.3 1.8-2.7 4.4-2.1 6 .6 1.7 4.6 1.8 5.4 3.3.9 1.5-1 5 .1 6.3 1.1 1.3 4.9.1 6.2 1.2 1.3 1.1.8 5 2.3 5.9 1.5.9 4.6-1.6 6.3-1 1.6.6 2.4 4.5 4.2 4.8 1.7.3 3.8-3.1 5.6-3.1 1.8 0 3.9 3.4 5.6 3.1 1.8-.3 2.5-4.2 4.2-4.8 1.7-.6 4.8 1.9 6.3 1 1.5-.9.9-4.8 2.3-5.9 1.3-1.1 5.1.1 6.2-1.2 1.1-1.3-.8-4.8.1-6.3s4.8-1.6 5.4-3.3c.6-1.6-2.4-4.3-2.1-6 .3-1.7 4-3.1 4-4.9zM32.3 58.9c-14.9 0-27-12.1-27-27 1.4-35.8 52.6-35.8 54 0 0 14.9-12.1 27-27 27z"/></g></g><g><g><path fill="#FFF" d="M32 14.9c9.4 0 17.1 7.7 17.1 17.1-.9 22.7-33.3 22.7-34.3 0 .1-9.4 7.8-17.1 17.2-17.1m0-1C22 13.9 13.9 22 13.9 32c1 24.1 35.3 24 36.3 0C50.1 22 42 13.9 32 13.9z"/></g></g></g><g id="Layer_3" fill="#1DC580"><g><path d="M23.8 35.1v-9.2h-2v-2.7h5V35h-3zM30.7 23.4c6.8-3.2 9.4 8.1 4.4 11.1-6.7 3.3-9.4-8-4.4-11.1zm3.1 2.5c-3.4-1.3-3.5 5-1.7 6.3 3.4 1.3 3.5-5 1.7-6.3zM42.2 28.9v1H41v1.2h-1v-1.2h-1.2v-1H40v-1.2h1.1v1.2h1.1z"/></g><g><path d="M24.6 41h-1.1v-1.5l-1.6-3.2h1.3l.9 2.1.9-2.1h1.3l-1.6 3.2V41zM29.3 36.3v.9h-1.7v1h1.5v.9h-1.5v1.1h1.7v.8h-2.8v-4.7h2.8zM32.9 41l-.3-.8H31l-.3.8h-1.2l1.6-4.7h1.4l1.6 4.7h-1.2zm-1.6-1.6h1.1l-.6-1.7-.5 1.7zM35.5 39.2V41h-1.1v-4.7c.8.1 2.5-.2 3.1.4.8.7.5 2.1-.6 2.4L38 41h-1.3l-1.1-1.8h-.1zm0-2v1.1c1.7.3 1.7-1.4 0-1.1zM40.1 37.2c-1 .1-.3 1.1.4 1.1 4.1 1.2-1.7 4.8-2.1 1.3h1.2c.1 1.3 1.9.1.6-.4-.8-.2-1.9-.4-1.9-1.5 0-1.9 3.5-2 3.4 0h-1.2c0-.3-.1-.5-.4-.5z"/></g></g></svg>