<svg version="1.2" baseProfile="tiny" id="Layer_1" xmlns="http://www.w3.org/2000/svg" x="0" y="0" width="64" height="64" viewBox="0 0 64 64" overflow="visible" xml:space="preserve"><g fill="none" stroke-width="2" stroke-linejoin="round" stroke-miterlimit="10"><path stroke="#FFF" stroke-linecap="round" d="M17.2 17.2H3.7L19.9 1v13.5c0 1.5-1.3 2.7-2.7 2.7zM54.9 38.9v21.4c0 1.5-1.2 2.7-2.7 2.7H6.4c-1.5 0-2.7-1.2-2.7-2.7V22.7M25.2 1h27c1.5 0 2.7 1.2 2.7 2.7v13.5"/><path stroke="#1DC580" stroke-linecap="round" d="M37.4 50.2L27 54.9l4.7-10.4 22.9-22.9 5.7 5.7z"/><path stroke="#1DC580" d="M55.8 31.8l-5.7-5.7M37.4 50.2l-5.7-5.7"/></g></svg>