<svg version="1.2" baseProfile="tiny" id="Layer_2" xmlns="http://www.w3.org/2000/svg" x="0" y="0" width="64" height="64" viewBox="0 0 64 64" overflow="visible" xml:space="preserve"><path fill="none" stroke="#FFF" stroke-width="2" stroke-linecap="round" stroke-linejoin="round" stroke-miterlimit="10" d="M58 53H6c-2.8 0-5-2.2-5-5V16c0-2.8 2.2-5 5-5h52c2.8 0 5 2.2 5 5v32c0 2.8-2.2 5-5 5z"/><path fill="none" stroke="#1DC580" stroke-width="2" stroke-linecap="round" stroke-linejoin="round" stroke-miterlimit="10" d="M16 39v7M16 18v15M32 27v19M32 18v3M48 35v11M48 18v11"/><circle fill="none" stroke="#1DC580" stroke-width="2" stroke-linecap="round" stroke-linejoin="round" stroke-miterlimit="10" cx="16" cy="36" r="3"/><circle fill="none" stroke="#1DC580" stroke-width="2" stroke-linecap="round" stroke-linejoin="round" stroke-miterlimit="10" cx="32" cy="24" r="3"/><circle fill="none" stroke="#1DC580" stroke-width="2" stroke-linecap="round" stroke-linejoin="round" stroke-miterlimit="10" cx="48" cy="32" r="3"/></svg>