<svg version="1.2" baseProfile="tiny" id="Layer_5" xmlns="http://www.w3.org/2000/svg" x="0" y="0" width="64" height="64" viewBox="0 0 64 64" overflow="visible" xml:space="preserve"><path fill="none" stroke="#FFF" stroke-width="2" stroke-linecap="round" stroke-linejoin="round" stroke-miterlimit="10" d="M15.8 22.3c-1.8 1.3-3.2 2.9-4.1 4.6-1.2 2.4-2 5.7-8.3 6.3-5.3.5-.5 6.1 1.3 8 .3.3.8.5 1.3.6 1.4.2 4.7.9 7.5 2.5 1.7 1 3 2.4 3.9 4.1 1.7 3.1 2.5 6.6 2.8 8.3.1.6.7 1.1 1.3 1.1H25c.6 0 1.1-.4 1.3-1l1.7-5.5c.1-.3.3-.4.6-.4 1.6.2 3.3.3 5.1.3 3.5 0 6.9-.4 9.9-1.3M26.6 22.3c.6-4.4-.3-11.9-13.6-10 0 0 4.8 3.7 6.7 11.4"/><path fill="none" stroke="#FFF" stroke-width="2" stroke-linecap="round" stroke-linejoin="round" stroke-miterlimit="10" d="M41.9 53.4l.8 3.4c.1.6.7 1 1.3 1h3.4c.7 0 1.2-.5 1.3-1.1.4-2.2 1.6-7.6 5.2-12.5C58.3 38 57.2 33 57.2 33c3.7-.5 7.4-5.8 5.2-10-.7 2.8-3.7 4.8-6.5 4.8h0c-3.3-6.6-12.2-10.7-22.1-10.7-1.5 0-2.9.1-4.2.2M13 16.8c-1.4.5-3 1.5-4.8 3.1 0 0 1.7.1 4.1 1.2"/><path fill="none" stroke="#1DC580" stroke-width="2" stroke-linecap="round" stroke-linejoin="round" stroke-miterlimit="10" d="M34.5 13.3c0-3.9 3.2-7.1 7.1-7.1s7.1 3.2 7.1 7.1c0 1.1-.2 2.1-.7 3.1M41.6 10.9V14"/></svg>