<svg version="1.2" baseProfile="tiny" id="Layer_1" xmlns="http://www.w3.org/2000/svg" x="0" y="0" viewBox="0 0 280 280" overflow="visible" xml:space="preserve"><g id="Layer_1_1_"><path fill="#F2F2F2" d="M207.7 62.7c29.3 27.9 63 52.9 70.6 85.5 7.5 32.6-10.8 72.6-40.2 98.7-29.3 25.9-69.3 37.8-103.2 31.5-33.7-6.5-61.1-31.1-85.9-57C24.4 195.3 2.4 168 .2 138.5c-2-29.6 15.7-61.3 40.2-89.4C65.2 21.2 96.9-3.2 125.2.3c28.3 3.4 53.3 34.5 82.5 62.4z"/></g><path fill-rule="evenodd" fill="#179D66" d="M30 107h220v66H30z"/><path fill="#FFF" d="M230.5 140.9v1.8c-.3.7-1 1.3-2 1.3-1.3 0-2-1-2-2.2 0-1.2.7-2.2 2-2.2 1 0 1.7.6 2 1.3m0-6.4v4.3c-.5-.5-1.3-1-2.5-1-2.4 0-3.7 1.9-3.7 4s1.3 4 3.7 4c1.4 0 2.3-.6 2.8-1.3v1.1h1.9v-11.1h-2.2zm-9.3 6.6h-3.4c0-1 .9-1.6 1.8-1.6 1.3-.1 1.6 1 1.6 1.6zm-5.7.7c0 2.6 2 4 4.4 4 1.1 0 2.1-.2 2.8-.5v-1.7c-.7.3-1.4.5-2.3.5-1.3 0-2.4-.5-2.7-1.6h5.4c.5-2.2-.5-4.7-3.7-4.7-1.6-.1-3.9 1.1-3.9 4zm-11.2 3.8v-5c.4-.5 1-.9 1.6-.9.7 0 1.2.5 1.2 1.3v4.7h2.2v-4.8-.3c.4-.4.9-.8 1.5-.8.7 0 1.2.5 1.2 1.3v4.7h2.2V141c0-1.3-.7-3-2.9-3-1.1 0-1.9.5-2.5 1.1-.4-.6-1.2-1.1-2.3-1.1-1.2 0-2 .6-2.4 1.1V138h-2v7.6h2.2zm-6.5-6.5V138h-2v7.6h2.2v-4.5c.5-.9 1.6-1.4 2.8-1.2v-2.1c-1.4-.1-2.5.5-3 1.3zm-3.7-3.7c0-.9-.6-1.2-1.3-1.2-.7 0-1.3.4-1.3 1.2 0 .9.6 1.3 1.3 1.3.7 0 1.3-.4 1.3-1.3zm-.2 10.2V138h-2.2v7.6h2.2zm-5.7 0v-5.7h2.3V138h-2.3v-.6c0-.9.7-1.2 1.4-1.2.5 0 1 .1 1.3.3v-1.9c-.5-.2-1.2-.3-1.9-.3-1.4 0-3 .7-3 3v.7h-1.3v1.9h1.3v5.7h2.2zm-10.3-6.7v-1h-2v7.6h2.2v-5c.3-.5.9-1 1.7-1 .9 0 1.5.5 1.5 1.5v4.4h2.2v-4.7c0-1.8-1.1-3.1-3.1-3.1-1.1.1-1.9.7-2.5 1.3zm-5.7 2.9c0 1.2-.7 2.1-2 2.1s-2-.9-2-2.1c0-1.2.7-2.1 2-2.1s2 .9 2 2.1zm-6.2 0c0 2.7 2 4 4.2 4s4.2-1.4 4.2-4c0-2.7-2-4-4.2-4-2.2-.1-4.2 1.3-4.2 4zm-10.2-1.6c0 3.9 3 5.6 6 5.6 1.2 0 2.3-.3 3.2-.7v-2.3c-.7.6-1.7.9-2.9.9-1.9 0-4-1.1-3.9-3.5 0-2.7 2-3.8 3.9-3.8 1 0 2.1.3 2.8.9V135c-1-.5-2.1-.7-3.2-.7-2.9 0-5.9 1.8-5.9 5.9zm-9.3-4.5v2.2h-1.3v1.9h1.3v3.4c0 1.9 1.3 2.6 2.8 2.6.8 0 1.5-.1 2.1-.3v-1.8c-.4.2-.9.3-1.4.3-.8 0-1.2-.3-1.2-1.1v-3h2.4V138h-2.4v-2.7l-2.3.4zm-8.5 4.4c0 2.7 4.3 2.2 4.3 3.4 0 .4-.5.6-1.3.6-.9 0-2.1-.3-2.9-.8v1.8c.8.5 1.9.7 3 .7 1.8 0 3.5-.6 3.5-2.3 0-2.8-4.3-2.2-4.3-3.4 0-.5.6-.6 1.1-.6.9 0 2 .3 2.7.8v-1.8c-.8-.4-1.7-.6-2.8-.6-1.7-.2-3.3.4-3.3 2.2zm-3.1 1h-3.4c0-1 .9-1.6 1.8-1.6 1.3-.1 1.6 1 1.6 1.6zm-5.7.7c0 2.6 2 4 4.4 4 1.1 0 2.1-.2 2.8-.5v-1.7c-.7.3-1.4.5-2.3.5-1.3 0-2.4-.5-2.7-1.6h5.4c.5-2.2-.5-4.7-3.7-4.7-1.7-.1-3.9 1.1-3.9 4zm-3.6-2.7V138h-2v7.6h2.2v-4.5c.5-.9 1.6-1.4 2.8-1.2v-2.1c-1.4-.1-2.5.5-3 1.3zm-5.5 2h-3.4c0-1 .9-1.6 1.8-1.6 1.4-.1 1.7 1 1.6 1.6zm-5.6.7c0 2.6 2 4 4.4 4 1.1 0 2.1-.2 2.8-.5v-1.7c-.7.3-1.4.5-2.3.5-1.3 0-2.4-.5-2.7-1.6h5.4c.5-2.2-.5-4.7-3.7-4.7-1.7-.1-3.9 1.1-3.9 4zm-5.7-6.1v2.2h-1.3v1.9h1.3v3.4c0 1.9 1.3 2.6 2.8 2.6.8 0 1.5-.1 2.1-.3v-1.8c-.4.2-.9.3-1.4.3-.8 0-1.2-.3-1.2-1.1v-3h2.4V138H111v-2.7l-2.2.4zm-7.9 3.2v-1h-2v7.6h2.2v-5c.3-.5.9-1 1.7-1 .9 0 1.5.5 1.5 1.5v4.4h2.2v-4.7c0-1.8-1.1-3.1-3.1-3.1-1.1.1-1.9.7-2.5 1.3zm-6.5-4.4v11.1h2.4v-11.1h-2.4zm-33.5 14.3l25-24.2-25.1 30.9-13.6-14.4 13.7 7.7z"/></svg>