<svg xmlns="http://www.w3.org/2000/svg" viewBox="0 0 280 280"><style>.st1,.st2,.st5{fill-rule:evenodd;clip-rule:evenodd;fill:#545557}.st2,.st5{fill:#0075e5}.st5{fill:#5f6060}</style><g id="Layer_1"><g id="Layer_1_2_"><g id="Layer_1_1_"><path d="M227.6 29c24.3 17.8 43.6 41.5 46.5 66.9 2.9 25.3-10.7 52.6-22.7 74.4s-22.7 38-34.1 56.2-23.8 38.4-41.8 47.5c-18.2 9.1-41.8 6.9-64.3.4-22.3-6.5-43.6-17.5-55.9-34.6s-15.8-40.2-26-66.6C19 146.8 2.1 117.2 6.1 92.6c4-24.5 29.1-44 55.7-60.7C88.4 15 116.5 1 145.2.1 174.1-1 203.3 11.2 227.6 29z" fill="#f2f2f2"/></g></g><g id="Layer_2_1_"><path class="st1" d="M204.7 114.4c11.4 0 20.6 9.2 20.6 20.6s-9.2 20.6-20.6 20.6c-11.4 0-20.6-9.2-20.6-20.6 0-11.4 9.2-20.6 20.6-20.6m0-3.1c13.1 0 23.7 10.6 23.7 23.7 0 4.5-1.3 8.7-3.5 12.3 0 0 .1 0 .1.1l12.2 12.2c.7.7.7 1.7 0 2.4l-6.3 6.3c-.7.7-1.7.7-2.4 0l-12.2-12.2c-.1-.1-.2-.2-.2-.3-3.4 1.9-7.3 2.9-11.5 2.9-13.1 0-23.7-10.6-23.7-23.7.1-13.1 10.7-23.7 23.8-23.7z"/><path class="st2" d="M204.7 119.4c5.6 0 10.1 4.5 10.1 10.1 0 4.4-2.9 8.2-6.9 9.5 4.9.8 8.8 3.3 10.4 6.6-1.9 4-7.3 6.8-13.6 6.8s-11.7-2.9-13.6-6.8c1.6-3.3 5.5-5.8 10.4-6.6-4-1.3-6.9-5.1-6.9-9.5.1-5.6 4.6-10.1 10.1-10.1"/><path class="st1" d="M229.4 123c4.3 0 7.8 3.5 7.8 7.8 0 3.5-2.3 6.4-5.4 7.5 3.8.6 6.9 2.6 8.1 5.1-1.5 3.1-5.7 5.3-10.6 5.3-.5 0-.9 0-1.4-.1 2.4-4 3.7-8.7 3.7-13.7 0-4.3-1-8.4-2.8-12 .3.1.4.1.6.1M180 123h.5c-1.8 3.6-2.8 7.7-2.8 12 0 5 1.4 9.7 3.7 13.7-.5 0-.9.1-1.4.1-4.9 0-9.1-2.2-10.6-5.3 1.2-2.6 4.3-4.5 8.1-5.1-3.1-1-5.4-4-5.4-7.5.1-4.4 3.6-7.9 7.9-7.9"/><path fill="#545557" d="M150.1 139h15.4v2.1h-15.4z"/></g></g><g id="Layer_2"><path d="M143 63.5H43.9c-.6 0-1.2.3-1.6.7-.4.4-.7 1.1-.7 1.7v147.6c0 .7.3 1.3.7 1.7.4.4 1 .7 1.6.7H143c.6 0 1.2-.3 1.6-.7.4-.4.7-1.1.7-1.7V66c0-.7-.3-1.3-.7-1.7-.4-.5-1-.8-1.6-.8m-99.1-1.6H143c1.1 0 2.1.5 2.8 1.2.7.7 1.1 1.8 1.1 2.9v147.6c0 1.1-.4 2.1-1.1 2.9-.7.7-1.7 1.2-2.8 1.2H43.9c-1.1 0-2.1-.5-2.8-1.2-.7-.7-1.1-1.8-1.1-2.9V66c0-1.1.4-2.1 1.1-2.9.7-.7 1.7-1.2 2.8-1.2z" fill="#5f6060"/><path class="st5" d="M98 70.3h35.4c2.5 0 4.6 2.1 4.6 4.6 0 2.5-2.1 4.6-4.6 4.6H98c-2.5 0-4.6-2.1-4.6-4.6 0-2.5 2.1-4.6 4.6-4.6M96 86.3h39.6c1.4 0 2.5 1.1 2.5 2.5s-1.1 2.5-2.5 2.5H96c-1.4 0-2.5-1.1-2.5-2.5-.1-1.4 1.1-2.5 2.5-2.5M96 95.4h39.6c1.4 0 2.5 1.1 2.5 2.5s-1.1 2.5-2.5 2.5H96c-1.4 0-2.5-1.1-2.5-2.5-.1-1.4 1.1-2.5 2.5-2.5M96 104.4h39.6c1.4 0 2.5 1.1 2.5 2.5s-1.1 2.5-2.5 2.5H96c-1.4 0-2.5-1.1-2.5-2.5-.1-1.3 1.1-2.5 2.5-2.5M96 113.5h39.6c1.4 0 2.5 1.1 2.5 2.5s-1.1 2.5-2.5 2.5H96c-1.4 0-2.5-1.1-2.5-2.5-.1-1.4 1.1-2.5 2.5-2.5M51.4 122.6h84.1c1.4 0 2.5 1.1 2.5 2.5s-1.1 2.5-2.5 2.5H51.4c-1.4 0-2.5-1.1-2.5-2.5s1.1-2.5 2.5-2.5M51.4 131.6h84.1c1.4 0 2.5 1.1 2.5 2.5s-1.1 2.5-2.5 2.5H51.4c-1.4 0-2.5-1.1-2.5-2.5 0-1.3 1.1-2.5 2.5-2.5M51.4 140.7h32.7c1.4 0 2.5 1.1 2.5 2.5s-1.1 2.5-2.5 2.5H51.4c-1.4 0-2.5-1.1-2.5-2.5s1.1-2.5 2.5-2.5M51.4 149.8h84.1c1.4 0 2.5 1.1 2.5 2.5s-1.1 2.5-2.5 2.5H51.4c-1.4 0-2.5-1.1-2.5-2.5s1.1-2.5 2.5-2.5M51.4 158.8h84.1c1.4 0 2.5 1.1 2.5 2.5s-1.1 2.5-2.5 2.5H51.4c-1.4 0-2.5-1.1-2.5-2.5 0-1.3 1.1-2.5 2.5-2.5M51.4 167.9h84.1c1.4 0 2.5 1.1 2.5 2.5s-1.1 2.5-2.5 2.5H51.4c-1.4 0-2.5-1.1-2.5-2.5s1.1-2.5 2.5-2.5M51.4 177h32.7c1.4 0 2.5 1.1 2.5 2.5s-1.1 2.5-2.5 2.5H51.4c-1.4 0-2.5-1.1-2.5-2.5s1.1-2.5 2.5-2.5M51.4 186h84.1c1.4 0 2.5 1.1 2.5 2.5s-1.1 2.5-2.5 2.5H51.4c-1.4 0-2.5-1.1-2.5-2.5 0-1.3 1.1-2.5 2.5-2.5M51.4 195.1h84.1c1.4 0 2.5 1.1 2.5 2.5s-1.1 2.5-2.5 2.5H51.4c-1.4 0-2.5-1.1-2.5-2.5 0-1.3 1.1-2.5 2.5-2.5M51.4 204.2h84.1c1.4 0 2.5 1.1 2.5 2.5s-1.1 2.5-2.5 2.5H51.4c-1.4 0-2.5-1.1-2.5-2.5s1.1-2.5 2.5-2.5M54.6 70.3h28.6c3.1 0 5.7 2.6 5.7 5.7v34.6c0 3.1-2.6 5.7-5.7 5.7H54.6c-3.1 0-5.7-2.6-5.7-5.7V76c0-3.1 2.5-5.7 5.7-5.7"/><path class="st2" d="M55.7 73.5H82c1.8 0 3.3 1.5 3.3 3.3V110c0 1.8-1.5 3.3-3.3 3.3H55.7c-1.8 0-3.3-1.5-3.3-3.3V76.8c.1-1.8 1.5-3.3 3.3-3.3"/><path d="M74.4 100.4c2.9 0 5.2 1.8 5.2 4.6v8.2H58.1v-8.1c0-2.8 2.3-4.7 5.2-4.7v.1c0 2.5 2.5 4.6 5.5 4.6s5.5-2.1 5.5-4.6l.1-.1z" fill-rule="evenodd" clip-rule="evenodd" fill="#ffc650"/><path d="M62.9 87.3c-.1-1.1 0-4.3.4-5.4 1.5-4.5 10.8-2.9 10.8-1.2 0 .4-.1 2.1.5 1.5 1-1 .8 2.1.8 2.6-.1 1.9-.1 2-.3 3.7-.2 1.2-.7 3.5-.7.5 0-.7.1-4.2-.7-4.2-2.1 0-.7 1.3-2.3 1.3-1 0-.7-.3-1.5-1.3-.6-.8-.9-1.3-2.1-1.3-2-.1-2.5.1-2.4 1.6.1 1.1 1.6.7 2.4.7.6 0 .6-.2-.1.7-1.1 1.3-3.5.8-3.5 1.2-.2 5.7-1 2.1-1.3-.4" fill-rule="evenodd" clip-rule="evenodd" fill="#5d3e40"/><path d="M73.6 84.8c.2.5.4 1.1.6 1.7.1 1 .1 2.1.1 2.5 0 2.9.6.7.7-.5l.1-.6c.3.1.4.8.3 1.7-.1.9-.5 1.5-.8 1.5-.1 0-.2-.1-.2-.2-.4 2.6-1.7 4.7-3.5 5.7v2.9c0 .3.3.6.6.7l2.8.4v.1c0 2.5-2.5 4.6-5.5 4.6s-5.5-2.1-5.5-4.6v-.1l2.8-.4c.3 0 .6-.3.6-.7v-2.9c-1.7-1-3.1-3.1-3.5-5.7-.1.1-.1.2-.2.2-.3 0-.6-.6-.8-1.5-.1-.9 0-1.6.3-1.7.1 0 .3.1.4.3.4 2.3.9 4.6 1-.6 0-.4 2.4.1 3.5-1.2.7-.8.7-.7.1-.7-.7 0-2.3.4-2.4-.7-.1-1.4.4-1.7 2.4-1.6 1.2.1 1.5.6 2.1 1.3.8 1 .4 1.3 1.5 1.3 1.7.1.3-1.2 2.5-1.2" fill-rule="evenodd" clip-rule="evenodd" fill="#dda281"/></g></svg>