<svg version="1.2" baseProfile="tiny" id="Layer_1" xmlns="http://www.w3.org/2000/svg" x="0" y="0" viewBox="0 0 280 280" overflow="visible" xml:space="preserve"><g id="Layer_1_1_"><path fill="#F2F2F2" d="M204.1 32.5c25.2 15.1 50.8 30.8 64.2 53.7 13.2 23.1 14.4 53.5 7.6 81s-21.4 52-40.5 70.9-42.8 32.2-67.3 37c-24.5 4.7-50.1 1-73.5-7-23.6-8-45.2-20.2-63.1-37.6C13.4 213.5-.8 191 0 169.1c.9-22.1 16.9-43.6 28.5-66.2C40.4 80.1 47.7 56.3 63.7 37s40.9-34.1 65.5-34.2c24.9 0 49.7 14.6 74.9 29.7z"/></g><path fill-rule="evenodd" fill="#00953F" d="M67.2 206l-.3.1v-.1l.1-.2.1-.2.1-.2.1-.2.1-.2.1-.2.1-.2.1-.2.1-.2.1-.2.1-.2.1-.2.1-.2.1-.2.1-.2.1-.2.1-.2.1-.2.1-.2.1-.2.1-.2.1-.2.1-.2.1-.2.1-.2.1-.2.1-.2.1-.2.1-.2.1-.2.1-.2.1-.2.1-.2.1-.2.1-.2.1-.2.1-.2.1-.2.1-.2.1-.2.1-.2.1-.2.1-.2.1-.2.1-.2.1-.2s0-.1-.1-.2c0-.1-.1-.1-.1-.2s-.1-.1-.1-.2-.1-.1-.1-.2-.1-.1-.1-.2-.1-.1-.1-.2-.1-.1-.1-.2-.1-.1-.1-.2-.1-.1-.1-.2-.1-.1-.1-.2-.1-.1-.1-.2-.1-.1-.1-.2-.1-.1-.1-.2-.1-.1-.1-.2-.1-.1-.1-.2-.1-.1-.1-.2-.1-.1-.1-.2-.1-.1-.1-.2-.1-.1-.1-.2-.1-.1-.1-.2-.1-.1-.1-.2-.1-.1-.1-.2-.1-.1-.1-.2-.1-.1-.1-.2-.1-.1-.1-.2-.1-.1-.1-.2-.1-.1-.1-.2-.1-.1-.1-.2-.1-.1-.1-.2-.1-.1-.1-.2-.1-.1-.1-.2-.1-.1-.1-.2-.1-.1-.1-.2 0-.1-.1-.2c0-.1 0-.1-.1-.2 0-.1 0-.1-.1-.2 0-.1 0-.1-.1-.2 0-.1 0-.1-.1-.2 0-.1 0-.1-.1-.2 0-.1 0-.1-.1-.2 0-.1 0-.1-.1-.2 0-.1 0-.1-.1-.2 0-.1 0-.1-.1-.2 0-.1 0-.1-.1-.2 0-.1 0-.1-.1-.2 0-.1 0-.1-.1-.2 0-.1 0-.1-.1-.2 0-.1 0-.1-.1-.2v-.2-.2-.2-.2-.2-.2-.2-.2-.2-.2-.2-.2-.2-.2-.2-.2-.2-.2-.2-.2-.2-.2-.2-.2-.2-.2-.2-.2-.2-.2-.2-.2-.2-.2-.2-.2-.2-.2-.2-.2-.2-.2-.2-.2-.2-.2-.2-.2-.2-.2-.2-.2-.2-.2-.2-.2-.2c0-.1 0-.1.1-.2 0-.1 0-.1.1-.2 0-.1 0-.1.1-.2 0-.1 0-.1.1-.2 0-.1 0-.1.1-.2 0-.1 0-.1.1-.2 0-.1 0-.1.1-.2 0-.1 0-.1.1-.2 0-.1 0-.1.1-.2 0-.1 0-.1.1-.2 0-.1 0-.1.1-.2 0-.1 0-.1.1-.2 0-.1 0-.1.1-.2 0-.1 0-.1.1-.2 0-.1 0-.1.1-.2 0-.1.1-.1.1-.2s.1-.1.1-.2.1-.1.1-.2.1-.1.1-.2.1-.1.1-.2.1-.1.1-.2.1-.1.1-.2.1-.1.1-.2.1-.1.1-.2.1-.1.1-.2.1-.1.1-.2.1-.1.1-.2.1-.1.1-.2.1-.1.1-.2.1-.1.1-.2.1-.1.1-.2.1-.1.1-.2.1-.1.1-.2.1-.1.1-.2.1-.1.1-.2.1-.1.1-.2.1-.1.1-.2.1-.1.1-.2.1-.1.1-.2.1-.1.1-.2.1-.1.1-.2.1-.1.1-.2.1-.1.1-.2.1-.1.1-.2.1-.1.1-.2.1-.1.1-.2.1-.1.1-.2l.2-.2.2-.2.2-.2.2-.2.2-.2.2-.2.2-.2.2-.2.2-.2.2-.2.2-.2.2-.2.2-.2.2-.2.2-.2.2-.2.2-.2.2-.2.2-.2c.1-.1.2-.1.2-.2.1-.1.2-.1.2-.2.1-.1.2-.1.2-.2.1-.1.2-.1.2-.2.1-.1.2-.1.3-.2.1-.1.2-.1.3-.2.1-.1.2-.1.3-.2.1-.1.2-.1.3-.2.1-.1.2-.1.3-.2.1-.1.2-.1.3-.2.1-.1.2-.1.3-.2.1-.1.2-.1.3-.2.1-.1.2-.1.3-.2.1-.1.2-.1.3-.2.1-.1.2-.1.3-.2.1-.1.2-.1.3-.2.1-.1.2-.1.4-.2.1-.1.3-.1.4-.2.1-.1.3-.1.4-.2.1-.1.3-.1.4-.2.1-.1.3-.1.4-.2.1-.1.3-.1.4-.2.2-.1.3-.1.5-.2s.3-.1.5-.2.4-.1.5-.2c.2-.1.4-.1.6-.2.2-.1.4-.1.6-.2.2-.1.5-.1.7-.2.2-.1.5-.1.8-.2.3-.1.6-.1.9-.2.3-.1.7-.1 1-.2.4-.1.9-.1 1.4-.2 1.1-.1 2.2-.2 3.3-.2 1.1 0 2.2.1 3.3.2.5.1.9.1 1.4.2.3.1.7.1 1 .2.3.1.6.1.9.2.3.1.5.1.8.2.2.1.5.1.7.2.2.1.4.1.6.2.2.1.4.1.6.2.2.1.4.1.5.2.2.1.3.1.5.2s.3.1.5.2.3.1.4.2c.1.1.3.1.4.2.1.1.3.1.4.2.1.1.3.1.4.2.1.1.3.1.4.2.1.1.2.1.4.2.1.1.2.1.3.2.1.1.2.1.3.2.1.1.2.1.3.2.1.1.2.1.3.2.1.1.2.1.3.2.1.1.2.1.3.2.1.1.2.1.3.2.1.1.2.1.3.2.1.1.2.1.3.2.1.1.2.1.3.2.1.1.2.1.3.2.1.1.2.1.3.2.1.1.2.1.2.2.1.1.2.1.2.2.1.1.2.1.2.2.1.1.2.1.2.2l.2.2.2.2.2.2.2.2.2.2.2.2.2.2.2.2.2.2.2.2.2.2.2.2.2.2.2.2.2.2.2.2.2.2.2.2.2.2.2.2c0 .1.1.1.1.2s.1.1.1.2.1.1.1.2.1.1.1.2.1.1.1.2.1.1.1.2.1.1.1.2.1.1.1.2.1.1.1.2.1.1.1.2.1.1.1.2.1.1.1.2.1.1.1.2.1.1.1.2.1.1.1.2.1.1.1.2.1.1.1.2.1.1.1.2.1.1.1.2.1.1.1.2.1.1.1.2.1.1.1.2.1.1.1.2.1.1.1.2.1.1.1.2.1.1.1.2.1.1.1.2.1.1.1.2.1.1.1.2.1.1.1.2.1.1.1.2 0 .1.1.2c0 .1 0 .1.1.2 0 .1 0 .1.1.2 0 .1 0 .1.1.2 0 .1 0 .1.1.2 0 .1 0 .1.1.2 0 .1 0 .1.1.2 0 .1 0 .1.1.2 0 .1 0 .1.1.2 0 .1 0 .1.1.2 0 .1 0 .1.1.2 0 .1 0 .1.1.2 0 .1 0 .1.1.2 0 .1 0 .1.1.2 0 .1 0 .1.1.2V187.6c0 .1 0 .1-.1.2 0 .1 0 .1-.1.2 0 .1 0 .1-.1.2 0 .1 0 .1-.1.2 0 .1 0 .1-.1.2 0 .1 0 .1-.1.2 0 .1 0 .1-.1.2 0 .1 0 .1-.1.2 0 .1 0 .1-.1.2 0 .1 0 .1-.1.2 0 .1 0 .1-.1.2 0 .1 0 .1-.1.2 0 .1 0 .1-.1.2 0 .1 0 .1-.1.2 0 .1-.1.1-.1.2s-.1.1-.1.2-.1.1-.1.2-.1.1-.1.2-.1.1-.1.2-.1.1-.1.2-.1.1-.1.2-.1.1-.1.2-.1.1-.1.2-.1.1-.1.2-.1.1-.1.2-.1.1-.1.2-.1.1-.1.2-.1.1-.1.2-.1.1-.1.2-.1.1-.1.2-.1.1-.1.2-.1.1-.1.2-.1.1-.1.2-.1.1-.1.2-.1.1-.1.2-.1.1-.1.2-.1.1-.1.2-.1.1-.1.2-.1.1-.1.2-.1.1-.1.2-.1.1-.1.2-.1.1-.1.2-.1.1-.1.2-.1.1-.1.2-.1.1-.1.2-.1.1-.1.2l-.2.2-.2.2-.2.2-.2.2-.2.2-.2.2-.2.2-.2.2-.2.2-.2.2-.2.2-.2.2-.2.2-.2.2-.2.2-.2.2-.2.2-.2.2-.2.2c-.1.1-.2.1-.2.2-.1.1-.2.1-.2.2-.1.1-.2.1-.2.2-.1.1-.2.1-.2.2-.1.1-.2.1-.3.2-.1.1-.2.1-.3.2-.1.1-.2.1-.3.2-.1.1-.2.1-.3.2-.1.1-.2.1-.3.2-.1.1-.2.1-.3.2-.1.1-.2.1-.3.2-.1.1-.2.1-.3.2-.1.1-.2.1-.3.2-.1.1-.2.1-.3.2-.1.1-.2.1-.3.2-.1.1-.2.1-.3.2-.1.1-.2.1-.4.2-.1.1-.3.1-.4.2-.1.1-.3.1-.4.2-.1.1-.3.1-.4.2-.1.1-.3.1-.4.2-.1.1-.3.1-.4.2-.2.1-.3.1-.5.2s-.3.1-.5.2-.4.1-.5.2c-.2.1-.4.1-.6.2-.2.1-.4.1-.6.2-.2.1-.4.1-.7.2-.2.1-.5.1-.8.2-.3.1-.6.1-.9.2-.3.1-.7.1-1 .2-.4.1-.9.1-1.4.2-1.1.1-2.2.2-3.3.2-1.1 0-2.1-.1-3.1-.2-.4-.1-.9-.1-1.3-.2-.3-.1-.7-.1-1-.2-.3-.1-.6-.1-.9-.2-.3-.1-.5-.1-.8-.2-.2-.1-.5-.1-.7-.2-.2-.1-.4-.1-.6-.2-.2-.1-.4-.1-.6-.2-.2-.1-.4-.1-.6-.2-.2-.1-.4-.1-.5-.2-.2-.1-.3-.1-.5-.2s-.3-.1-.5-.2-.3-.1-.5-.2c-.1-.1-.3-.1-.4-.2-.1-.1-.3-.1-.4-.2-.1-.1-.3-.1-.4-.2-.1-.1-.3-.1-.4-.2-.1-.1-.3-.1-.4-.2-.1-.1-.3-.1-.4-.2-.1-.1-.2-.1-.3-.2-.2-.1-.3-.2-.3-.2h-.2l-.6.2-.6.2-.6.2-.6.2-.6.2-.6.2-.6.2-.6.2-.6.2-.6.2-.6.2-.6.2-.6.2-.6.2-2.6.2z"/><path fill-rule="evenodd" fill="#FFF" d="M79.3 167.3s.8-.5 1.3-.5h2.5s.7.1 1 .8 2.4 5.6 2.5 6c.2.4.6 1.3-.1 2.1-.6.8-2 2.4-2 2.4s-.5.5-.1 1.3c.5.8 2.1 3.3 4.2 5.2s4.8 3.3 6.1 3.8c1.3.4 1.6-.1 2.1-.8.5-.6 2.1-2.6 2.1-2.6s.5-.8 1.6-.3 6.2 3 6.2 3 .6.1.7.8c0 .7.5 2.8-1.4 4.8s-5.8 2.9-7.7 2.4c-1.9-.5-8.1-2.1-12.1-5.9-4-3.8-7.3-7.7-8.6-10.7-1.3-2.9-1.3-4.7-1.2-5.5-.1-.9.4-4.7 2.9-6.3"/><path fill-rule="evenodd" fill="#E2E2E2" d="M151.5 156.2h57.7c-.8 0-1.6.3-2.3.7l-26.6 19.3-26.5-19.3c-.6-.5-1.4-.7-2.3-.7"/><path fill-rule="evenodd" fill="#BCBCBC" d="M191.2 205.6l-41.1-41.8 30.2 21.9 25.1-18.1v38z"/><path fill-rule="evenodd" fill="#CECECE" d="M155.4 205.6v-38.1l24.9 18.1-24.9 20z"/><path fill-rule="evenodd" fill="#B2B2B2" d="M175.5 189.6l-20.1-20.5v-1.5l24.9 18.1z"/><path fill-rule="evenodd" fill="#D62B27" d="M151.5 156.2l3.9 6.6v42.9h-3.9c-2.1 0-3.9-1.7-3.9-3.9V160c.1-2.1 1.8-3.8 3.9-3.8"/><path fill-rule="evenodd" fill="#D44B3D" d="M151.2 156.8c-1.6.2-2.8 1.5-2.8 3.2v41.8c0 1.8 1.4 3.2 3.2 3.2h3.2v-42.1l-3.6-6.1z"/><path fill-rule="evenodd" fill="#BC4236" d="M155.4 169.1l-5.3-5.3 5.3 3.8z"/><path fill-rule="evenodd" fill="#E2E2E2" d="M155.4 205.6l20.1-16 15.7 16z"/><path fill-rule="evenodd" fill="#AE2320" d="M209.2 156.2l-3.9 6.6v42.9h3.9c2.1 0 3.9-1.7 3.9-3.9V160c0-2.1-1.7-3.8-3.9-3.8"/><path fill-rule="evenodd" fill="#AA3C31" d="M209.6 156.8c1.6.2 2.8 1.5 2.8 3.2v41.8c0 1.8-1.4 3.2-3.2 3.2H206v-42.1l3.6-6.1z"/><path fill-rule="evenodd" fill="#D62B27" d="M209.2 156.2c-.8 0-1.6.3-2.3.7l-26.6 19.3-26.5-19.3c-.6-.5-1.4-.7-2.3-.7-2.1 0-3.9 1.7-3.9 3.9 0 1.3.6 2.4 1.6 3.2l31 22.5 31.1-22.5c1-.7 1.6-1.9 1.6-3.2.2-2.2-1.5-3.9-3.7-3.9"/><path fill-rule="evenodd" fill="#D44B3D" d="M180.3 184.9l30.7-22.2c.9-.6 1.4-1.6 1.4-2.6 0-1.8-1.4-3.2-3.2-3.2-.7 0-1.3.2-1.9.6l-27 19.5-26.9-19.5c-.5-.4-1.2-.6-1.9-.6-1.8 0-3.2 1.4-3.2 3.2 0 1.1.5 2 1.4 2.6l30.6 22.2z"/><path fill-rule="evenodd" fill="#0075E5" d="M122.5 71.8h51.9c3.6 0 6.6 3 6.6 6.6v51.9c0 3.6-3 6.6-6.6 6.6h-51.9c-3.6 0-6.6-3-6.6-6.6V78.4c.1-3.7 3-6.6 6.6-6.6"/><path fill-rule="evenodd" fill="#FFF" d="M129.6 117.9h3.4v2.5h-3.4v-2.5zm5-1.9l3.7 3.1-3.7 3.2V116zm4.9 1.9h27.8v2.5h-27.8v-2.5zm5.5-16.4h7.3c3.2 0 5.8 2.6 5.8 5.8v6.8h9.2c.5 0 .9-.4.9-.9v-26c0-.5-.4-.9-.9-.9h-37.6c-.5 0-.9.4-.9.9v26c0 .5.4.9.9.9h9.6v-6.8c-.1-3.2 2.5-5.8 5.7-5.8zm3.6-10.9c2.8 0 5 2.2 5 5s-2.2 5-5 5-5-2.2-5-5c.1-2.7 2.3-5 5-5zM129 84.9h38.9c.9 0 1.6.7 1.6 1.6V122c0 .9-.7 1.6-1.6 1.6H129c-.9 0-1.6-.7-1.6-1.6V86.6c0-.9.7-1.7 1.6-1.7z"/></svg>