<svg version="1.2" baseProfile="tiny" id="Layer_1" xmlns="http://www.w3.org/2000/svg" x="0" y="0" width="300" height="82" viewBox="0 0 300 82" overflow="visible" xml:space="preserve"><g fill="#151B23"><path d="M162 61.4c-1.1.2-2.1.3-3.2.4.2.4.4.7.5 1.1.4 1.2.6 2.4.5 3.6 0 7.1-4.4 12.9-9.9 12.9-4.3 0-6.9-3.1-6.9-8.1-.2-4.1 1.5-8.1 4.6-10.8.6-.5 1.2-.8 1.9-1.1v-.1h15.4l1-2.5h-39.7c-4.1-.1-8.1 1.3-11.2 3.8-2.9 2.4-4.6 6-4.6 9.8 0 6.7 5.5 11.1 13.9 11.1 3.6.1 7.1-.9 10.2-2.9l-1.7-2.2c-2.4 1.7-5.3 2.5-8.3 2.5-6.6 0-10.6-3.2-10.6-8.6 0-6.3 5.2-10.8 12.5-10.9h18.9c-3.4 3.1-5.3 7.4-5.2 12 0 6.5 3.9 10.7 9.9 10.7 7.4 0 13.3-6.7 13.3-15.1.1-1.8-.3-3.7-1-5.4-.3-.1-.3-.1-.3-.2zM181.4 56.1c-3.4 0-6.6 1.6-8.7 4.3l.8-3.7h-3.1l-5.7 24.6h3.1s4-16.8 5.4-18.8c1.6-2.4 4.4-3.8 7.3-3.8 3 0 4.7 1.4 4.7 3.9-.1 1.5-.3 3-.7 4.5l-3.3 14.2h3.1l3.3-14.2c.4-1.6.7-3.2.7-4.8.1-3.8-2.6-6.2-6.9-6.2zM207.3 56.1c-3.4 0-6.6 1.6-8.7 4.3l.8-3.7h-3.1l-5.7 24.6h3.1s4-16.8 5.4-18.8c1.6-2.4 4.4-3.8 7.3-3.8 3 0 4.7 1.4 4.7 3.9-.1 1.5-.3 3-.7 4.5l-3.3 14.2h3.1l3.3-14.2c.4-1.6.7-3.2.7-4.8.1-3.8-2.6-6.2-6.9-6.2zM231.1 56.1c-7.5 0-13.2 6.8-13.2 15.5 0 6.4 3.7 10.4 9.8 10.4 4.2.1 8.1-2 10.4-5.5.4-.6.7-1.3 1-2l-3-.6c-1.2 3.4-4.4 5.6-8 5.6-4.2 0-6.9-3-6.9-7.8 0-.9.1-1.7.2-2.6h18.5c.2-1 .2-2.1.2-3.1-.1-6.3-3.4-9.9-9-9.9zm5.8 8.9c0 .6 0 1.1-.1 1.7h-15c1.6-5.2 4.9-8.2 9.2-8.2h.9c3.1.4 5.4 3.3 5 6.5zM48.9 9.6L26.1 43.9 16.9 9.6h-5.6L22 49.5c-1.2 2.3-2.8 4.3-4.7 6-2.1 1.8-4.8 2.7-7.5 2.5-3 0-5.9-.6-8.7-1.8L0 61.1c3.1.9 6.4 1.4 9.7 1.4 4.6.4 9.2-1.4 12.3-4.9.8-.9 1.6-1.9 2.3-2.9.4-.6 1.4-2.1 2.9-4.3L54.9 9.6h-6zM133.5 27c2.4 1.5 5.1 2.2 11.2 2.9 7.7.9 15.2 2.2 16.2 2.8 1.2.7 2 2 2 3.4 0 4.6-6.3 8-15.1 8-7.2 0-13.6-2-16.3-5.1-.8-.8-1.3-1.8-1.6-2.9l-5.8.9c1.6 7.4 9.7 11.3 23.2 11.3 8.2 0 13.8-1.6 17.4-5.2 2.2-2.1 3.4-5 3.4-8-.1-3.7-2.7-6.9-6.4-7.7-2.3-.7-4.8-1.1-7.2-1.4-1.2-.2-3.4-.4-6.4-.8-7.5-.8-9-1.1-10.5-1.9-1.4-.6-2.4-2-2.3-3.6 0-4.7 5-7.3 14-7.3 4.2-.1 8.3.8 12.1 2.5 1.9.7 3.4 2.3 3.9 4.3l5.9-.9c-.2-.9-.5-1.7-.9-2.5-1.1-2.1-3-3.8-5.2-4.7-4.9-2.1-10.3-3-15.6-2.8-7.7 0-12.5 1.2-15.9 3.9-2.4 2-3.8 4.9-3.7 8-.1 2.9 1.3 5.5 3.6 6.8zM200.9 8.6c-3.6-.1-7.2.5-10.6 1.7-2.6.8-5 2.3-6.9 4.3l1.2-4.9h-5.2l-10.4 44h5.1l3-13c4.1 5.5 9.8 7.9 18.5 7.9 15.1 0 25.6-9.2 25.6-22.4 0-10.8-7.9-17.6-20.3-17.6zM196 44.2c-10.1 0-16.1-4.8-16.1-12.9-.1-5.3 2-10.4 5.9-14 4-2.9 9-4.4 14-4.2 10 0 15.8 4.9 15.8 13.4 0 10.6-7.9 17.7-19.6 17.7zM200.8 8.6h.1zM90 16.5c2.9 2.6 4.4 6.2 4.4 10 0 10.3-8.4 17.7-20.3 17.7-10.6 0-17.1-5.1-17.1-13.8 0-10.1 8.4-17.5 20.1-17.7v-.1h49.2l1.5-4.1h-11.3l2-8.6h-5.1l-2 8.6H77.1c-6.6-.1-13 2-18.1 6.1-4.7 3.9-7.4 9.7-7.5 15.8 0 10.8 8.9 17.8 22.4 17.8 14.9 0 26.1-9.4 26.1-22.1.1-3.5-1-6.9-3-9.8h-7z"/><path d="M118.3 47.6l.9-4.2c-1.4.3-2.8.4-4.2.4-3.7 0-5.2-1.3-5.2-4.4.1-2 .4-4.1.9-6l3.9-16.8h-5.2s-5.1 21.9-5.2 24.1c0 4.6 3.4 7.5 9 7.5 1.7-.1 3.4-.3 5.1-.6zM282 39.3c.1-2 .4-4.1.9-6l3.9-16.8h-5.2l-4.1 17.7c-.6 2.1-.9 4.2-1 6.4 0 4.6 3.4 7.5 9 7.5 1.7 0 3.4-.2 5-.5l.9-4.2c-1.4.3-2.8.4-4.2.4-3.7-.1-5.2-1.4-5.2-4.5zM246.3 44.2c-8.9 0-14.9-3.6-16.6-9.9-2.2.2-4 .5-5.5.8 2.1 8.2 10.3 13.4 21.8 13.4 11.4 0 20.7-5.6 24.4-13.9-1.7.2-3.8.5-6.1.6-3.2 5.5-9.8 9-18 9z"/><path d="M288.7 8.6l2-8.6h-5.1l-2 8.6h-34.2c-6.6-.1-13 2-18.1 6.1-4.7 3.9-7.4 9.7-7.5 15.8 0 .6 0 1.1.1 1.7 1.8-.7 3.6-1.3 5.5-1.8 0-10.1 8.4-17.5 20.1-17.7v-.1h49.2l1.5-4.1-11.5.1z"/><path d="M232.4 28.3s.1 0 .3-.1c-.1.1-.2.1-.3.1zM241.4 23.4c-.1 2.3-7.3 4.4-8.8 4.8 8.3-2.2 16.8-3.6 25.3-4.2-5.2-4.4-16.5-.6-16.5-.6zM237.4 33.4c3.4 0 6.9.2 10.3.7 3.5.4 7 .7 10.5.7 5.9.1 11.7-.6 17.5-1.9-2.6.4-5.2.6-7.9.5-5.9 0-11.9-.7-17.7-1.8-2.8-.5-5.6-.8-8.4-.8-7 0-13.9 1.6-20.2 4.6 5.2-1.4 10.6-2.1 15.9-2zM236.3 30.1c1.9-.2 3.8-.4 5.7-.4 2.9 0 5.7.3 8.5.8.9.2 1.7.3 2.6.5 2 .1 4-.1 6-.5 3.5-1.7 6.8-3.7 9.8-6.1-12.9.3-25.6 2.1-38.1 5.3 0 0 2.3.2 5.5.4z"/><path d="M266.6 27c0 1.5-.3 3-.7 4.4 1.1 0 2.3.1 3.4.1h2.2c.4-1.7.7-3.4.7-5.2.1-3.5-1-6.9-3-9.8h-6.9c2.1 1.9 3.6 4.4 4.1 7.2 1.2 0 2.3-.1 3.5-.1h1.4l-1.1.9c-.2 0-1.7 1.2-3.6 2.5zM282.1 51.4h-3.2l-1.2 5.3h-18.2c-4.1-.1-8.1 1.3-11.2 3.8-2.9 2.4-4.6 6-4.6 9.8 0 6.7 5.5 11.1 13.9 11.1 3.6.1 7.1-.9 10.2-2.9l-1.7-2.2c-2.4 1.7-5.3 2.5-8.3 2.5-6.6 0-10.6-3.2-10.6-8.6 0-6.3 5.2-10.8 12.5-10.9h27.4l1-2.5h-7l1-5.4z"/><path d="M276.7 75.7c.1-1.3.3-2.5.6-3.7l2.4-10.4h-3.2l-2.6 11c-.4 1.3-.6 2.6-.6 4 0 2.9 2.1 4.6 5.6 4.6 1 0 2.1-.1 3.1-.3l.6-2.6c-.9.2-1.7.2-2.6.2-2.3-.1-3.3-.9-3.3-2.8z"/></g></svg>